<svg id="Capa_1" enable-background="new 0 0 511.996 511.996" height="512" viewBox="0 0 511.996 511.996" width="512" xmlns="http://www.w3.org/2000/svg"><g><path d="m473.104 112.473v358.908c0 22.43-18.186 40.616-40.616 40.616h-352.98c-22.43 0-40.616-18.186-40.616-40.616v-430.762c0-22.43 18.186-40.616 40.616-40.616h281.127z" fill="#f8f6f9"/><path d="m473.104 112.473h-71.854c-22.43 0-40.616-18.186-40.616-40.616v-71.853" fill="#dddaec"/><g><path d="m373.134 175.972c5.167-10.413.912-23.033-9.501-28.2l-32.583-16.139c-10.413-5.167-23.033-.912-28.2 9.501l-64.477 130.09-31.399-52.513c-5.966-9.981-18.875-13.228-28.856-7.262l-31.207 18.651c-9.965 5.966-13.228 18.875-7.262 28.856l61.87 103.49c3.951 6.606 11.197 10.541 18.875 10.237l43.859-1.728c7.694-.304 14.604-4.783 18.011-11.677z" fill="#95d6a4"/><g fill="#78c2a4"><path d="m251.489 293.16 75.349-152.026c1.68-3.387 4.157-6.108 7.082-8.08l-2.87-1.422c-10.413-5.167-23.033-.912-28.2 9.501l-64.477 130.09z"/><path d="m225.507 362.446-61.87-103.49c-5.966-9.981-2.703-22.889 7.262-28.856l29.954-17.902c-6.571-4.529-15.432-5.114-22.735-.749l-31.207 18.651c-9.965 5.966-13.228 18.875-7.262 28.856l61.87 103.49c3.951 6.606 11.197 10.541 18.874 10.237l17.774-.7c-5.219-1.391-9.803-4.76-12.66-9.537z"/></g></g><path d="m103.484 511.993h-23.972c-22.427 0-40.62-18.182-40.62-40.619v-430.755c0-22.437 18.193-40.619 40.62-40.619h23.972c-22.437 0-40.62 18.182-40.62 40.619v430.754c0 22.437 18.183 40.62 40.62 40.62z" fill="#dddaec"/></g></svg>