<svg id="Capa_1" enable-background="new 0 0 511.99 511.99" height="512" viewBox="0 0 511.99 511.99" width="512" xmlns="http://www.w3.org/2000/svg"><g><path d="m400.164 41.206h-288.338c-40.485 0-73.305 32.82-73.305 73.305v324.173c0 40.485 32.82 73.305 73.305 73.305h288.338c40.485 0 73.305-32.82 73.305-73.305v-324.172c0-40.486-32.82-73.306-73.305-73.306z" fill="#d8aa8b"/><path d="m144.937 511.99h-33.11c-40.485 0-73.306-32.821-73.306-73.306v-324.171c0-40.485 32.821-73.306 73.306-73.306h33.11c-40.485 0-73.306 32.821-73.306 73.306v324.171c0 40.486 32.821 73.306 73.306 73.306z" fill="#ce9875"/><path d="m359.082 108.08h-237.106c-22.428 0-40.61 18.182-40.61 40.61v279.93c0 22.428 18.182 40.61 40.61 40.61h237.105c22.428 0 40.61-18.182 40.61-40.61v-279.93c.001-22.428-18.181-40.61-40.609-40.61z" fill="#ce9875"/><path d="m374.082 108.08h-237.106c-22.428 0-40.61 18.182-40.61 40.61v279.93c0 22.428 18.182 40.61 40.61 40.61h237.105c22.428 0 40.61-18.182 40.61-40.61v-279.93c.001-22.428-18.181-40.61-40.609-40.61z" fill="#f8f6f9"/><path d="m294.38 141.762h-76.769c-16.336 0-29.626-13.29-29.626-29.627v-52.413c0-4.267 3.459-7.726 7.726-7.726 4.268 0 7.726 3.459 7.726 7.726v52.414c0 7.816 6.358 14.174 14.174 14.174h76.769c7.816 0 14.174-6.359 14.174-14.174v-52.414c0-4.267 3.459-7.726 7.726-7.726s7.726 3.459 7.726 7.726v52.414c0 16.336-13.291 29.626-29.626 29.626z" fill="#365e7d"/><g><path d="m234.758 180.214c2.24-4.515.395-9.987-4.119-12.227l-14.127-6.998c-4.515-2.24-9.987-.395-12.227 4.119l-27.956 56.404-13.614-22.768c-2.587-4.328-8.183-5.735-12.511-3.149l-13.531 8.086c-4.321 2.587-5.735 8.183-3.149 12.511l26.825 44.87c1.713 2.864 4.855 4.57 8.183 4.439l19.016-.749c3.336-.132 6.332-2.074 7.809-5.063z" fill="#95d6a4"/></g><g><path d="m207.801 359.28 20.362-20.362c3.436-3.436 3.436-9.006 0-12.442l-11.388-11.388c-3.436-3.436-9.006-3.436-12.442 0l-20.362 20.362-20.362-20.362c-3.436-3.436-9.006-3.436-12.442 0l-11.388 11.388c-3.436 3.436-3.436 9.006 0 12.442l20.362 20.362-20.362 20.362c-3.436 3.436-3.436 9.006 0 12.442l11.388 11.388c3.436 3.436 9.006 3.436 12.442 0l20.362-20.362 20.362 20.362c3.436 3.436 9.006 3.436 12.442 0l11.388-11.388c3.436-3.436 3.436-9.006 0-12.442z" fill="#dd636e"/></g><g fill="#365e7d"><path d="m376.099 220.499h-114.199c-4.268 0-7.726-3.459-7.726-7.726s3.459-7.726 7.726-7.726h114.198c4.268 0 7.726 3.459 7.726 7.726.001 4.267-3.458 7.726-7.725 7.726z"/><path d="m342.77 251.733h-80.87c-4.268 0-7.726-3.459-7.726-7.726s3.459-7.726 7.726-7.726h80.87c4.268 0 7.726 3.459 7.726 7.726s-3.458 7.726-7.726 7.726z"/></g><g fill="#365e7d"><path d="m376.099 351.389h-114.199c-4.268 0-7.726-3.459-7.726-7.726s3.459-7.726 7.726-7.726h114.198c4.268 0 7.726 3.459 7.726 7.726.001 4.267-3.458 7.726-7.725 7.726z"/><path d="m342.77 382.623h-80.87c-4.268 0-7.726-3.459-7.726-7.726s3.459-7.726 7.726-7.726h80.87c4.268 0 7.726 3.459 7.726 7.726s-3.458 7.726-7.726 7.726z"/></g><path d="m323.079 82.042h-134.167c-22.655 0-41.021-18.366-41.021-41.021 0-22.655 18.365-41.021 41.021-41.021h134.167c22.655 0 41.021 18.366 41.021 41.021 0 22.655-18.366 41.021-41.021 41.021z" fill="#bed8fb"/><path d="m243.417 82.042h-54.506c-22.653 0-41.021-18.368-41.021-41.021 0-11.332 4.594-21.582 12.012-29.01 7.428-7.417 17.678-12.011 29.009-12.011h54.506c-11.321 0-21.582 4.594-29.01 12.012-7.417 7.428-12.012 17.678-12.012 29.01.001 22.652 18.369 41.02 41.022 41.02z" fill="#9dc6fb"/></g></svg>