<svg id="Capa_1" enable-background="new 0 0 512 512" height="512" viewBox="0 0 512 512" width="512" xmlns="http://www.w3.org/2000/svg"><g><g><circle cx="163.121" cy="163.124" fill="#95d6a4" r="163.119"/><path d="m183.313 324.997c-6.617.819-13.36 1.239-20.197 1.239-90.085 0-163.113-73.028-163.113-163.113-.001-90.095 73.027-163.123 163.112-163.123 6.838 0 13.58.42 20.197 1.239-80.568 9.947-142.936 78.627-142.936 161.885 0 83.247 62.368 151.927 142.937 161.873z" fill="#78c2a4"/><path d="m255.323 104.013c4.067-8.196.718-18.13-7.479-22.197l-25.647-12.704c-8.196-4.067-18.13-.718-22.197 7.479l-50.752 102.399-24.715-41.335c-4.696-7.857-14.857-10.412-22.713-5.716l-24.565 14.681c-7.844 4.696-10.412 14.857-5.716 22.713l48.7 81.461c3.11 5.2 8.813 8.297 14.857 8.058l34.523-1.36c6.056-.239 11.495-3.765 14.177-9.191z" fill="#f8f6f9"/></g><g><circle cx="348.879" cy="348.881" fill="#dd636e" r="163.119"/><path d="m369.07 510.754c-6.617.819-13.36 1.239-20.197 1.239-90.085 0-163.113-73.028-163.113-163.113 0-90.096 73.028-163.124 163.113-163.124 6.838 0 13.58.42 20.197 1.239-80.569 9.946-142.936 78.626-142.936 161.884 0 83.249 62.367 151.929 142.936 161.875z" fill="#da4a54"/></g><path d="m389.662 348.879 34.848-34.848c5.88-5.88 5.88-15.413 0-21.293l-19.49-19.49c-5.88-5.88-15.413-5.88-21.293 0l-34.848 34.848-34.848-34.848c-5.88-5.88-15.413-5.88-21.293 0l-19.49 19.49c-5.88 5.88-5.88 15.413 0 21.293l34.848 34.848-34.848 34.848c-5.88 5.88-5.88 15.413 0 21.293l19.49 19.49c5.88 5.88 15.413 5.88 21.293 0l34.848-34.848 34.848 34.848c5.88 5.88 15.413 5.88 21.293 0l19.49-19.49c5.88-5.88 5.88-15.413 0-21.293z" fill="#f8f6f9"/></g></svg>