<svg id="Capa_1" enable-background="new 0 0 512 512" height="512" viewBox="0 0 512 512" width="512" xmlns="http://www.w3.org/2000/svg"><g><g><path d="m403.744 0h-283.316c-24.5 0-44.362 19.861-44.362 44.362v365.069c0 24.5 19.861 44.362 44.362 44.362h283.316c24.5 0 44.362-19.861 44.362-44.362v-365.069c0-24.5-19.862-44.362-44.362-44.362z" fill="#f8f6f9"/><path d="m144.769 453.79h-24.35c-24.49 0-44.35-19.86-44.35-44.35v-365.08c0-24.5 19.86-44.36 44.35-44.36h24.35c-24.5 0-44.36 19.86-44.36 44.36v365.08c0 24.49 19.86 44.35 44.36 44.35z" fill="#dddaec"/><path d="m448.108 187.916v221.519c0 24.497-19.862 44.36-44.36 44.36h-283.32c-24.498 0-44.359-19.862-44.359-44.36v-317.017c2.915-.371 5.882-.556 8.901-.556h146.368c24.621 0 47.46 12.867 60.214 33.924l15.144 24.992c12.764 21.057 35.593 33.924 60.214 33.924h60.121c7.345-.001 14.422 1.122 21.077 3.214z" fill="#dddaec"/><path d="m497.437 281.84v159.752c0 38.885-31.522 70.407-70.407 70.407h-342.06c-38.885 0-70.407-31.522-70.407-70.407v-252.584c0-38.885 31.522-70.407 70.407-70.407h146.367c24.623 0 47.456 12.863 60.216 33.922l15.141 24.989c12.76 21.059 35.593 33.922 60.216 33.922h60.119c38.885-.001 70.408 31.521 70.408 70.406z" fill="#dd636e"/><path d="m121.97 511.995h-37.004c-38.879 0-70.403-31.524-70.403-70.403v-252.59c0-38.889 31.524-70.403 70.403-70.403h37.004c-38.889 0-70.413 31.513-70.413 70.403v252.59c0 38.879 31.523 70.403 70.413 70.403z" fill="#da4a54"/></g><g><path d="m294.938 336.696 33.271-33.271c5.614-5.614 5.614-14.716 0-20.33l-18.608-18.608c-5.614-5.614-14.716-5.614-20.33 0l-33.271 33.271-33.271-33.271c-5.614-5.614-14.716-5.614-20.33 0l-18.608 18.608c-5.614 5.614-5.614 14.716 0 20.33l33.271 33.271-33.271 33.271c-5.614 5.614-5.614 14.716 0 20.33l18.608 18.608c5.614 5.614 14.716 5.614 20.33 0l33.271-33.271 33.271 33.271c5.614 5.614 14.716 5.614 20.33 0l18.608-18.608c5.614-5.614 5.614-14.716 0-20.33z" fill="#f8f6f9"/></g></g></svg>