<svg id="Capa_1" enable-background="new 0 0 512 512" height="512" viewBox="0 0 512 512" width="512" xmlns="http://www.w3.org/2000/svg"><g><path d="m474.13 197.552c14.322-19.827 16.594-46.999 3.572-69.552-13.021-22.554-37.689-34.172-62.02-31.682 2.49-24.331-9.129-48.999-31.682-62.02-22.553-13.021-49.725-10.75-69.552 3.572-10.01-22.317-32.405-37.87-58.448-37.87-26.043 0-48.438 15.553-58.448 37.87-19.827-14.322-46.998-16.594-69.552-3.573-22.554 13.021-34.172 37.689-31.682 62.02-24.332-2.49-48.999 9.129-62.02 31.682-13.021 22.554-10.749 49.725 3.572 69.552-22.317 10.011-37.87 32.406-37.87 58.449 0 26.043 15.553 48.438 37.87 58.448-14.322 19.827-16.594 46.998-3.573 69.552 13.021 22.553 37.689 34.172 62.02 31.682-2.49 24.332 9.129 48.999 31.682 62.02 22.554 13.021 49.725 10.75 69.552-3.572 10.011 22.317 32.406 37.87 58.449 37.87 26.043 0 48.438-15.553 58.448-37.87 19.827 14.322 46.999 16.594 69.552 3.572 22.554-13.021 34.172-37.689 31.682-62.02 24.331 2.49 48.999-9.129 62.02-31.682 13.021-22.554 10.75-49.725-3.572-69.552 22.317-10.01 37.87-32.405 37.87-58.448 0-26.043-15.553-48.438-37.87-58.448z" fill="#dd636e"/><circle cx="259.478" cy="256" fill="#da4a54" r="207.209"/><path d="m123.436 89.811c0 2.163.103 4.337.33 6.511-24.333-2.493-48.995 9.127-62.017 31.678-5.821 10.085-8.592 21.088-8.592 31.946 0 13.434 4.234 26.64 12.156 37.602-22.313 10.013-37.869 32.409-37.869 58.452 0 13.022 3.894 25.136 10.57 35.232 6.676 10.116 16.143 18.214 27.3 23.22-14.32 19.821-16.586 46.997-3.564 69.548 11.857 20.542 33.378 32.008 55.506 32.008 2.163 0 4.337-.103 6.511-.33-2.493 24.333 9.127 49.006 31.678 62.027 5.841 3.369 11.981 5.718 18.234 7.088-4.502.989-9.107 1.494-13.743 1.494-10.858 0-21.86-2.761-31.936-8.581-22.551-13.021-34.171-37.694-31.678-62.027-2.174.227-4.347.33-6.511.33-22.128 0-43.659-11.466-55.516-32.008-13.021-22.551-10.745-49.727 3.575-69.548-11.157-5.007-20.624-13.104-27.3-23.22-6.676-10.097-10.57-22.212-10.57-35.233 0-26.043 15.556-48.439 37.869-58.452-7.922-10.961-12.156-24.178-12.156-37.612 0-10.858 2.761-21.86 8.581-31.936 13.022-22.551 37.694-34.171 62.027-31.678-.227-2.174-.33-4.347-.33-6.511 0-22.128 11.466-43.659 32.008-55.516 14.381-8.303 30.638-10.384 45.678-7.088-6.253 1.37-12.393 3.719-18.234 7.088-20.541 11.857-32.007 33.388-32.007 55.516z" fill="#da4a54"/><circle cx="259.478" cy="256" fill="#f8f6f9" r="188.956"/><path d="m294.813 441.659c-11.445 2.163-23.262 3.297-35.335 3.297-104.357 0-188.956-84.598-188.956-188.956s84.599-188.956 188.956-188.956c12.074 0 23.89 1.133 35.335 3.297-87.472 16.544-153.631 93.375-153.631 185.659s66.159 169.115 153.631 185.659z" fill="#dddaec"/><path d="m312.712 256 45.487-45.487c7.675-7.675 7.675-20.119 0-27.794l-25.44-25.44c-7.675-7.675-20.119-7.675-27.794 0l-45.488 45.488-45.487-45.488c-7.675-7.675-20.119-7.675-27.794 0l-25.44 25.44c-7.675 7.675-7.675 20.119 0 27.794l45.488 45.487-45.488 45.488c-7.675 7.675-7.675 20.119 0 27.794l25.44 25.44c7.675 7.675 20.119 7.675 27.794 0l45.487-45.487 45.488 45.487c7.675 7.675 20.119 7.675 27.794 0l25.44-25.44c7.675-7.675 7.675-20.119 0-27.794z" fill="#dd636e"/><g fill="#da4a54"><path d="m271.241 214.529 57.251-57.251c.673-.673 1.394-1.266 2.134-1.821-7.698-5.774-18.658-5.181-25.66 1.821l-45.488 45.488z"/><path d="m209.723 354.722-25.44-25.44c-7.675-7.675-7.675-20.119 0-27.794l45.487-45.488-45.487-45.487c-7.675-7.675-7.675-20.119 0-27.794l25.44-25.44c.673-.673 1.394-1.266 2.134-1.821-7.698-5.774-18.658-5.181-25.66 1.821l-25.44 25.44c-7.675 7.675-7.675 20.119 0 27.794l45.487 45.487-45.488 45.488c-7.675 7.675-7.675 20.119 0 27.794l25.44 25.44c7.002 7.002 17.962 7.595 25.66 1.821-.74-.556-1.46-1.148-2.133-1.821z"/><path d="m328.492 354.722-57.251-57.251-11.763 11.763 45.488 45.487c7.002 7.002 17.962 7.595 25.66 1.821-.74-.555-1.461-1.147-2.134-1.82z"/></g></g></svg>