<svg id="Capa_1" enable-background="new 0 0 511.99 511.99" height="512" viewBox="0 0 511.99 511.99" width="512" xmlns="http://www.w3.org/2000/svg"><g><path d="m493.188 174.952-201.74-162.45c-20.696-16.665-50.206-16.665-70.902 0l-201.739 162.45v281.395c0 30.731 24.913 55.644 55.644 55.644h363.093c30.731 0 55.644-24.913 55.644-55.644z" fill="#d6f6b2"/><g fill="#b3e59f"><path d="m118.254 511.99h-43.812c-30.73 0-55.639-24.909-55.639-55.639v-281.399h43.813v281.399c-.001 30.73 24.909 55.639 55.638 55.639z"/><path d="m493.185 174.95-54.673 44.028-147.063 40.568c-20.696 16.67-50.211 16.67-70.907 0l-147.065-40.568-54.673-44.028 201.737-162.448c20.696-16.67 50.211-16.67 70.907 0z"/><g><path d="m377.781 469.785c-1.701 0-3.412-.559-4.841-1.709l-73.679-59.329c-3.323-2.676-3.848-7.54-1.172-10.863 2.675-3.323 7.539-3.85 10.864-1.172l73.679 59.329c3.323 2.677 3.848 7.54 1.172 10.864-1.526 1.894-3.765 2.88-6.023 2.88z"/><path d="m134.214 469.785c-2.259 0-4.496-.985-6.023-2.881-2.676-3.324-2.151-8.187 1.172-10.864l73.679-59.329c3.325-2.678 8.187-2.151 10.864 1.172 2.676 3.324 2.151 8.187-1.172 10.863l-73.679 59.329c-1.429 1.151-3.141 1.71-4.841 1.71z"/></g></g><g><path d="m438.514 123.965v95.014l-147.063 118.42c-20.696 16.67-50.211 16.67-70.908 0l-147.063-118.42v-155.414c0-18.858 15.289-34.147 34.147-34.147h236.341z" fill="#f8f6f9"/><g fill="#dddaec"><path d="m438.515 178.33v40.649l-147.064 118.42c-20.696 16.67-50.211 16.67-70.907 0l-147.064-118.42v-40.649l147.063 118.42c20.696 16.67 50.211 16.67 70.907 0z"/><path d="m438.512 123.966h-60.405c-18.856 0-34.144-15.288-34.144-34.144v-60.405"/></g></g><g><path d="m341.129 153.928c3.302-6.656.583-14.722-6.073-18.024l-20.825-10.316c-6.656-3.302-14.722-.583-18.024 6.073l-41.211 83.149-20.069-33.564c-3.813-6.38-12.064-8.455-18.443-4.642l-19.946 11.921c-6.369 3.813-8.455 12.064-4.642 18.443l39.545 66.147c2.525 4.222 7.157 6.737 12.064 6.543l28.033-1.104c4.918-.194 9.334-3.057 11.512-7.463z" fill="#95d6a4"/></g></g></svg>