<svg id="Capa_1" enable-background="new 0 0 512 512" height="512" viewBox="0 0 512 512" width="512" xmlns="http://www.w3.org/2000/svg"><g><path d="m470.569 198.506c14.088-19.503 16.323-46.231 3.514-68.417-12.809-22.185-37.073-33.614-61.008-31.165 2.449-23.934-8.98-48.199-31.165-61.008-22.185-12.809-48.913-10.574-68.417 3.514-9.846-21.952-31.875-37.251-57.493-37.251-25.617 0-47.647 15.299-57.494 37.252-19.503-14.088-46.231-16.323-68.417-3.514-22.185 12.808-33.614 37.073-31.165 61.007-23.934-2.449-48.199 8.98-61.008 31.165-12.809 22.185-10.574 48.913 3.514 68.417-21.951 9.846-10.255 31.876-10.255 57.494 0 25.617-11.697 47.647 10.256 57.494-14.088 19.503-16.323 46.231-3.514 68.417 12.809 22.185 37.073 33.614 61.008 31.165-2.449 23.934 8.98 48.199 31.165 61.008 22.185 12.809 48.913 10.574 68.417-3.514 9.846 21.952 31.876 37.252 57.494 37.252 25.617 0 47.647-15.299 57.494-37.252 19.503 14.088 46.231 16.323 68.417 3.514 22.185-12.809 33.614-37.073 31.165-61.008 23.934 2.449 48.199-8.98 61.008-31.165 12.809-22.185 10.574-48.913-3.514-68.417 21.952-9.846 3.978-31.876 3.978-57.494-.002-25.617 17.972-47.647-3.98-57.494z" fill="#dd636e"/><circle cx="259.421" cy="256" fill="#eab1b7" r="185.871"/><path d="m288.991 439.53c-9.627 1.54-19.507 2.341-29.57 2.341-102.653 0-185.871-83.217-185.871-185.871s83.218-185.871 185.871-185.871c10.063 0 19.943.801 29.57 2.341-88.598 14.167-156.301 90.939-156.301 183.53s67.703 169.363 156.301 183.53z" fill="#e4989d"/><path d="m125.6 92.524c0 2.128.101 4.266.324 6.404-23.936-2.452-48.196 8.978-61.005 31.161-5.726 9.921-8.451 20.744-8.451 31.424 0 13.214 4.165 26.206 11.958 36.988-21.949 9.85-37.251 31.88-37.251 57.498 0 12.809 3.83 24.726 10.397 34.657 6.567 9.951 15.879 17.916 26.854 22.841-14.086 19.497-16.315 46.23-3.506 68.412 11.664 20.206 32.833 31.485 54.6 31.485 2.128 0 4.266-.101 6.404-.324-2.452 23.936 8.978 48.206 31.161 61.015 5.746 3.314 11.785 5.624 17.937 6.972-4.428.973-8.958 1.469-13.518 1.469-10.681 0-21.504-2.716-31.414-8.441-22.183-12.809-33.613-37.079-31.161-61.015-2.138.223-4.276.324-6.404.324-21.767 0-42.946-11.279-54.61-31.485-12.809-22.183-10.569-48.915 3.516-68.412-10.975-4.925-20.288-12.89-26.854-22.841-6.567-9.93-.437-21.847-.437-34.656 0-25.618 5.341-47.648 27.291-57.498-7.793-10.782-11.958-23.784-11.958-36.998 0-10.681 2.716-21.504 8.441-31.414 12.809-22.183 37.079-33.613 61.015-31.161-.223-2.138-.324-4.276-.324-6.404 0-21.767 11.279-42.946 31.485-54.61 14.147-8.168 30.137-10.215 44.933-6.972-6.151 1.348-12.191 3.658-17.937 6.972-20.207 11.663-31.486 32.842-31.486 54.609z" fill="#da4a54"/><path d="m290.434 398.987c-3.463 0-6.592-2.382-7.4-5.9-.94-4.091 1.614-8.169 5.705-9.109 23.68-5.441 45.338-17.458 62.632-34.752 2.969-2.968 7.78-2.968 10.749 0 2.968 2.968 2.968 7.78 0 10.748-19.314 19.314-43.511 32.737-69.977 38.818-.573.132-1.145.195-1.709.195z" fill="#e4989d"/><path d="m228.41 398.987c-.564 0-1.136-.063-1.709-.195-26.464-6.081-50.662-19.504-69.977-38.818-2.969-2.968-2.969-7.78-.001-10.748 2.969-2.968 7.781-2.968 10.748 0 17.295 17.294 38.953 29.311 62.634 34.752 4.091.94 6.645 5.018 5.705 9.109-.809 3.518-3.938 5.9-7.4 5.9z" fill="#e4989d"/><path d="m504.4 313.494h-496.8v-114.988h496.8" fill="#f8f6f9"/><path d="m483.938 198.506h20.462v114.987h-20.462z" fill="#dddaec"/><path d="m28.062 313.494h-20.462v-114.988h20.462" fill="#dddaec"/><g fill="#e4989d"><path d="m504.4 206.106h-496.8c-4.198 0-7.6-3.403-7.6-7.6s3.402-7.6 7.6-7.6h496.8c4.198 0 7.6 3.403 7.6 7.6s-3.402 7.6-7.6 7.6z"/><path d="m504.4 321.094h-496.8c-4.198 0-7.6-3.403-7.6-7.6s3.402-7.6 7.6-7.6h496.8c4.198 0 7.6 3.403 7.6 7.6s-3.402 7.6-7.6 7.6z"/><path d="m162.099 167.555c-1.946 0-3.89-.742-5.375-2.226-2.968-2.968-2.968-7.78 0-10.748 19.315-19.314 43.513-32.737 69.978-38.818 4.092-.94 8.169 1.614 9.109 5.705s-1.614 8.169-5.705 9.109c-23.68 5.441-45.338 17.458-62.633 34.752-1.484 1.484-3.43 2.226-5.374 2.226z"/><path d="m356.746 167.555c-1.946 0-3.89-.742-5.375-2.226-17.292-17.293-38.95-29.311-62.632-34.752-4.091-.94-6.645-5.018-5.705-9.109s5.02-6.645 9.109-5.705c26.465 6.081 50.663 19.505 69.977 38.818 2.968 2.968 2.968 7.78 0 10.748-1.484 1.484-3.43 2.226-5.374 2.226z"/></g><g fill="#dd636e"><path d="m277.285 376.623c-2.969-2.968-7.78-2.968-10.749 0l-7.114 7.114-7.114-7.114c-2.969-2.968-7.78-2.969-10.749 0-2.968 2.968-2.968 7.78 0 10.748l7.115 7.115-7.115 7.115c-2.968 2.968-2.968 7.78 0 10.748 1.484 1.484 3.43 2.226 5.375 2.226s3.89-.742 5.375-2.226l7.114-7.114 7.114 7.114c1.484 1.484 3.429 2.226 5.375 2.226 1.945 0 3.89-.742 5.375-2.226 2.968-2.968 2.968-7.78 0-10.748l-7.115-7.115 7.115-7.115c2.965-2.967 2.965-7.78-.002-10.748z"/><path d="m270.171 120.069 7.115-7.115c2.968-2.968 2.968-7.78 0-10.748-2.969-2.968-7.78-2.968-10.749 0l-7.114 7.114-7.114-7.114c-2.969-2.968-7.78-2.969-10.749 0-2.968 2.968-2.968 7.78 0 10.748l7.115 7.115-7.115 7.115c-2.968 2.968-2.968 7.78 0 10.748 1.484 1.484 3.43 2.226 5.375 2.226s3.89-.742 5.375-2.226l7.114-7.114 7.114 7.114c1.484 1.484 3.429 2.226 5.375 2.226 1.945 0 3.89-.742 5.375-2.226 2.968-2.968 2.968-7.78 0-10.748z"/></g><g fill="#da4a54"><path d="m172.548 220.241c-4.198 0-7.6 3.403-7.6 7.6v45.011c0 1.429-.72 2.717-1.881 3.361-1.663.922-3.681-.375-4.738-1.228-3.266-2.638-8.051-2.127-10.688 1.138-2.637 3.266-2.128 8.051 1.138 10.688 4.056 3.276 8.593 4.949 13.042 4.949 2.97 0 5.9-.745 8.622-2.256 5.986-3.323 9.705-9.703 9.705-16.651v-45.011c0-4.198-3.402-7.601-7.6-7.601z"/><path d="m411.887 235.699c4.198 0 7.6-3.403 7.6-7.6s-3.402-7.6-7.6-7.6h-23.513c-4.198 0-7.6 3.403-7.6 7.6v55.803c0 4.197 3.402 7.6 7.6 7.6h23.513c4.198 0 7.6-3.403 7.6-7.6s-3.402-7.6-7.6-7.6h-15.913v-12.702h14.179c4.198 0 7.6-3.403 7.6-7.6s-3.402-7.6-7.6-7.6h-14.179v-12.701z"/><path d="m125.143 235.699c4.198 0 7.6-3.403 7.6-7.6s-3.402-7.6-7.6-7.6h-23.513c-4.198 0-7.6 3.403-7.6 7.6v55.803c0 4.197 3.402 7.6 7.6 7.6h23.513c4.198 0 7.6-3.403 7.6-7.6s-3.402-7.6-7.6-7.6h-15.913v-12.702h14.179c4.198 0 7.6-3.403 7.6-7.6s-3.402-7.6-7.6-7.6h-14.179v-12.701z"/><path d="m233.76 235.699c4.198 0 7.6-3.403 7.6-7.6s-3.402-7.6-7.6-7.6h-23.513c-4.198 0-7.6 3.403-7.6 7.6v55.803c0 4.197 3.402 7.6 7.6 7.6h23.513c4.198 0 7.6-3.403 7.6-7.6s-3.402-7.6-7.6-7.6h-15.913v-12.702h14.179c4.198 0 7.6-3.403 7.6-7.6s-3.402-7.6-7.6-7.6h-14.179v-12.701z"/><path d="m456.21 221.074h-15.479c-2.018 0-3.954.803-5.38 2.231s-2.225 3.365-2.221 5.383c0 .001.111 54.663.111 54.663.007 2.016.815 3.947 2.245 5.367 1.424 1.413 3.349 2.206 5.355 2.206h.029c.468-.002 11.51-.045 15.925-.122 16.852-.294 29.084-14.932 29.084-34.804 0-20.888-11.923-34.924-29.669-34.924zm.32 54.532c-1.879.033-5.086.06-8.114.079-.02-6.41-.059-32.735-.071-39.411h7.864c13.426 0 14.469 15.098 14.469 19.725.001 13.374-7.106 19.484-14.148 19.607z"/><path d="m309.209 270.384c-3.216-2.696-8.011-2.272-10.707.945-.469.56-.979 1.086-1.514 1.563-2.731 2.433-6.23 3.666-10.399 3.666-11.336 0-20.558-9.222-20.558-20.558s9.222-20.558 20.558-20.558c4.12 0 8.093 1.213 11.489 3.507 3.478 2.349 8.203 1.434 10.552-2.044s1.435-8.203-2.044-10.552c-5.919-3.998-12.834-6.111-19.998-6.111-19.717 0-35.759 16.041-35.759 35.759s16.042 35.758 35.759 35.758c7.896 0 14.989-2.599 20.51-7.517 1.086-.967 2.114-2.027 3.055-3.151 2.696-3.218 2.273-8.012-.944-10.707z"/><path d="m356.305 220.241h-31.102c-4.198 0-7.6 3.403-7.6 7.6s3.402 7.6 7.6 7.6h7.888v48.716c0 4.197 3.402 7.6 7.6 7.6s7.6-3.403 7.6-7.6v-48.716h8.013c4.198 0 7.6-3.403 7.6-7.6s-3.401-7.6-7.599-7.6z"/><path d="m71.769 242.478c0-12.261-10.346-22.236-23.065-22.236h-14.965c-2.02 0-3.957.804-5.383 2.235s-2.224 3.37-2.217 5.39c0 .001-.018 56.291-.018 56.291 0 4.197 3.402 7.6 7.6 7.6s7.6-3.403 7.6-7.6v-14.455l17.142 19.477c1.502 1.707 3.6 2.579 5.708 2.579 1.783 0 3.574-.624 5.018-1.895 3.151-2.773 3.457-7.575.684-10.726l-13.741-15.613c9.084-2.989 15.637-11.292 15.637-21.047zm-23.065 7.036c-1.72 0-4.56.011-7.303.024-.013-2.666-.031-11.299-.039-14.096h7.342c4.263 0 7.864 3.222 7.864 7.036 0 3.813-3.601 7.036-7.864 7.036z"/></g></g></svg>