<svg id="Capa_1" enable-background="new 0 0 511.996 511.996" height="512" viewBox="0 0 511.996 511.996" width="512" xmlns="http://www.w3.org/2000/svg"><g><path d="m473.104 112.473v358.908c0 22.43-18.186 40.616-40.616 40.616h-352.98c-22.43 0-40.616-18.186-40.616-40.616v-430.762c0-22.43 18.186-40.616 40.616-40.616h281.127z" fill="#f8f6f9"/><path d="m103.484 511.993h-23.972c-22.427 0-40.62-18.182-40.62-40.619v-430.755c0-22.437 18.193-40.619 40.62-40.619h23.972c-22.437 0-40.62 18.182-40.62 40.619v430.754c0 22.437 18.183 40.62 40.62 40.62z" fill="#dddaec"/><path d="m473.104 112.473h-71.854c-22.43 0-40.616-18.186-40.616-40.616v-71.853" fill="#dddaec"/><g><path d="m308.996 266.941 45.285-45.285c7.641-7.641 7.641-20.03 0-27.671l-25.327-25.327c-7.641-7.641-20.03-7.641-27.671 0l-45.286 45.286-45.285-45.286c-7.641-7.641-20.03-7.641-27.671 0l-25.327 25.327c-7.641 7.641-7.641 20.03 0 27.671l45.286 45.285-45.286 45.286c-7.641 7.641-7.641 20.03 0 27.671l25.327 25.327c7.641 7.641 20.03 7.641 27.671 0l45.285-45.285 45.286 45.285c7.641 7.641 20.03 7.641 27.671 0l25.327-25.327c7.641-7.641 7.641-20.03 0-27.671z" fill="#dd636e"/><g fill="#da4a54"><path d="m267.709 225.654 56.996-56.996c.67-.67 1.388-1.26 2.125-1.813-7.664-5.748-18.575-5.158-25.546 1.813l-45.286 45.286z"/><path d="m206.464 365.225-25.327-25.327c-7.641-7.641-7.641-20.03 0-27.671l45.285-45.286-45.285-45.285c-7.641-7.641-7.641-20.03 0-27.671l25.327-25.327c.67-.67 1.388-1.26 2.125-1.813-7.664-5.748-18.575-5.158-25.546 1.813l-25.327 25.327c-7.641 7.641-7.641 20.03 0 27.671l45.284 45.285-45.286 45.286c-7.641 7.641-7.641 20.03 0 27.671l25.327 25.327c6.971 6.971 17.882 7.561 25.546 1.813-.736-.553-1.453-1.143-2.123-1.813z"/><path d="m324.705 365.225-56.996-56.996-11.711 11.711 45.286 45.285c6.971 6.971 17.882 7.561 25.546 1.813-.737-.553-1.454-1.143-2.125-1.813z"/></g></g></g></svg>