<svg id="Capa_1" enable-background="new 0 0 512 512" height="512" viewBox="0 0 512 512" width="512" xmlns="http://www.w3.org/2000/svg"><g><path d="m494.853 112.473v358.91c0 22.43-18.186 40.616-40.616 40.616h-179.237l-173.747-29.37c-22.43 0-40.616 11.184-40.616-11.246v-430.764c0-22.43 18.186-40.616 40.616-40.616h281.129z" fill="#f8f6f9"/><path d="m125.229 482.63h-23.972c-22.427 0-40.619-18.182-40.619-40.619v-401.392c0-22.437 18.192-40.619 40.619-40.619h23.972c-22.437 0-40.619 18.182-40.619 40.619v401.391c-.001 22.437 18.182 40.62 40.619 40.62z" fill="#dddaec"/><path d="m494.853 112.473h-71.854c-22.43 0-40.616-18.186-40.616-40.616v-71.854" fill="#dddaec"/><path d="m231.299 233.076c0-39.695-32.179-71.874-71.874-71.874s-71.874 32.179-71.874 71.874c0 28.794 16.939 53.621 41.39 65.092v78.614h60.968v-78.614c24.451-11.47 41.39-36.297 41.39-65.092z" fill="#d8aa8b"/><path d="m127.448 233.076c0 28.793 7.539 53.621 18.417 65.09v78.614h-16.925v-78.614c-24.447-11.469-41.389-36.297-41.389-65.09 0-39.697 32.176-71.874 71.874-71.874-17.655.001-31.977 32.177-31.977 71.874z" fill="#ce9875"/><path d="m231.681 358.878h-141.845c-23.925 0-43.319 19.395-43.319 43.319v51.063l114.242 29.37 114.241-29.37v-51.063c0-23.924-19.394-43.319-43.319-43.319z" fill="#95d6a4"/><path d="m275 453.26h-228.483c-16.22 0-29.37 13.149-29.37 29.37 0 16.22 13.149 29.37 29.37 29.37h228.483c16.22 0 29.37-13.149 29.37-29.37 0-16.221-13.149-29.37-29.37-29.37z" fill="#407093"/><path d="m106.68 503.398c5.316 5.316 12.661 8.602 20.768 8.602h-80.93c-8.108 0-15.453-3.286-20.768-8.602-5.316-5.316-8.602-12.661-8.602-20.768 0-16.225 13.155-29.37 29.37-29.37h80.93c-16.215 0-29.37 13.145-29.37 29.37 0 8.107 3.286 15.452 8.602 20.768z" fill="#365e7d"/><path d="m139.861 358.879c-23.921 0-43.319 19.398-43.319 43.319v51.066h-50.025v-51.066c0-23.921 19.388-43.319 43.319-43.319z" fill="#78c2a4"/><path d="m445.596 201.103c3.777-7.612.667-16.839-6.946-20.616l-23.82-11.799c-7.612-3.777-16.839-.667-20.616 6.946l-47.136 95.103-22.954-38.39c-4.362-7.297-13.798-9.671-21.095-5.309l-22.814 13.635c-7.285 4.362-9.671 13.798-5.309 21.095l45.23 75.657c2.888 4.829 8.185 7.706 13.798 7.484l32.064-1.263c5.625-.222 10.676-3.496 13.167-8.536z" fill="#95d6a4"/></g></svg>