<svg id="Capa_1" enable-background="new 0 0 512 512" height="512" viewBox="0 0 512 512" width="512" xmlns="http://www.w3.org/2000/svg"><g><g><path d="m451.891 125.53v341.137c0 25.035-20.298 45.333-45.333 45.333h-355.769c-25.035 0-45.333-20.298-45.333-45.333v-421.334c.001-25.035 20.298-45.333 45.333-45.333h275.571z" fill="#f8f6f9"/><path d="m451.891 125.53h-80.198c-25.035 0-45.332-20.298-45.332-45.333v-80.197" fill="#dddaec"/></g><g><path d="m493.06 311.109 11.739-23.694c4.099-8.262.723-18.275-7.539-22.374l-25.852-12.805c-8.262-4.099-18.275-.723-22.374 7.539l-51.158 103.217-24.913-41.665c-4.734-7.919-14.976-10.496-22.895-5.762l-24.76 14.798c-7.907 4.734-10.496 14.976-5.762 22.895l49.089 82.112c3.135 5.241 8.884 8.363 14.976 8.122l34.799-1.371c6.104-.241 11.587-3.795 14.29-9.265l43.442-87.632z" fill="#95d6a4"/><g fill="#78c2a4"><path d="m410.887 384.75 61.943-124.977c.962-1.939 2.259-3.598 3.774-4.965l-5.195-2.573c-8.262-4.099-18.275-.723-22.374 7.539l-51.158 103.217z"/><path d="m392.432 435.368-49.089-82.112c-4.734-7.919-2.145-18.161 5.762-22.895l21.022-12.564c-5.295-5.039-13.473-6.17-20.057-2.234l-24.76 14.798c-7.906 4.734-10.496 14.976-5.762 22.895l49.089 82.112c3.135 5.241 8.884 8.363 14.976 8.122l18.261-.719c-3.892-1.194-7.286-3.797-9.442-7.403z"/></g></g><g fill="#407093"><path d="m388.121 233.593h-318.893c-4.267 0-7.726-3.459-7.726-7.726s3.459-7.726 7.726-7.726h318.893c4.267 0 7.726 3.459 7.726 7.726s-3.459 7.726-7.726 7.726z"/><path d="m388.122 179.202h-264.477c-4.267 0-7.726-3.459-7.726-7.726s3.459-7.726 7.726-7.726h264.477c4.267 0 7.726 3.459 7.726 7.726s-3.458 7.726-7.726 7.726z"/><path d="m275.64 65.92h-93.933c-4.267 0-7.726-3.459-7.726-7.726s3.459-7.726 7.726-7.726h93.933c4.267 0 7.726 3.459 7.726 7.726s-3.459 7.726-7.726 7.726z"/><path d="m388.122 287.611h-318.896c-4.267 0-7.726-3.459-7.726-7.726s3.459-7.726 7.726-7.726h318.897c4.267 0 7.726 3.459 7.726 7.726s-3.459 7.726-7.727 7.726z"/><path d="m202.738 341.625h-133.512c-4.267 0-7.726-3.459-7.726-7.726s3.459-7.726 7.726-7.726h133.512c4.267 0 7.726 3.459 7.726 7.726.001 4.266-3.459 7.726-7.726 7.726z"/><path d="m298.96 395.634h-229.734c-4.267 0-7.726-3.459-7.726-7.726s3.459-7.726 7.726-7.726h229.734c4.267 0 7.726 3.459 7.726 7.726 0 4.266-3.459 7.726-7.726 7.726z"/><path d="m118.832 464.178h-49.606c-4.267 0-7.726-3.459-7.726-7.726s3.459-7.726 7.726-7.726h49.606c4.267 0 7.726 3.459 7.726 7.726.001 4.267-3.459 7.726-7.726 7.726z"/></g></g></svg>