<svg id="Capa_1" enable-background="new 0 0 512 512" height="512" viewBox="0 0 512 512" width="512" xmlns="http://www.w3.org/2000/svg"><g><path d="m496.593 496.594c-20.542 20.542-53.846 20.542-74.388 0l-148.155-148.155 74.388-74.388 148.155 148.155c20.541 20.542 20.541 53.846 0 74.388z" fill="#d8aa8b"/><path d="m508.786 477.465c-2.771 7.683-7.408 14.812-13.874 20.744-20.846 19.121-53.283 17.81-73.285-2.192l-147.577-147.578 31.332-31.332 148.155 148.155c14.941 14.942 36.637 19.029 55.249 12.203z" fill="#ce9875"/><circle cx="206.356" cy="206.354" fill="#407093" r="206.354"/><path d="m227.613 411.619c-7.147.748-14.422 1.113-21.782 1.094-114.872-.287-207.895-95.352-205.795-210.205 2.052-112.173 93.642-202.493 206.325-202.493 7.179 0 14.277.365 21.252 1.095-103.991 10.627-185.127 98.475-185.127 205.244 0 106.79 81.136 194.639 185.127 205.265z" fill="#365e7d"/><circle cx="206.356" cy="206.354" fill="#f8f6f9" r="156.226"/><path d="m228.711 360.978c-7.294 1.062-14.776 1.605-22.376 1.605-86.27 0-156.205-69.936-156.205-156.229 0-86.269 69.936-156.205 156.205-156.205 7.6 0 15.082.543 22.376 1.605-75.695 10.834-133.853 75.931-133.853 154.6-.001 78.693 58.157 143.791 133.853 154.624z" fill="#dddaec"/><path d="m395.332 290.755-104.578 104.578c-14.135 14.135-14.135 37.054 0 51.189 14.135 14.135 37.054 14.135 51.189 0l104.578-104.578c14.135-14.135 14.135-37.054 0-51.189-14.135-14.135-37.053-14.135-51.189 0z" fill="#95d6a4"/><path d="m369.277 404.193c9.263 0 18.527-3.528 25.596-10.597l-52.927 52.927c-7.069 7.069-16.333 10.597-25.596 10.597-10.009 0-20.018-4.118-27.259-12.373-12.644-14.413-11.402-36.35 2.155-49.907l52.435-52.435c-14.139 14.139-14.139 37.053 0 51.192 7.069 7.068 16.332 10.595 25.596 10.596z" fill="#78c2a4"/><g><path d="m252.654 206.354 39.56-39.56c6.675-6.675 6.675-17.497 0-24.173l-22.125-22.125c-6.675-6.675-17.497-6.675-24.173 0l-39.56 39.56-39.56-39.56c-6.675-6.675-17.498-6.675-24.173 0l-22.125 22.125c-6.675 6.675-6.675 17.498 0 24.173l39.56 39.56-39.56 39.56c-6.675 6.675-6.675 17.497 0 24.173l22.125 22.125c6.675 6.675 17.497 6.675 24.173 0l39.56-39.56 39.56 39.56c6.675 6.675 17.497 6.675 24.173 0l22.125-22.125c6.675-6.675 6.675-17.498 0-24.173z" fill="#dd636e"/><g fill="#da4a54"><path d="m216.586 170.287 49.791-49.791c.585-.585 1.212-1.101 1.856-1.583-6.695-5.021-16.227-4.506-22.317 1.583l-39.56 39.56z"/><path d="m163.084 292.212-22.125-22.125c-6.675-6.675-6.675-17.498 0-24.173l39.56-39.56-39.56-39.56c-6.675-6.675-6.675-17.497 0-24.173l22.125-22.125c.585-.585 1.212-1.101 1.856-1.583-6.695-5.021-16.227-4.506-22.317 1.583l-22.125 22.125c-6.675 6.675-6.675 17.498 0 24.173l39.56 39.56-39.56 39.56c-6.675 6.675-6.675 17.497 0 24.173l22.125 22.125c6.09 6.09 15.621 6.605 22.317 1.583-.644-.482-1.271-.997-1.856-1.583z"/><path d="m266.377 292.212-49.791-49.791-10.23 10.23 39.56 39.56c6.09 6.09 15.622 6.605 22.317 1.583-.644-.481-1.271-.996-1.856-1.582z"/></g></g></g></svg>