<svg id="Capa_1" enable-background="new 0 0 512 512" height="512" viewBox="0 0 512 512" width="512" xmlns="http://www.w3.org/2000/svg"><g><g><path d="m455.357 384.961-24.268-169.794c-9.547-66.797-77.099-108.774-141.217-87.752l-38.566 12.644" fill="#ffcbbe"/><path d="m240.419 395.758h215.072v116.242h-215.072z" fill="#bed8fb"/><path d="m240.419 395.758h68.098v116.242h-68.098z" fill="#9dc6fb"/><g><path d="m201.938 251.063-55.23 55.23-79.212-79.212c-15.251-15.251-15.251-39.979 0-55.23 15.251-15.251 39.979-15.251 55.23 0z" fill="#ffddce"/><path d="m81.162 162.978c-5.332 13.942-2.375 30.333 8.865 41.572l79.211 79.211-22.531 22.531-79.211-79.211c-15.254-15.254-15.254-39.977 0-55.231 4.014-4.013 8.683-6.978 13.666-8.872z" fill="#ffcbbe"/></g><g><path d="m201.938 160.623-55.23 55.23-79.212-79.212c-15.251-15.251-15.251-39.979 0-55.23 15.251-15.251 39.979-15.251 55.23 0z" fill="#ffddce"/><path d="m81.162 72.538c-5.332 13.942-2.375 30.333 8.865 41.572l79.211 79.211-22.531 22.531-79.211-79.211c-15.254-15.254-15.254-39.977 0-55.231 4.014-4.014 8.683-6.978 13.666-8.872z" fill="#ffcbbe"/></g><path d="m393.134 200.616h-236.379v144.508c0 56.36 45.689 102.049 102.049 102.049h134.329v-246.557z" fill="#ffcbbe"/><path d="m363.563 0h-201.116c-27.186 0-49.224 22.038-49.224 49.224v302.73c0 27.186 22.038 49.224 49.224 49.224h201.116c27.186 0 49.224-22.038 49.224-49.224v-302.73c0-27.186-22.038-49.224-49.224-49.224z" fill="#407093"/><path d="m190.359 401.178h-27.913c-27.186 0-49.223-22.037-49.223-49.223v-302.731c0-27.186 22.037-49.223 49.223-49.223h27.913c-27.178 0-49.223 22.037-49.223 49.223v302.732c0 27.186 22.045 49.222 49.223 49.222z" fill="#365e7d"/><path d="m380.499 60.362v280.453c0 15.506-12.568 28.074-28.074 28.074h-178.843c-15.498 0-28.074-12.568-28.074-28.074v-280.453c0-15.506 12.576-28.074 28.074-28.074h27.42v1.323c0 16.031 12.996 29.027 29.027 29.027h65.956c16.031 0 29.027-12.996 29.027-29.027v-1.323h27.412c15.507 0 28.075 12.568 28.075 28.074z" fill="#95d6a4"/><path d="m200.429 368.889h-26.847c-15.498 0-28.074-12.568-28.074-28.074v-280.453c0-15.506 12.576-28.074 28.074-28.074h26.847c-15.498 0-28.074 12.568-28.074 28.074v280.453c0 15.506 12.576 28.074 28.074 28.074z" fill="#78c2a4"/><path d="m295.216 40.014h-64.422c-4.267 0-7.726-3.459-7.726-7.726s3.459-7.726 7.726-7.726h64.422c4.268 0 7.726 3.459 7.726 7.726s-3.458 7.726-7.726 7.726z" fill="#365e7d"/><path d="m448.992 340.424c-2.211-15.471-9.38-29.807-20.431-40.858l-57.561-57.561-2.332-2.332c-7.79-7.79-17.919-11.802-28.127-12.061-14.353-1.396-29.194 3.401-40.186 14.394-19.508 19.508-19.508 51.137 0 70.645l46.878 46.878c-8.303 24.268-2.789 52.216 16.572 71.577.565.565 1.137 1.118 1.716 1.659 36.985 34.568 97 2.313 89.837-47.802z" fill="#ffddce"/><path d="m434.03 436.158c-19.326 14.33-47.594 16.143-68.507-3.399-.577-.536-1.154-1.092-1.72-1.659-19.357-19.357-24.868-47.306-16.565-71.577l-46.884-46.873c-9.756-9.756-14.629-22.54-14.629-35.325s4.873-25.569 14.629-35.325c10.992-10.992 25.837-15.792 40.187-14.392 2.369.062 4.729.319 7.067.793-1.401 1.123-2.761 2.339-4.069 3.647-9.756 9.756-14.629 22.54-14.629 35.325 0 12.784 4.873 25.569 14.629 35.325l46.873 46.873c-8.303 24.271-2.782 52.22 16.576 71.577.567.566 1.133 1.123 1.72 1.658 7.717 7.213 16.432 11.519 25.322 13.352z" fill="#ffcbbe"/></g><g><path d="m337.376 118.803c3.251-6.553.574-14.496-5.979-17.747l-20.505-10.157c-6.553-3.251-14.495-.574-17.747 5.979l-40.577 81.869-19.76-33.048c-3.755-6.281-11.878-8.325-18.16-4.57l-19.639 11.737c-6.271 3.755-8.325 11.878-4.57 18.16l38.937 65.129c2.486 4.157 7.046 6.634 11.878 6.442l27.602-1.087c4.842-.191 9.191-3.01 11.335-7.348z" fill="#f8f6f9"/></g></g></svg>