<svg id="Capa_1" enable-background="new 0 0 511.996 511.996" height="512" viewBox="0 0 511.996 511.996" width="512" xmlns="http://www.w3.org/2000/svg"><g><g><path d="m497.036 195.724-301.312 301.312c-19.947 19.947-52.287 19.947-72.234 0l-108.53-108.53c-19.947-19.947-19.947-52.287 0-72.234l301.312-301.312c19.947-19.947 52.287-19.947 72.234 0l108.53 108.53c19.947 19.947 19.947 52.287 0 72.234z" fill="#dd636e"/><g fill="#da4a54"><path d="m405.928 32.38c-19.944-19.954-52.291-19.954-72.236 0l-301.315 301.305c-19.944 19.954-19.944 52.292 0 72.236l-17.41-17.41c-19.954-19.954-19.954-52.292 0-72.236l301.305-301.315c19.954-19.944 52.292-19.944 72.236 0z"/><g><path d="m164.179 448.764c-1.977 0-3.955-.754-5.463-2.263-3.018-3.017-3.018-7.909 0-10.926l276.859-276.859c3.019-3.018 7.91-3.017 10.927 0s3.017 7.909 0 10.926l-276.86 276.859c-1.509 1.509-3.486 2.263-5.463 2.263z"/><path d="m231.778 422.611c-1.977 0-3.955-.754-5.463-2.263-3.018-3.017-3.018-7.909 0-10.926l183.105-183.108c3.018-3.018 7.909-3.018 10.927 0 3.017 3.017 3.017 7.909 0 10.926l-183.106 183.108c-1.508 1.508-3.486 2.263-5.463 2.263z"/><path d="m70.954 355.546c-1.977 0-3.955-.754-5.463-2.263-3.018-3.017-3.018-7.909 0-10.926l276.865-276.867c3.018-3.018 7.909-3.018 10.927 0 3.017 3.017 3.017 7.909 0 10.926l-276.866 276.867c-1.509 1.509-3.486 2.263-5.463 2.263z"/><path d="m96.611 287.445c-1.977 0-3.955-.754-5.463-2.263-3.018-3.017-3.018-7.909 0-10.926l183.106-183.108c3.018-3.018 7.909-3.018 10.927 0 3.017 3.017 3.017 7.909 0 10.926l-183.106 183.108c-1.509 1.508-3.486 2.263-5.464 2.263z"/></g><g><path d="m165.669 288.883c-3.018 3.017-3.018 7.909 0 10.926l37.178 37.179c1.476 1.476 2.057 3.569 1.515 5.462-.816 2.852-4.156 3.57-6.075 3.743-4.25.385-7.383 4.142-6.998 8.392.363 4.013 3.733 7.03 7.686 7.03.233 0 .469-.011.706-.032 9.823-.89 17.127-6.453 19.539-14.883 2.084-7.287-.002-15.195-5.445-20.638l-37.179-37.179c-3.018-3.017-7.91-3.017-10.927 0z"/><path d="m335.431 141.398 13.959-13.958c3.018-3.017 3.018-7.909.001-10.927-3.018-3.017-7.91-3.018-10.926 0l-19.422 19.422c-1.45 1.449-2.264 3.414-2.264 5.463s.814 4.014 2.263 5.463l46.093 46.093c1.45 1.449 3.414 2.263 5.464 2.263 2.049 0 4.014-.814 5.464-2.263l19.421-19.422c3.017-3.017 3.017-7.909 0-10.926-3.018-3.018-7.909-3.018-10.927 0l-13.958 13.958-12.119-12.119 12.527-12.527c3.017-3.017 3.017-7.909 0-10.926s-7.908-3.018-10.927 0l-12.527 12.526z"/><path d="m163.044 402.77c1.977 0 3.955-.755 5.463-2.263l19.422-19.422c3.018-3.017 3.018-7.909 0-10.926-3.017-3.017-7.909-3.017-10.926 0l-13.959 13.958-12.12-12.12 12.526-12.526c3.018-3.017 3.018-7.909 0-10.926-3.017-3.017-7.909-3.017-10.926 0l-12.527 12.526-12.12-12.12 13.958-13.958c3.018-3.017 3.018-7.909 0-10.926-3.017-3.018-7.909-3.018-10.926 0l-19.421 19.422c-3.018 3.017-3.018 7.909 0 10.926l23.044 23.044c.001.001.002.002.002.003.001.001.002.002.003.002l23.044 23.044c1.509 1.508 3.486 2.263 5.463 2.262z"/><path d="m218.999 257.831c3.018-3.017 3.018-7.909 0-10.926-3.017-3.018-7.909-3.017-10.926 0l-19.422 19.422c-1.449 1.449-2.263 3.414-2.263 5.463s.814 4.014 2.263 5.463l23.045 23.046c.001 0 .001.001.001.001.001 0 .001.001.001.001l23.045 23.045c1.449 1.449 3.414 2.263 5.463 2.263s4.015-.814 5.463-2.263l19.422-19.422c3.017-3.017 3.017-7.909 0-10.926-3.018-3.018-7.91-3.018-10.927 0l-13.958 13.958-12.12-12.12 12.526-12.526c3.018-3.017 3.018-7.909 0-10.927-3.017-3.017-7.909-3.017-10.926 0l-12.526 12.526-12.12-12.12z"/><path d="m423.091 88.904c-16.767-16.768-37.556-18.511-51.726-4.341l-12.785 12.786c-1.451 1.451-2.265 3.419-2.263 5.471s.82 4.018 2.274 5.466c0 .001 45.242 45.06 45.242 45.06 1.448 1.437 3.404 2.243 5.444 2.243h.028c2.05-.008 4.012-.829 5.456-2.284.385-.388 9.465-9.538 13.042-13.243 13.22-13.692 11.239-35.206-4.71-51.157-.001-.001-.001-.001-.002-.001zm-6.405 40.424c-1.695 1.756-4.746 4.855-7.456 7.598-5.355-5.32-28.689-28.582-34.25-34.124l7.312-7.312c9.411-9.414 21.603-3.929 29.873 4.341 11.598 11.599 10.628 23.172 4.521 29.497z"/><path d="m268.282 196.087c-7.964 1.542-15.215 5.399-20.971 11.154-15.837 15.837-15.837 41.607 0 57.444 7.672 7.672 17.872 11.897 28.722 11.897s21.05-4.225 28.721-11.897c6.32-6.319 9.915-14.066 10.397-22.402.095-1.63.068-3.296-.075-4.951-.371-4.252-4.12-7.394-8.368-7.026-4.25.37-7.396 4.117-7.026 8.368.079.915.095 1.831.043 2.719-.264 4.557-2.247 8.717-5.897 12.366-4.752 4.753-11.072 7.371-17.795 7.371s-13.042-2.618-17.796-7.371c-9.812-9.813-9.812-25.778 0-35.591 3.567-3.567 8.056-5.956 12.982-6.91 4.189-.811 6.928-4.865 6.117-9.054s-4.863-6.929-9.054-6.117z"/><path d="m311.638 153.841c-3.017-3.017-7.908-3.018-10.927 0l-25.69 25.69c-3.017 3.017-3.017 7.909 0 10.926 1.509 1.509 3.486 2.263 5.464 2.263 1.977 0 3.955-.755 5.464-2.263l7.329-7.329 41.054 41.054c1.509 1.509 3.486 2.263 5.464 2.263 1.977 0 3.955-.755 5.464-2.263 3.017-3.017 3.017-7.909 0-10.926l-41.054-41.054 7.434-7.434c3.015-3.018 3.015-7.91-.002-10.927z"/><path d="m142.784 423.464c4.043 0 7.442-3.144 7.703-7.235.272-4.259-2.961-7.931-7.219-8.202l-26.06-1.661c2.221-3.763 3.481-8.032 3.619-12.475.215-6.897-2.276-13.306-7.016-18.045-9.678-9.678-25.732-9.372-35.79.684l-12.361 12.361c-1.452 1.452-2.267 3.423-2.263 5.476.004 2.054.824 4.021 2.281 5.469l46.484 46.514c1.509 1.509 3.486 2.263 5.463 2.263s3.955-.755 5.463-2.263c3.018-3.017 3.018-7.909 0-10.926l-14.098-14.099 33.294 2.123c.169.01.335.016.5.016zm-53.835-36.008c3.963-3.962 10.345-4.276 13.937-.684 1.691 1.691 2.578 4.048 2.497 6.636-.084 2.702-1.243 5.362-3.181 7.3-1.592 1.591-4.332 4.356-6.819 6.867-2.455-2.43-10.749-10.687-13.314-13.238z"/></g></g></g><g fill="#eab1b7"><g><path d="m331.491 441.448 2.308-.618c8.141-2.181 16.581 2.313 19.315 10.286l8.408 24.524c3.012 8.784-2.046 18.281-11.016 20.685l-5.736 1.537c-8.97 2.403-18.099-3.293-19.882-12.406l-4.98-25.442c-1.62-8.272 3.442-16.384 11.583-18.566z"/><path d="m400.582 402.272 1.69-1.69c5.96-5.96 15.516-6.287 21.87-.749l19.543 17.034c7 6.101 7.369 16.855.802 23.422l-4.199 4.199c-6.566 6.566-17.32 6.198-23.422-.802l-17.034-19.543c-5.537-6.354-5.209-15.911.75-21.871z"/><path d="m440.83 333.799.618-2.308c2.181-8.141 10.294-13.203 18.565-11.584l25.442 4.98c9.113 1.784 14.809 10.913 12.406 19.882l-1.537 5.736c-2.403 8.97-11.901 14.027-20.685 11.016l-24.524-8.408c-7.972-2.733-12.467-11.173-10.285-19.314z"/></g><g><path d="m180.505 70.548-2.308.619c-8.141 2.181-16.581-2.313-19.315-10.286l-8.408-24.524c-3.012-8.784 2.046-18.281 11.016-20.685l5.736-1.537c8.97-2.403 18.099 3.293 19.882 12.406l4.98 25.442c1.62 8.271-3.442 16.383-11.583 18.565z"/><path d="m111.414 109.724-1.69 1.69c-5.96 5.96-15.516 6.287-21.87.749l-19.543-17.034c-7-6.101-7.369-16.855-.802-23.422l4.199-4.199c6.566-6.566 17.32-6.198 23.422.802l17.034 19.543c5.537 6.354 5.209 15.911-.75 21.871z"/><path d="m71.166 178.197-.619 2.308c-2.181 8.141-10.294 13.203-18.565 11.584l-25.442-4.98c-9.113-1.784-14.809-10.913-12.406-19.882l1.537-5.736c2.403-8.97 11.901-14.027 20.685-11.016l24.524 8.408c7.973 2.733 12.468 11.173 10.286 19.314z"/></g></g></g></svg>