<svg id="Capa_1" enable-background="new 0 0 512 512" height="512" viewBox="0 0 512 512" width="512" xmlns="http://www.w3.org/2000/svg"><g><g><path d="m447.362 125.53v341.137c0 25.035-20.298 45.333-45.333 45.333h-355.769c-25.035 0-45.333-20.298-45.333-45.333v-421.334c.001-25.035 20.298-45.333 45.333-45.333h275.571z" fill="#f8f6f9"/><path d="m447.362 125.53h-80.198c-25.035 0-45.332-20.298-45.332-45.333v-80.197" fill="#dddaec"/></g><g fill="#407093"><path d="m383.593 233.598h-318.897c-4.267 0-7.726-3.459-7.726-7.726s3.459-7.726 7.726-7.726h318.897c4.267 0 7.726 3.459 7.726 7.726.001 4.267-3.459 7.726-7.726 7.726z"/><path d="m383.593 179.202h-264.477c-4.267 0-7.726-3.459-7.726-7.726s3.459-7.726 7.726-7.726h264.477c4.267 0 7.726 3.459 7.726 7.726s-3.459 7.726-7.726 7.726z"/><path d="m271.111 65.92h-93.933c-4.267 0-7.726-3.459-7.726-7.726s3.459-7.726 7.726-7.726h93.933c4.267 0 7.726 3.459 7.726 7.726s-3.459 7.726-7.726 7.726z"/><path d="m383.593 287.611h-318.897c-4.267 0-7.726-3.459-7.726-7.726s3.459-7.726 7.726-7.726h318.897c4.267 0 7.726 3.459 7.726 7.726.001 4.267-3.459 7.726-7.726 7.726z"/><path d="m198.209 341.625h-133.512c-4.267 0-7.726-3.459-7.726-7.726s3.459-7.726 7.726-7.726h133.512c4.267 0 7.726 3.459 7.726 7.726.001 4.266-3.459 7.726-7.726 7.726z"/><path d="m294.431 395.634h-229.734c-4.267 0-7.726-3.459-7.726-7.726s3.459-7.726 7.726-7.726h229.734c4.267 0 7.726 3.459 7.726 7.726.001 4.266-3.459 7.726-7.726 7.726z"/><path d="m114.303 464.178h-49.606c-4.267 0-7.726-3.459-7.726-7.726s3.459-7.726 7.726-7.726h49.606c4.267 0 7.726 3.459 7.726 7.726.001 4.267-3.459 7.726-7.726 7.726z"/></g><g><path d="m471.026 386.658 35.547-35.547c5.998-5.998 5.998-15.723 0-21.721l-19.881-19.881c-5.998-5.998-15.723-5.998-21.72 0l-35.547 35.547-35.547-35.547c-5.998-5.998-15.723-5.998-21.721 0l-19.881 19.881c-5.998 5.998-5.998 15.723 0 21.721l35.547 35.547-35.547 35.547c-5.998 5.998-5.998 15.723 0 21.721l19.881 19.881c5.998 5.998 15.723 5.998 21.721 0l35.547-35.547 35.547 35.547c5.998 5.998 15.723 5.998 21.72 0l19.881-19.881c5.998-5.998 5.998-15.723 0-21.721z" fill="#dd636e"/><g fill="#da4a54"><path d="m438.618 354.249 44.74-44.74c.526-.526 1.089-.989 1.668-1.423-6.016-4.512-14.581-4.049-20.053 1.423l-35.547 35.547z"/><path d="m390.542 463.807-19.881-19.881c-5.998-5.998-5.998-15.723 0-21.721l35.547-35.547-35.547-35.547c-5.998-5.998-5.998-15.723 0-21.721l19.881-19.881c.526-.526 1.089-.989 1.668-1.423-6.016-4.512-14.581-4.049-20.053 1.423l-19.881 19.881c-5.998 5.998-5.998 15.723 0 21.721l35.547 35.547-35.547 35.547c-5.998 5.998-5.998 15.723 0 21.721l19.881 19.881c5.472 5.472 14.037 5.935 20.053 1.423-.578-.434-1.142-.897-1.668-1.423z"/><path d="m483.358 463.807-44.74-44.74-9.193 9.193 35.547 35.547c5.472 5.472 14.037 5.935 20.053 1.423-.578-.434-1.141-.897-1.667-1.423z"/></g></g></g></svg>