<svg id="Capa_1" enable-background="new 0 0 511.796 511.796" height="512" viewBox="0 0 511.796 511.796" width="512" xmlns="http://www.w3.org/2000/svg"><g><g><path d="m496.395 496.396c-20.534 20.533-53.825 20.533-74.358 0l-148.097-148.096 74.358-74.358 148.096 148.096c20.534 20.533 20.534 53.824.001 74.358z" fill="#d8aa8b"/><path d="m508.583 477.275c-2.77 7.68-7.405 14.806-13.869 20.735-20.837 19.113-53.262 17.802-73.256-2.192l-147.518-147.518 31.319-31.319 148.096 148.096c14.936 14.936 36.623 19.021 55.228 12.198z" fill="#ce9875"/><circle cx="206.273" cy="206.272" fill="#407093" r="206.272"/><path d="m227.522 411.455c-7.144.748-14.417 1.112-21.773 1.094-114.826-.287-207.812-95.314-205.713-210.122 2.051-112.128 93.604-202.412 206.242-202.412 7.176 0 14.271.365 21.244 1.095-103.949 10.622-185.053 98.436-185.053 205.162 0 106.747 81.104 194.561 185.053 205.183z" fill="#365e7d"/><circle cx="206.274" cy="206.272" fill="#f8f6f9" r="156.164"/><path d="m228.619 360.834c-7.291 1.062-14.77 1.604-22.367 1.604-86.235 0-156.143-69.908-156.143-156.167 0-86.235 69.908-156.143 156.143-156.143 7.597 0 15.076.543 22.367 1.604-75.665 10.83-133.8 75.901-133.8 154.539 0 78.663 58.135 143.734 133.8 154.563z" fill="#dddaec"/><path d="m395.175 290.639-104.537 104.537c-14.13 14.13-14.13 37.039 0 51.169 14.13 14.13 37.039 14.13 51.169 0l104.537-104.537c14.13-14.13 14.13-37.039 0-51.169-14.13-14.13-37.039-14.13-51.169 0z" fill="#dd636e"/><path d="m369.13 404.032c9.26 0 18.519-3.526 25.586-10.593l-52.906 52.906c-7.066 7.067-16.326 10.593-25.586 10.593-10.005 0-20.01-4.117-27.249-12.368-12.639-14.407-11.398-36.336 2.154-49.888l52.414-52.414c-14.133 14.133-14.133 37.038 0 51.171 7.067 7.066 16.327 10.592 25.587 10.593z" fill="#da4a54"/></g><g><path d="m299.48 141.827c4.265-8.596.753-19.014-7.843-23.279l-26.897-13.323c-8.596-4.265-19.014-.753-23.279 7.843l-53.225 107.388-25.919-43.349c-4.925-8.239-15.581-10.92-23.82-5.995l-25.761 15.396c-8.226 4.925-10.92 15.581-5.995 23.82l51.073 85.43c3.261 5.453 9.243 8.701 15.581 8.451l36.205-1.426c6.351-.251 12.055-3.948 14.868-9.639z" fill="#95d6a4"/><g fill="#78c2a4"><path d="m199.064 238.565 62.2-125.496c1.387-2.796 3.432-5.042 5.846-6.67l-2.369-1.174c-8.596-4.265-19.014-.753-23.279 7.843l-53.225 107.388z"/><path d="m177.616 295.76-51.073-85.43c-4.925-8.239-2.231-18.895 5.995-23.82l24.727-14.778c-5.425-3.739-12.739-4.222-18.768-.618l-25.761 15.396c-8.226 4.925-10.92 15.581-5.995 23.82l51.073 85.43c3.261 5.453 9.243 8.701 15.581 8.451l14.672-.578c-4.309-1.149-8.092-3.93-10.451-7.873z"/></g></g></g></svg>