<svg id="Capa_1" enable-background="new 0 0 512 512" height="512" viewBox="0 0 512 512" width="512" xmlns="http://www.w3.org/2000/svg"><g><path d="m281.856 132.152-158.087 77.838c-22.931 11.291-36.878 35.21-35.409 60.728l4.272 74.202-45.077 45.077 122.003 122.003 92.199-92.199-22.184-22.184z" fill="#ffddce"/><path d="m281.857 132.151-4.498 28.258-100.697 49.581c-22.928 11.295-36.878 35.214-35.412 60.727l4.28 74.203-71.527 71.527-26.455-26.445 45.082-45.082-4.27-74.203c-1.476-25.514 12.475-49.432 35.402-60.727z" fill="#ffcbbe"/><path d="m205.359 320.66-18.105-18.105c-5.878-5.878-7.706-14.684-4.652-22.416l18.357-46.478 55.836 55.836z" fill="#ffcbbe"/><circle cx="304.24" cy="160.216" fill="#95d6a4" r="160.212"/><path d="m324.071 319.205c-6.499.805-13.122 1.217-19.837 1.217-88.479 0-160.206-71.726-160.206-160.206 0-88.49 71.727-160.216 160.206-160.216 6.716 0 13.338.413 19.837 1.217-79.133 9.769-140.389 77.225-140.389 158.999.001 81.764 61.256 149.22 140.389 158.989z" fill="#78c2a4"/><g><path d="m389.338 98.769c3.994-8.05.705-17.807-7.345-21.802l-25.19-12.477c-8.05-3.994-17.807-.705-21.802 7.345l-49.848 100.574-24.275-40.598c-4.613-7.716-14.592-10.227-22.309-5.614l-24.126 14.419c-7.704 4.613-10.227 14.592-5.614 22.309l47.832 80.009c3.054 5.107 8.656 8.149 14.592 7.914l33.908-1.336c5.948-.235 11.29-3.697 13.924-9.027z" fill="#f8f6f9"/></g><path d="m296.99 229.029-91.63 91.63c-26.757 26.757-26.757 70.138 0 96.894s70.138 26.756 96.894 0c20.007-20.007 25.049-49.308 15.135-74.004l47.06-47.06c18.628-18.628 18.628-48.831 0-67.459-18.628-18.629-48.831-18.629-67.459-.001z" fill="#ffddce"/><path d="m205.359 320.66 91.631-91.631c9.314-9.314 21.521-13.971 33.728-13.971s24.414 4.657 33.728 13.971c3.171 3.171 5.806 6.678 7.897 10.414-7.223-4.052-15.269-6.074-23.314-6.074-12.207 0-24.414 4.657-33.728 13.971l-76.682 76.682c-7.861 7.861-20.505 8.177-28.749.719z" fill="#ffcbbe"/></g></svg>