<svg id="Capa_1" enable-background="new 0 0 512 512" height="512" viewBox="0 0 512 512" width="512" xmlns="http://www.w3.org/2000/svg"><g><g><path d="m454.471 495.243h-396.942c-31.772 0-57.529-25.757-57.529-57.529v-363.421c0-31.772 25.757-57.529 57.529-57.529h396.942c31.772 0 57.529 25.757 57.529 57.529v363.421c0 31.772-25.757 57.529-57.529 57.529z" fill="#bed8fb"/><path d="m79.118 495.235h-21.582c-31.781 0-57.536-25.754-57.536-57.525v-363.417c0-31.771 25.755-57.536 57.536-57.536h21.582c-31.781 0-57.536 25.765-57.536 57.536v363.417c0 31.771 25.755 57.525 57.536 57.525z" fill="#9dc6fb"/><path d="m481.095 141.857v295.859c0 14.702-11.918 26.62-26.62 26.62h-396.95c-14.702 0-26.62-11.918-26.62-26.62v-295.859c0-18.004 14.595-32.599 32.599-32.599h384.992c18.004 0 32.599 14.595 32.599 32.599z" fill="#f8f6f9"/><path d="m82.332 464.335h-24.807c-14.701 0-26.62-11.919-26.62-26.62v-295.858c0-18.008 14.598-32.595 32.605-32.595h24.807c-18.008 0-32.605 14.587-32.605 32.595v295.858c0 14.7 11.919 26.62 26.62 26.62z" fill="#dddaec"/><g fill="#dd636e"><circle cx="49.747" cy="64.04" r="18.842"/><circle cx="109.649" cy="64.04" r="18.842"/><circle cx="169.551" cy="64.04" r="18.842"/></g></g><g><g><path d="m241.255 173.723c3.789-7.637.669-16.894-6.969-20.683l-23.897-11.837c-7.637-3.789-16.894-.669-20.683 6.969l-47.29 95.413-23.029-38.515c-4.376-7.321-13.843-9.702-21.164-5.326l-22.888 13.679c-7.309 4.376-9.702 13.843-5.326 21.164l45.378 75.904c2.898 4.845 8.212 7.731 13.843 7.508l32.168-1.267c5.643-.223 10.711-3.508 13.21-8.564z" fill="#95d6a4"/></g><path d="m405.377 234.405 34.445-34.445c5.812-5.812 5.812-15.235 0-21.047l-19.264-19.264c-5.812-5.812-15.235-5.812-21.047 0l-34.445 34.445-34.445-34.445c-5.812-5.812-15.235-5.812-21.047 0l-19.264 19.264c-5.812 5.812-5.812 15.235 0 21.047l34.445 34.445-34.445 34.445c-5.812 5.812-5.812 15.235 0 21.047l19.264 19.264c5.812 5.812 15.235 5.812 21.047 0l34.445-34.445 34.445 34.445c5.812 5.812 15.235 5.812 21.047 0l19.264-19.264c5.812-5.812 5.812-15.235 0-21.047z" fill="#dd636e"/></g><g><path d="m286.524 366.903-74.05-30.76c-8.321-3.457-16.662 4.884-13.206 13.206l30.76 74.049c3.711 8.934 16.648 8.046 19.102-1.312l5.999-22.872c.925-3.528 3.681-6.283 7.209-7.209l22.872-6c9.36-2.455 10.249-15.391 1.314-19.102z" fill="#365e7d"/></g></g></svg>