<svg id="Capa_1" enable-background="new 0 0 497.001 497.001" height="512" viewBox="0 0 497.001 497.001" width="512" xmlns="http://www.w3.org/2000/svg"><g><circle cx="248.5" cy="248.5" fill="#d6f6b2" r="248.5"/><path d="m135.174 424.224c40.58 40.57 91.69 64.18 144.53 70.82-73.55 9.26-150.44-14.35-206.92-70.82-97.04-97.05-97.04-254.39 0-351.44 56.48-56.47 133.37-80.08 206.92-70.82-52.84 6.64-103.95 30.25-144.53 70.82-97.04 97.05-97.04 254.39 0 351.44z" fill="#b3e59f"/><g><path d="m423.363 198.042c5.802-11.693 1.024-25.865-10.669-31.667l-36.589-18.124c-11.693-5.802-25.865-1.024-31.667 10.669l-72.405 146.085-35.26-58.969c-6.7-11.208-21.195-14.855-32.404-8.155l-35.044 20.944c-11.19 6.7-14.855 21.195-8.155 32.404l69.477 116.214c4.437 7.418 12.573 11.837 21.195 11.496l49.252-1.94c8.64-.341 16.399-5.371 20.225-13.112z" fill="#95d6a4"/><g fill="#78c2a4"><path d="m286.761 329.639 84.614-170.718c1.887-3.803 4.668-6.859 7.953-9.073l-3.223-1.596c-11.693-5.802-25.865-1.024-31.667 10.669l-72.405 146.085z"/><path d="m257.586 407.444-69.477-116.215c-6.7-11.208-3.036-25.704 8.155-32.404l33.637-20.103c-7.379-5.086-17.329-5.743-25.531-.841l-35.044 20.944c-11.19 6.7-14.855 21.195-8.155 32.404l69.477 116.215c4.437 7.418 12.573 11.837 21.195 11.496l19.96-.786c-5.862-1.563-11.009-5.346-14.217-10.71z"/></g></g><g fill="#95d6a4"><path d="m104.438 294.192c-3.101-2.747-7.841-2.46-10.587.64l-40.269 45.449c-.048.055-.096.11-.143.167-2.299 2.754-2.703 6.583-1.028 9.755 1.54 2.917 4.528 4.696 7.775 4.696.285 0 .572-.014.86-.042.061-.006.123-.013.184-.02l60.345-7.338c4.112-.5 7.04-4.239 6.54-8.351-.5-4.111-4.236-7.036-8.351-6.54l-9.898 1.204-11.378-21.595 6.59-7.437c2.746-3.101 2.46-7.841-.64-10.588zm-10.506 41.558-18.262 2.22 12.186-13.754z"/><path d="m293.322 45.458c4.091.62 7.917-2.199 8.537-6.294s-2.199-7.917-6.294-8.537l-23.787-3.596c-1.968-.299-3.971.199-5.572 1.379-1.601 1.181-2.667 2.949-2.964 4.916l-8.534 56.453c-.681 3.972 2.299 8.014 6.294 8.537l23.787 3.596c.38.058.757.085 1.13.085 3.647 0 6.845-2.665 7.406-6.38.619-4.096-2.199-7.918-6.294-8.537l-16.372-2.475 2.025-13.395 14.617 2.209c.38.058.757.085 1.13.085 3.647 0 6.845-2.665 7.406-6.38.619-4.096-2.199-7.918-6.294-8.537l-14.617-2.209 2.025-13.395z"/><path d="m307.461 110.854c.418.233 10.287 5.728 14.262 7.872 4.24 2.285 8.72 3.38 13.192 3.38 11.394 0 22.726-7.109 29.823-19.741 10.389-18.49 6.83-36.834-8.855-45.647l-13.806-7.758c-3.478-2.045-8.32-.683-10.22 2.877 0 0-27.298 48.815-27.298 48.815-2.031 3.48-.657 8.311 2.902 10.202zm33.818-45.137 7.256 4.077c12.199 6.854 5.477 21.039 3.126 25.223-6.793 12.091-16.356 13.99-22.819 10.505-1.745-.94-4.74-2.592-7.522-4.131 3.204-5.747 16.613-29.696 19.959-35.674z"/><path d="m230.896 26.496c-4.085-.663-7.94 2.114-8.603 6.204l-6.624 40.881-19.834-36.812c-1.964-3.646-6.514-5.008-10.16-3.045-3.646 1.965-5.01 6.514-3.045 10.16l28.523 52.937c1.561 2.848 4.544 4.569 7.717 4.569.484 0 .974-.04 1.462-.123 3.691-.622 6.59-3.52 7.222-7.261l9.545-58.908c.663-4.088-2.114-7.94-6.203-8.602z"/><path d="m97.668 116.501c-10.336-6.838-24.518-3.675-31.612 7.05l-8.448 12.77c-2.295 3.324-1.281 8.257 2.137 10.407.001.001 48.024 31.794 48.024 31.794 3.408 2.268 8.094 1.365 10.393-2.117 2.286-3.455 1.338-8.108-2.117-10.393l-12.945-8.564 27.023-3.732c4.103-.567 6.97-4.353 6.403-8.456s-4.345-6.967-8.456-6.403l-21.495 2.969c2.757-9.436-.565-19.807-8.907-25.325zm-19.102 15.326c2.488-3.761 7.444-5.052 10.826-2.817 3.379 2.236 4.131 7.303 1.642 11.065-1.003 1.516-2.67 4.058-4.253 6.476-2.354-1.541-10.047-6.607-12.512-8.228z"/><path d="m27.529 268.168 1.757 15.948c.359 4.02 4.307 7.168 8.3 6.63.001 0 57.25-6.308 57.25-6.308 4.117-.454 7.087-4.159 6.634-8.276-.454-4.118-4.158-7.086-8.276-6.634l-17.463 1.924c-.36-3.126-.748-6.508-.966-8.489-.693-6.291-3.782-11.984-8.698-16.033-4.995-4.113-11.229-5.992-17.557-5.299-6.327.698-12.003 3.892-15.982 8.995-3.918 5.022-5.693 11.252-4.999 17.542zm16.826-8.318c1.469-1.884 3.527-3.059 5.797-3.309 2.271-.255 4.535.448 6.378 1.967 1.881 1.549 3.062 3.714 3.324 6.097.217 1.967.599 5.309.958 8.419-3.222.371-14.063 1.589-17.44 1.971l-.933-8.471c-.263-2.382.418-4.752 1.916-6.674z"/><path d="m34.265 194.584-3.208 15.72c-.886 3.941 1.898 8.136 5.873 8.853.001 0 56.434 11.515 56.434 11.515.506.103 1.01.153 1.507.153 3.49 0 6.616-2.45 7.341-6.002.828-4.059-1.791-8.02-5.849-8.848l-17.215-3.512c.614-3.087 1.28-6.424 1.679-8.377 2.654-13.009-5.63-25.724-18.467-28.343-6.239-1.273-12.618.031-17.968 3.671-5.265 3.581-8.861 8.969-10.127 15.17zm14.698 2.999c.479-2.349 1.853-4.397 3.868-5.768 1.975-1.343 4.294-1.831 6.531-1.376 4.653.949 7.753 5.825 6.769 10.646-.396 1.939-1.054 5.237-1.665 8.309-3.181-.632-13.875-2.791-17.207-3.461z"/><path d="m152.255 57.48c-9.542-1.747-19.189.324-27.172 5.833-7.982 5.51-13.34 13.798-15.088 23.338s.324 19.19 5.833 27.172c7.038 10.195 18.394 15.671 29.935 15.671 7.11 0 14.293-2.08 20.575-6.416 16.477-11.375 20.628-34.033 9.255-50.51-5.51-7.981-13.798-13.34-23.338-15.088zm5.561 53.254c-9.669 6.675-22.969 4.239-29.644-5.432-3.234-4.685-4.45-10.348-3.424-15.947s4.171-10.463 8.855-13.697c3.6-2.485 7.778-3.778 12.061-3.778 1.29 0 2.59.117 3.886.354 5.599 1.026 10.463 4.171 13.697 8.855 6.676 9.671 4.24 22.969-5.431 29.645z"/></g></g></svg>