<svg id="Capa_1" enable-background="new 0 0 511.996 511.996" height="512" viewBox="0 0 511.996 511.996" width="512" xmlns="http://www.w3.org/2000/svg"><g><path d="m450.419 112.473v358.907c0 22.43-18.186 11.25-40.616 11.25l-171.866 29.365h-181.113c-22.43 0-40.616-18.186-40.616-40.616v-430.76c0-22.43 18.186-40.616 40.616-40.616h281.126z" fill="#f8f6f9"/><path d="m80.799 511.993h-23.972c-22.427 0-40.62-18.182-40.62-40.619v-430.755c.001-22.437 18.194-40.619 40.62-40.619h23.972c-22.437 0-40.619 18.182-40.619 40.619v430.754c0 22.437 18.182 40.62 40.619 40.62z" fill="#dddaec"/><path d="m450.419 112.473h-71.854c-22.43 0-40.616-18.186-40.616-40.616v-71.853" fill="#dddaec"/><g><path d="m422.718 233.075c0-39.695-32.179-71.874-71.874-71.874s-71.874 32.179-71.874 71.874c0 28.794 16.939 53.621 41.39 65.092v78.613h60.968v-78.613c24.451-11.471 41.39-36.298 41.39-65.092z" fill="#d8aa8b"/><path d="m318.867 233.075c0 28.793 7.539 53.621 18.417 65.089v78.613h-16.925v-78.613c-24.446-11.468-41.389-36.297-41.389-65.089 0-39.697 32.176-71.873 71.873-71.873-17.653 0-31.976 32.176-31.976 71.873z" fill="#ce9875"/><path d="m423.1 358.876h-141.844c-23.924 0-43.319 19.394-43.319 43.319v51.062l114.241 29.369 114.241-29.369v-51.062c0-23.925-19.395-43.319-43.319-43.319z" fill="#dd636e"/><path d="m466.419 453.257h-228.482c-16.22 0-29.369 13.149-29.369 29.369 0 16.22 13.149 29.369 29.369 29.369h228.482c16.22 0 29.369-13.149 29.369-29.369 0-16.22-13.149-29.369-29.369-29.369z" fill="#407093"/><path d="m298.099 503.394c5.316 5.316 12.661 8.602 20.768 8.602h-80.93c-8.108 0-15.452-3.286-20.768-8.602s-8.602-12.661-8.602-20.768c0-16.225 13.155-29.37 29.37-29.37h80.93c-16.215 0-29.37 13.145-29.37 29.37.001 8.108 3.287 15.453 8.602 20.768z" fill="#365e7d"/><path d="m331.281 358.876c-23.92 0-43.318 19.398-43.318 43.318v51.065h-50.025v-51.065c0-23.92 19.388-43.318 43.318-43.318z" fill="#da4a54"/></g><path d="m189.635 262.702 35.795-35.795c6.04-6.04 6.04-15.832 0-21.872l-20.019-20.019c-6.04-6.04-15.832-6.04-21.872 0l-35.795 35.795-35.795-35.795c-6.04-6.04-15.832-6.04-21.872 0l-20.019 20.019c-6.04 6.04-6.04 15.832 0 21.872l35.795 35.795-35.795 35.795c-6.04 6.04-6.04 15.832 0 21.872l20.019 20.019c6.04 6.04 15.832 6.04 21.872 0l35.795-35.795 35.795 35.795c6.04 6.04 15.832 6.04 21.872 0l20.019-20.019c6.04-6.04 6.04-15.832 0-21.872z" fill="#dd636e"/></g></svg>