<svg id="Capa_1" enable-background="new 0 0 512 512" height="512" viewBox="0 0 512 512" width="512" xmlns="http://www.w3.org/2000/svg"><g><g><path d="m497.04 195.726-301.314 301.314c-19.947 19.947-52.287 19.947-72.234 0l-108.532-108.531c-19.947-19.947-19.947-52.287 0-72.234l301.314-301.315c19.947-19.947 52.287-19.947 72.234 0l108.532 108.531c19.947 19.947 19.947 52.288 0 72.235z" fill="#95d6a4"/><g fill="#78c2a4"><path d="m405.931 32.381c-19.944-19.955-52.292-19.955-72.236 0l-301.318 301.307c-19.944 19.955-19.944 52.292 0 72.236l-17.41-17.41c-19.955-19.955-19.955-52.292 0-72.236l301.307-301.318c19.955-19.944 52.292-19.944 72.236 0z"/><g><path d="m164.178 448.772c-1.977 0-3.955-.754-5.463-2.263-3.018-3.017-3.018-7.909 0-10.927l276.868-276.868c3.017-3.018 7.909-3.018 10.927 0 3.018 3.017 3.018 7.909 0 10.927l-276.869 276.868c-1.509 1.509-3.486 2.263-5.463 2.263z"/><path d="m231.78 422.614c-1.977 0-3.955-.754-5.463-2.263-3.018-3.017-3.018-7.909 0-10.927l183.108-183.108c3.017-3.018 7.909-3.018 10.927 0 3.018 3.017 3.018 7.909 0 10.927l-183.109 183.108c-1.509 1.509-3.486 2.263-5.463 2.263z"/><path d="m70.954 355.549c-1.977 0-3.955-.754-5.463-2.263-3.018-3.017-3.018-7.909 0-10.927l276.868-276.868c3.017-3.018 7.909-3.018 10.927 0 3.018 3.017 3.018 7.909 0 10.927l-276.868 276.868c-1.509 1.509-3.486 2.263-5.464 2.263z"/><path d="m96.612 287.447c-1.977 0-3.955-.754-5.463-2.263-3.018-3.017-3.018-7.909 0-10.927l183.108-183.108c3.017-3.018 7.909-3.018 10.927 0 3.018 3.017 3.018 7.909 0 10.927l-183.109 183.108c-1.508 1.509-3.485 2.263-5.463 2.263z"/></g></g></g><g fill="#d6f6b2"><g><path d="m331.493 441.452 2.308-.619c8.141-2.181 16.581 2.313 19.315 10.286l8.408 24.524c3.012 8.784-2.046 18.282-11.016 20.685l-5.736 1.537c-8.97 2.403-18.099-3.293-19.883-12.406l-4.98-25.442c-1.619-8.271 3.443-16.384 11.584-18.565z"/><path d="m400.586 402.275 1.69-1.69c5.96-5.96 15.517-6.287 21.87-.749l19.543 17.034c7 6.102 7.369 16.855.802 23.422l-4.199 4.199c-6.566 6.566-17.32 6.198-23.422-.802l-17.034-19.543c-5.538-6.354-5.21-15.911.75-21.871z"/><path d="m440.833 333.802.619-2.308c2.181-8.141 10.294-13.203 18.565-11.584l25.442 4.98c9.113 1.784 14.809 10.913 12.406 19.883l-1.537 5.736c-2.403 8.97-11.901 14.028-20.685 11.016l-24.524-8.408c-7.972-2.734-12.467-11.174-10.286-19.315z"/></g><g><path d="m180.507 70.548-2.308.619c-8.141 2.181-16.581-2.313-19.315-10.286l-8.408-24.524c-3.012-8.784 2.046-18.282 11.016-20.685l5.736-1.537c8.97-2.403 18.099 3.293 19.883 12.406l4.98 25.442c1.619 8.271-3.443 16.384-11.584 18.565z"/><path d="m111.414 109.725-1.69 1.69c-5.96 5.96-15.517 6.287-21.87.749l-19.543-17.035c-7-6.101-7.369-16.855-.802-23.422l4.199-4.199c6.566-6.566 17.32-6.198 23.422.802l17.034 19.543c5.538 6.355 5.21 15.912-.75 21.872z"/><path d="m71.167 178.198-.619 2.308c-2.181 8.141-10.294 13.203-18.565 11.584l-25.442-4.98c-9.113-1.784-14.809-10.913-12.406-19.883l1.537-5.736c2.403-8.97 11.901-14.028 20.685-11.016l24.524 8.408c7.972 2.734 12.467 11.174 10.286 19.315z"/></g></g><g fill="#78c2a4"><path d="m138.788 415.027c3.887 1.758 8.465.03 10.223-3.858s.031-8.465-3.858-10.223l-54.977-24.851c-.069-.031-.138-.061-.208-.091-3.393-1.415-7.263-.648-9.861 1.954s-3.357 6.474-1.935 9.865c.024.058.049.115.075.173l24.711 55.114c1.286 2.867 4.104 4.567 7.055 4.567 1.056 0 2.13-.218 3.156-.678 3.894-1.746 5.635-6.317 3.889-10.211l-3.976-8.867 16.882-16.882zm-32.47-2.195-7.02-15.656 15.616 7.059z"/><path d="m362.687 117.602c3.018-3.017 3.018-7.909 0-10.927-3.017-3.018-7.909-3.017-10.927 0l-16.902 16.902c-1.449 1.449-2.263 3.414-2.263 5.464 0 2.049.814 4.014 2.263 5.463l40.113 40.113c1.509 1.509 3.486 2.263 5.463 2.263s3.955-.755 5.463-2.263l16.902-16.902c3.018-3.017 3.018-7.909 0-10.927-3.017-3.017-7.909-3.017-10.927 0l-11.439 11.439-9.13-9.13 10.193-10.192c3.018-3.017 3.018-7.909 0-10.927-3.017-3.017-7.909-3.017-10.927 0l-10.193 10.193-9.13-9.13z"/><path d="m370.083 89.18c-1.451 1.451-2.265 3.419-2.263 5.471s.82 4.018 2.273 5.466c.001.001 39.375 39.215 39.375 39.215 1.448 1.437 3.404 2.243 5.444 2.243h.029c2.049-.008 4.012-.829 5.455-2.284.335-.338 8.242-8.305 11.36-11.534 11.902-12.326 10.174-31.64-4.112-45.925-6.758-6.758-14.452-10.926-22.251-12.052-8.965-1.296-17.553 1.643-24.183 8.274zm22.053-.2c3.236-3.236 6.85-4.511 11.047-3.907 4.409.637 9.215 3.366 13.534 7.685 9.613 9.613 8.896 19.113 3.923 24.265-1.327 1.374-3.613 3.698-5.775 5.889-4.623-4.593-23.575-23.488-28.381-28.279z"/><path d="m347.137 210.005c2.363 0 4.693-.928 6.425-2.684 2.694-2.731 3.366-6.878 1.646-10.367l-26.571-53.007c-1.912-3.815-6.554-5.357-10.369-3.445s-5.357 6.555-3.445 10.369l18.077 36.063-36.66-17.768c-3.839-1.86-8.461-.257-10.322 3.583s-.257 8.462 3.583 10.322l53.766 26.058c1.237.59 2.558.876 3.87.876z"/><path d="m264.072 293.62c4.043 0 7.442-3.144 7.703-7.235.272-4.259-2.961-7.931-7.219-8.202l-21.117-1.346c4.383-8.678 3.141-19.354-3.873-26.368-8.813-8.813-23.422-8.547-32.565.596l-10.757 10.757c-1.452 1.452-2.267 3.423-2.263 5.476.004 2.054.824 4.021 2.281 5.469.001.001 40.452 40.478 40.452 40.478 1.509 1.509 3.486 2.263 5.463 2.263s3.955-.754 5.463-2.263c3.018-3.017 3.018-7.909 0-10.927l-10.392-10.392 26.324 1.678c.168.01.334.016.5.016zm-46.144-31.63c3.065-3.064 7.969-3.337 10.711-.596 2.741 2.742 2.469 7.647-.596 10.711-1.236 1.237-3.271 3.286-5.233 5.267-1.926-1.906-8.144-8.1-10.16-10.105z"/><path d="m160.298 397.386c1.977 0 3.955-.755 5.463-2.263 3.018-3.017 3.018-7.909 0-10.927l-12.15-12.15c2.145-2.167 4.429-4.47 5.788-5.829 4.497-4.497 7.021-10.498 7.107-16.897.087-6.504-2.358-12.577-6.883-17.102-9.311-9.312-24.563-9.212-34 .224l-11.272 11.272c-1.452 1.452-2.267 3.422-2.263 5.476s.824 4.021 2.281 5.469l40.465 40.465c1.509 1.508 3.486 2.262 5.464 2.262zm-23.748-54.018c3.352-3.352 8.914-3.456 12.146-.224 1.551 1.551 2.388 3.671 2.358 5.97-.031 2.349-.948 4.542-2.582 6.176-1.35 1.35-3.606 3.625-5.739 5.78-2.234-2.212-9.638-9.586-11.975-11.909z"/><path d="m201.016 290.824c-9.313-9.313-24.564-9.212-33.999.224l-11.272 11.272c-1.452 1.452-2.267 3.422-2.263 5.476s.824 4.021 2.281 5.469l40.465 40.465c1.509 1.509 3.486 2.263 5.463 2.263s3.955-.754 5.463-2.263c3.018-3.017 3.018-7.909 0-10.927l-12.15-12.15c2.145-2.167 4.429-4.47 5.788-5.829 9.435-9.436 9.536-24.688.224-34zm-23.072 11.151c3.352-3.353 8.913-3.455 12.146-.224 3.231 3.231 3.128 8.793-.224 12.146-1.35 1.35-3.606 3.625-5.739 5.78-2.234-2.212-9.638-9.586-11.975-11.909z"/><path d="m305.451 255.433c6.866-6.866 10.647-15.995 10.647-25.705s-3.781-18.839-10.647-25.704c-14.174-14.174-37.236-14.174-51.409 0-6.866 6.866-10.647 15.995-10.647 25.705s3.781 18.839 10.647 25.705c7.087 7.087 16.396 10.63 25.705 10.63 9.308 0 18.617-3.544 25.704-10.631zm-46.604-25.704c0-5.582 2.174-10.83 6.121-14.778 4.074-4.074 9.426-6.111 14.778-6.111s10.704 2.037 14.778 6.111c3.947 3.947 6.121 9.195 6.121 14.778 0 5.582-2.174 10.831-6.121 14.778-8.149 8.148-21.407 8.148-29.556 0-3.947-3.948-6.121-9.196-6.121-14.778z"/></g></g></svg>