<svg id="Capa_1" enable-background="new 0 0 512 512" height="512" viewBox="0 0 512 512" width="512" xmlns="http://www.w3.org/2000/svg"><g><path d="m493.197 174.955-201.743-162.452c-20.696-16.666-50.207-16.666-70.903 0l-201.744 162.452v281.4c0 30.732 24.913 55.645 55.645 55.645h363.1c30.732 0 55.645-24.913 55.645-55.645z" fill="#eab1b7"/><g fill="#e4989d"><path d="m118.257 512h-43.814c-30.73 0-55.64-24.91-55.64-55.64v-281.404h43.814v281.404c0 30.73 24.909 55.64 55.64 55.64z"/><path d="m493.194 174.953-54.674 44.028-147.066 34.63c-20.697 16.67-50.212 16.67-70.909 0l-147.066-34.63-54.675-44.028 201.741-162.45c20.697-16.67 50.212-16.67 70.909 0z"/><g><path d="m377.788 469.794c-1.701 0-3.412-.559-4.841-1.709l-73.681-59.33c-3.324-2.677-3.849-7.54-1.173-10.864 2.677-3.323 7.54-3.849 10.864-1.172l73.681 59.33c3.324 2.677 3.849 7.54 1.172 10.864-1.525 1.895-3.764 2.881-6.022 2.881z"/><path d="m134.216 469.794c-2.259 0-4.496-.985-6.023-2.881-2.677-3.324-2.152-8.188 1.172-10.864l73.681-59.33c3.324-2.677 8.188-2.151 10.864 1.172s2.151 8.187-1.173 10.864l-73.681 59.33c-1.427 1.149-3.139 1.709-4.84 1.709z"/></g></g><g><path d="m438.523 123.967v95.016l-147.066 118.422c-20.697 16.67-50.212 16.67-70.909 0l-147.067-118.422v-155.417c0-18.859 15.289-34.147 34.148-34.147h236.345z" fill="#f8f6f9"/><g fill="#dddaec"><path d="m438.523 178.333v40.65l-147.066 118.422c-20.697 16.67-50.212 16.67-70.909 0l-147.066-118.422v-40.65l147.066 118.422c20.697 16.67 50.212 16.67 70.909 0z"/><path d="m438.52 123.969h-60.406c-18.856 0-34.145-15.289-34.145-34.145v-60.407"/></g></g><g><path d="m294.94 207.345 33.271-33.271c5.614-5.614 5.614-14.716 0-20.33l-18.608-18.608c-5.614-5.614-14.716-5.614-20.33 0l-33.271 33.271-33.271-33.271c-5.614-5.614-14.716-5.614-20.33 0l-18.608 18.608c-5.614 5.614-5.614 14.716 0 20.33l33.271 33.271-33.271 33.271c-5.614 5.614-5.614 14.716 0 20.33l18.608 18.608c5.614 5.614 14.716 5.614 20.33 0l33.271-33.271 33.271 33.271c5.614 5.614 14.716 5.614 20.33 0l18.608-18.608c5.614-5.614 5.614-14.716 0-20.33z" fill="#dd636e"/></g></g></svg>