<svg id="Capa_1" enable-background="new 0 0 512 512" height="512" viewBox="0 0 512 512" width="512" xmlns="http://www.w3.org/2000/svg"><g><path d="m256 0c-141.382 0-256 114.618-256 256s114.618 256 256 256 256-114.618 256-256-114.618-256-256-256zm0 381.857c-69.506 0-125.857-56.351-125.857-125.857s56.351-125.857 125.857-125.857 125.857 56.351 125.857 125.857-56.351 125.857-125.857 125.857z" fill="#d6f6b2"/><g fill="#b3e59f"><path d="m35.883 256c0-135.349 105.05-246.154 238.059-255.365-5.929-.41-11.909-.635-17.942-.635-141.382 0-256 114.618-256 256s114.618 256 256 256c6.033 0 12.013-.225 17.941-.635-133.009-9.211-238.058-120.016-238.058-255.365z"/><path d="m273.941 380.578c5.861.837 11.849 1.279 17.941 1.279 69.506 0 125.857-56.351 125.857-125.857s-56.351-125.857-125.857-125.857c-6.092 0-12.08.442-17.941 1.279 61.007 8.71 107.916 61.164 107.916 124.578s-46.908 115.869-107.916 124.578z"/></g><path d="m61.887 290.234c-2.189 0-4.291-.931-5.764-2.582l-12.823-14.369c-2.841-3.184-2.563-8.068.62-10.909 3.186-2.842 8.069-2.562 10.909.62l5.859 6.566 17.108-28.292c2.208-3.652 6.959-4.821 10.61-2.614 3.651 2.208 4.822 6.958 2.614 10.609l-22.52 37.243c-1.269 2.098-3.458 3.469-5.898 3.695-.239.023-.477.033-.715.033z" fill="#95d6a4"/><path d="m439.409 290.234c-2.189 0-4.291-.931-5.764-2.582l-12.824-14.369c-2.841-3.184-2.563-8.068.62-10.909 3.187-2.842 8.07-2.562 10.909.62l5.859 6.566 17.108-28.292c2.208-3.652 6.958-4.821 10.61-2.614 3.651 2.208 4.822 6.958 2.614 10.609l-22.519 37.242c-1.269 2.098-3.458 3.469-5.898 3.695-.239.024-.477.034-.715.034z" fill="#95d6a4"/><g fill="#78c2a4"><path d="m110.96 322.362c2.63-2.597 3.421-6.485 2.015-9.903-1.404-3.416-4.696-5.623-8.39-5.623-.053.003-.132.001-.197.003l-62.605 1.588c-4.266.108-7.636 3.654-7.528 7.92.109 4.266 3.657 7.641 7.921 7.528l10.269-.26 9.543 23.264-7.49 6.979c-3.122 2.909-3.294 7.798-.385 10.92 2.915 3.126 7.804 3.29 10.921.385l45.766-42.645c.052-.052.106-.104.16-.156zm-36.89 13.257-5.097-12.424 18.946-.481z"/><path d="m440.245 381.601c-3.301-2.703-8.169-2.219-10.873 1.082l-10.807 13.197-10.797-8.842 9.649-11.783c2.703-3.301 2.218-8.169-1.082-10.873-3.301-2.703-8.169-2.22-10.873 1.082l-9.649 11.783-10.797-8.842 10.807-13.196c2.703-3.302 2.218-8.17-1.082-10.873-3.301-2.703-8.169-2.22-10.873 1.082l-15.702 19.174c-2.703 3.302-2.218 8.17 1.083 10.873l45.505 37.266c3.167 2.696 8.305 2.179 10.873-1.082l15.702-19.174c2.702-3.303 2.217-8.171-1.084-10.874z"/><path d="m448.516 298.839h.001c-9.079-3.817-18.036-4.798-25.902-2.84-9.023 2.246-16.048 8.372-19.781 17.25l-6.323 15.039c-.795 1.892-.805 4.022-.028 5.921.778 1.899 2.278 3.411 4.171 4.202l53.147 22.217c3.802 1.679 8.594-.293 10.114-4.161.189-.455 4.658-11.2 6.385-15.519 6.538-16.344-2.623-34.054-21.784-42.109zm7.436 36.371c-.757 1.893-2.094 5.148-3.342 8.172l-38.853-16.241 3.323-7.903c1.875-4.462 4.906-7.158 9.268-8.243 4.539-1.13 10.287-.388 16.18 2.09h.001c13.171 5.537 16.233 15.101 13.423 22.125z"/><path d="m365.872 380.974c-.843-4.183-4.916-6.89-9.101-6.047-4.183.844-6.89 4.919-6.046 9.101l8.435 41.822-32.473-28.305c-3.216-2.804-8.098-2.47-10.9.747-2.804 3.217-2.47 8.097.747 10.901l46.696 40.705c2.933 2.52 7.145 2.892 10.464.96 3.334-1.938 5.078-5.783 4.332-9.621z"/><path d="m226.891 408.308-15.527-2.774c-2.021-.361-4.105.097-5.787 1.274-1.683 1.177-2.829 2.975-3.183 4.998 0 .001-1.759 10.04-2.51 14.274-.087.288-.162.581-.217.884l-7.726 43.248c-.751 4.201 2.046 8.214 6.246 8.965.46.082.917.122 1.368.122 3.672 0 6.929-2.628 7.597-6.369l2.812-15.742 14.568 24.032c2.226 3.681 7.023 4.794 10.613 2.602 3.649-2.212 4.814-6.963 2.603-10.612l-11.598-19.132c3.628-.456 7.129-1.715 10.252-3.749 5.393-3.514 8.97-8.842 10.069-15.003 2.246-12.568-6.537-24.688-19.58-27.018zm4.37 24.3c-.343 1.917-1.512 3.612-3.294 4.772-1.885 1.228-4.255 1.701-6.5 1.3-1.844-.329-4.93-.868-7.862-1.378.495-2.855 1.015-5.835 1.332-7.61.271-1.513.813-4.59 1.339-7.584l7.898 1.411c4.575.818 7.82 4.98 7.087 9.089z"/><path d="m139.668 394.937c4.986-4.259 7.972-10.268 8.406-16.92.428-6.547-1.669-12.882-5.903-17.839l-10.733-12.569c-2.64-3.217-7.812-3.616-10.913-.84l-45.118 38.533c-3.244 2.771-3.629 7.648-.857 10.893 2.782 3.256 7.664 3.619 10.893.857l13.762-11.754c2.118 2.455 4.406 5.111 5.74 6.673 4.939 5.782 11.944 8.76 18.957 8.76 5.601 0 11.209-1.902 15.766-5.794zm-7.013-17.927c-.161 2.455-1.234 4.649-3.023 6.177-3.719 3.178-9.644 2.604-12.936-1.25-1.322-1.548-3.578-4.168-5.683-6.607l13.709-11.789 5.698 6.673c1.605 1.877 2.398 4.291 2.235 6.796z"/><path d="m180.038 390.849-14.676-7.601c-1.824-.944-3.951-1.123-5.904-.499-1.957.625-3.583 2.003-4.522 3.83l-27.286 52.687c-1.962 3.789-.481 8.451 3.308 10.414 3.711 1.944 8.443.519 10.414-3.308l8.323-16.072c2.886 1.476 6.006 3.075 7.829 4.02 3.68 1.906 7.614 2.808 11.485 2.808 8.905 0 17.473-4.783 21.8-13.137 6.207-11.984 1.376-26.852-10.771-33.142zm-2.95 26.037c-2.249 4.344-7.952 6.045-12.456 3.713-1.807-.936-4.883-2.513-7.752-3.98l8.26-16.084 7.793 4.036c4.502 2.331 6.404 7.971 4.155 12.315z"/><path d="m285.7 407.575c-9.939 1.027-18.882 5.864-25.183 13.618s-9.205 17.498-8.177 27.436c1.027 9.939 5.863 18.882 13.618 25.183 6.731 5.47 14.963 8.381 23.519 8.38 1.3 0 2.607-.067 3.918-.203 9.939-1.028 18.882-5.864 25.183-13.618s9.205-17.498 8.177-27.437c-2.122-20.515-20.548-35.479-41.055-33.359zm20.885 51.052c-3.697 4.551-8.947 7.389-14.78 7.992-5.837.603-11.552-1.101-16.103-4.799-4.55-3.698-7.388-8.947-7.992-14.78-.603-5.833 1.102-11.551 4.8-16.102 3.697-4.551 8.947-7.389 14.78-7.992.765-.079 1.522-.118 2.275-.118 11.098 0 20.654 8.42 21.82 19.697.602 5.833-1.102 11.551-4.8 16.102z"/></g><g fill="#78c2a4"><path d="m109.596 177.096-62.441 3.774c-.076.005-.152.01-.227.017-3.681.331-6.765 2.828-7.855 6.36s.05 7.332 2.904 9.68c.048.039.097.078.146.117l49.303 38.613c1.413 1.107 3.092 1.644 4.759 1.644 2.294 0 4.564-1.017 6.088-2.963 2.632-3.36 2.041-8.216-1.319-10.847l-8.086-6.333 7.443-24.02 10.217-.618c4.26-.258 7.504-3.919 7.246-8.178-.257-4.259-3.948-7.502-8.178-7.246zm-29.748 29.866-14.921-11.686 18.896-1.142z"/><path d="m401.653 166.481-10.123-13.728 11.233-8.283 9.038 12.258c2.548 3.456 7.403 4.149 10.804 1.633 3.435-2.532 4.166-7.369 1.633-10.804l-9.038-12.257 11.233-8.283 10.123 13.729c2.533 3.435 7.369 4.165 10.804 1.633s4.166-7.369 1.633-10.804l-14.708-19.947c-2.533-3.435-7.369-4.165-10.804-1.633l-23.668 17.452c-.001 0-.001.001-.002.001 0 0-.001.001-.001.001l-23.669 17.452c-3.389 2.398-4.162 7.512-1.633 10.804l14.708 19.947c2.548 3.456 7.403 4.149 10.804 1.633 3.435-2.533 4.166-7.37 1.633-10.804z"/><path d="m473.927 194.518-4.406-15.708c-1.042-4.024-5.566-6.557-9.54-5.349-.001 0-55.445 15.674-55.445 15.674-4.015 1.057-6.532 5.577-5.318 9.547.136.474 3.322 11.665 4.656 16.122 3.98 13.289 16.119 21.177 30.879 21.177 3.97 0 8.131-.571 12.372-1.761 21.036-5.9 31.807-21.855 26.802-39.702zm-30.975 24.824c-13.759 3.858-22.106-1.725-24.275-8.97-.586-1.956-1.565-5.342-2.471-8.489 6.521-1.851 33.734-9.53 40.525-11.447l2.316 8.256c3.894 13.879-11.336 19.315-16.095 20.65z"/><path d="m404.894 81.457c-2.497-3.462-7.328-4.243-10.786-1.748l-34.605 24.955 12.367-41.263c1.224-4.088-1.096-8.394-5.183-9.619-4.09-1.226-8.394 1.096-9.62 5.183l-17.786 59.343c-1.077 3.702.309 7.69 3.452 9.924 1.565 1.114 3.399 1.672 5.239 1.672 1.852 0 3.711-.566 5.309-1.702l49.864-35.958c3.463-2.497 4.245-7.325 1.749-10.787z"/><path d="m248.142 88.403-17.821-13.495c8.881-4.864 14.017-14.839 11.961-24.936-1.249-6.132-4.953-11.372-10.43-14.755-5.3-3.273-11.601-4.388-17.735-3.138l-15.456 3.148c-4.093.75-6.948 5.081-6.023 9.138l11.823 58.144c.833 4.209 5.036 6.892 9.113 6.029 4.181-.852 6.88-4.932 6.028-9.113l-3.192-15.67 22.404 16.966c3.372 2.562 8.233 1.926 10.824-1.495 2.575-3.401 1.906-8.247-1.496-10.823zm-30.941-41.181c2.235-.456 4.617-.039 6.53 1.143 1.809 1.117 3.019 2.783 3.407 4.691.833 4.09-2.31 8.329-6.864 9.257-1.835.374-4.901 1.011-7.815 1.619-.593-2.836-2.506-12.132-3.121-15.109z"/><path d="m127.548 158.185-14.122-11.319c2.015-2.541 4.196-5.285 5.481-6.888 8.553-10.673 6.945-26.223-3.587-34.664-10.529-8.44-26.057-6.626-34.614 4.048l-10.337 12.897c-2.665 3.194-2.089 8.35 1.216 10.877.001.001 46.299 37.108 46.299 37.108 3.306 2.656 8.18 2.148 10.861-1.197 2.668-3.331 2.133-8.193-1.197-10.862zm-34.783-39.16c3.169-3.955 9.073-4.714 12.891-1.654 3.817 3.06 4.363 8.987 1.192 12.943-1.275 1.591-3.431 4.303-5.435 6.83-2.618-2.076-11.402-9.087-14.14-11.269z"/><path d="m157.644 56.991c-6.447-1.226-12.99.079-18.429 3.675l-13.787 9.114c-1.713 1.132-2.904 2.9-3.312 4.913-.407 2.013.003 4.105 1.141 5.814.001.001 32.721 49.497 32.721 49.497 2.369 3.587 7.195 4.519 10.706 2.184 3.56-2.353 4.538-7.147 2.185-10.706l-9.982-15.099c2.696-1.802 5.611-3.747 7.325-4.88 5.439-3.595 9.203-9.105 10.601-15.515 1.42-6.514.209-13.114-3.406-18.583-3.616-5.47-9.214-9.168-15.763-10.414zm4.071 25.707c-.534 2.453-1.964 4.554-4.023 5.915-1.701 1.124-4.583 3.047-7.266 4.84-1.856-2.778-8.074-12.141-10.012-15.055l7.323-4.842c2.059-1.362 4.554-1.853 7.019-1.385 2.417.46 4.463 1.794 5.76 3.755 0 0 .001 0 .001.001 1.297 1.963 1.722 4.367 1.198 6.771z"/><path d="m300.995 31.198c-9.825-1.801-19.769.334-27.991 6.01-8.223 5.676-13.743 14.215-15.543 24.042-1.801 9.828.333 19.769 6.009 27.991 5.675 8.223 14.214 13.743 24.042 15.544 2.27.416 4.529.616 6.759.616 17.7 0 33.475-12.65 36.777-30.668v-.001c3.717-20.287-9.765-39.816-30.053-43.534zm14.853 40.75c-2.183 11.907-13.641 19.818-25.551 17.637-5.768-1.057-10.779-4.297-14.111-9.122-3.331-4.826-4.583-10.66-3.526-16.428s4.297-10.779 9.123-14.11c3.708-2.56 8.012-3.892 12.425-3.892 1.329 0 2.668.121 4.003.365 11.906 2.182 19.818 13.644 17.637 25.55z"/></g><g><path d="m336.836 208.002c3.449-6.952.609-15.377-6.343-18.826l-21.752-10.775c-6.952-3.449-15.377-.609-18.826 6.343l-43.045 86.848-20.962-35.057c-3.983-6.663-12.601-8.831-19.264-4.848l-20.834 12.451c-6.653 3.983-8.831 12.601-4.848 19.264l41.304 69.089c2.638 4.41 7.475 7.037 12.601 6.834l29.28-1.153c5.136-.203 9.749-3.193 12.024-7.795z" fill="#95d6a4"/><g fill="#78c2a4"><path d="m255.626 286.236 50.303-101.492c1.122-2.261 2.775-4.078 4.728-5.394l-1.916-.949c-6.952-3.449-15.377-.609-18.826 6.343l-43.045 86.848z"/><path d="m238.282 332.491-41.304-69.089c-3.983-6.663-1.805-15.281 4.848-19.264l19.997-11.951c-4.387-3.024-10.302-3.414-15.178-.5l-20.834 12.451c-6.653 3.983-8.831 12.601-4.848 19.264l41.304 69.089c2.638 4.41 7.475 7.037 12.6 6.834l11.866-.467c-3.484-.929-6.544-3.178-8.451-6.367z"/></g></g></g></svg>