<svg id="Capa_1" enable-background="new 0 0 512 512" height="512" viewBox="0 0 512 512" width="512" xmlns="http://www.w3.org/2000/svg"><g><path d="m0 493.362 75.016.004 21.198-76.391v-76.388h-96.214z" fill="#bed8fb"/><path d="m0 493.362 75.016.004 21.198-54.802h-96.214z" fill="#9dc6fb"/><path d="m260.279 415.607 11.215-3.653 119.416-114.405c5.297-5.075 11.487-8.694 18.051-10.832 15.541-5.062 33.205-1.88 46.154 9.668 20.525 18.28 21.209 50.128 1.497 69.265l-114.841 111.529" fill="#ffcbbe"/><path d="m75.019 492.847h196.991c24.185 0 48.049-5.536 69.765-16.183l143.728-70.472c24.671-12.096 33.885-42.593 20.041-66.327-12.438-21.322-39.177-29.5-61.414-18.784l-148.977 71.796-220.134-35.742" fill="#ffddce"/><path d="m158.999 403.564h95.715 2.993c9.997 0 19.071-3.925 25.787-10.308 10.105-8.314 16.55-20.914 16.55-35.021 0-25.035-20.295-45.329-45.329-45.329h-60.159c-10.244-20.9-31.715-35.294-56.56-35.294-34.781 0-62.976 28.195-62.976 62.976v105.513" fill="#ffddce"/><g fill="#ffcbbe"><path d="m158.995 383.362h98.712c9.993 0 19.069-3.925 25.786-10.312 7.624-6.274 13.155-14.979 15.411-24.92.742 3.245 1.133 6.624 1.133 10.096 0 14.113-6.439 26.713-16.545 35.026-6.717 6.387-15.793 10.312-25.786 10.312h-98.712v-20.202z"/><path d="m162.646 282.619c-22.52 9.601-38.292 31.936-38.292 57.968v113.735l-49.336-8.224v-105.511c0-34.789 28.196-62.985 62.975-62.985 8.757 0 17.081 1.792 24.653 5.017z"/><path d="m485.502 406.707-143.731 70.475c-21.716 10.652-45.575 16.184-69.764 16.184h-196.991v-54.796h196.992c24.189 0 48.048-5.542 69.764-16.184l143.731-70.475c7.355-3.606 13.341-8.849 17.75-15.061.814 1.133 1.576 2.308 2.287 3.534 13.845 23.736 4.635 54.229-20.038 66.323z"/></g><g><path d="m386.976 66.049c4.466-9.002.788-19.913-8.214-24.379l-28.168-13.953c-9.002-4.466-19.913-.788-24.379 8.214l-55.741 112.464-27.145-45.398c-5.158-8.629-16.317-11.436-24.946-6.278l-26.979 16.124c-8.615 5.158-11.436 16.317-6.278 24.946l53.487 89.468c3.416 5.711 9.68 9.113 16.317 8.85l37.917-1.493c6.651-.263 12.625-4.135 15.57-10.095z" fill="#95d6a4"/><g fill="#78c2a4"><path d="m281.813 167.359 65.14-131.428c1.453-2.928 3.594-5.281 6.122-6.985l-2.481-1.229c-9.002-4.466-19.912-.788-24.379 8.214l-55.741 112.464z"/><path d="m259.352 227.257-53.487-89.468c-5.158-8.629-2.337-19.788 6.278-24.946l25.896-15.476c-5.681-3.915-13.341-4.421-19.655-.647l-26.979 16.124c-8.615 5.158-11.436 16.317-6.278 24.946l53.487 89.468c3.416 5.711 9.68 9.113 16.317 8.85l15.366-.605c-4.512-1.203-8.475-4.116-10.945-8.246z"/></g></g><g fill="#d6f6b2"><path d="m153.516 199.264-1.366-2.366c-4.818-8.346-15.276-11.535-23.932-7.299l-26.625 13.029c-9.537 4.667-13.126 16.435-7.817 25.629l3.395 5.88c5.309 9.195 17.294 11.97 26.104 6.045l24.596-16.543c7.997-5.378 10.464-16.029 5.645-24.375z"/><path d="m129.33 132.336v-2.732c0-9.637-7.462-17.628-17.076-18.287l-29.572-2.029c-10.592-.727-19.585 7.67-19.585 18.287v6.789c0 10.617 8.992 19.014 19.585 18.287l29.572-2.029c9.614-.659 17.076-8.65 17.076-18.286z"/><path d="m152.15 65.041 1.366-2.366c4.818-8.346 2.352-18.997-5.644-24.375l-24.596-16.543c-8.81-5.925-20.796-3.15-26.104 6.045l-3.395 5.88c-5.309 9.195-1.719 20.962 7.817 25.629l26.625 13.029c8.655 4.236 19.113 1.046 23.931-7.299z"/></g><g fill="#d6f6b2"><path d="m418.841 199.264 1.366-2.366c4.818-8.346 15.276-11.535 23.932-7.299l26.625 13.029c9.537 4.667 13.126 16.435 7.817 25.629l-3.395 5.88c-5.309 9.195-17.294 11.97-26.104 6.045l-24.596-16.543c-7.997-5.378-10.463-16.029-5.645-24.375z"/><path d="m443.027 132.336v-2.732c0-9.637 7.462-17.628 17.076-18.287l29.572-2.029c10.592-.727 19.585 7.67 19.585 18.287v6.789c0 10.617-8.992 19.014-19.585 18.287l-29.572-2.029c-9.614-.659-17.076-8.65-17.076-18.286z"/><path d="m420.207 65.041-1.366-2.366c-4.818-8.346-2.352-18.997 5.644-24.375l24.596-16.543c8.81-5.925 20.796-3.15 26.104 6.045l3.395 5.88c5.309 9.195 1.719 20.962-7.817 25.629l-26.624 13.029c-8.656 4.236-19.114 1.046-23.932-7.299z"/></g></g></svg>