<svg id="Capa_1" enable-background="new 0 0 512 512" height="512" viewBox="0 0 512 512" width="512" xmlns="http://www.w3.org/2000/svg"><g><g><path d="m448.108 44.36v365.075c0 24.497-19.862 44.36-44.36 44.36h-283.32c-24.498 0-44.36-19.862-44.36-44.36v-365.075c.001-24.498 19.863-44.36 44.36-44.36h283.32c24.498 0 44.36 19.862 44.36 44.36z" fill="#f8f6f9"/><path d="m144.769 453.79h-24.35c-24.49 0-44.35-19.86-44.35-44.35v-365.08c0-24.5 19.86-44.36 44.35-44.36h24.35c-24.5 0-44.36 19.86-44.36 44.36v365.08c0 24.49 19.86 44.35 44.36 44.35z" fill="#dddaec"/><path d="m448.108 187.916v221.52c0 24.497-19.862 44.36-44.36 44.36h-283.32c-24.498 0-44.36-19.862-44.36-44.36v-317.018c2.915-.371 5.882-.556 8.901-.556h146.368c24.621 0 47.46 12.867 60.214 33.924l15.144 24.992c12.764 21.057 35.593 33.924 60.214 33.924h60.121c7.346-.001 14.423 1.122 21.078 3.214z" fill="#dddaec"/><path d="m497.437 281.84v159.753c0 38.885-31.522 70.407-70.407 70.407h-342.06c-38.885 0-70.407-31.522-70.407-70.407v-252.585c0-38.885 31.522-70.407 70.407-70.407h146.367c24.623 0 47.456 12.863 60.216 33.922l15.141 24.989c12.76 21.059 35.593 33.922 60.216 33.922h60.119c38.885-.001 70.408 31.521 70.408 70.406z" fill="#95d6a4"/><path d="m121.97 511.995h-37.004c-38.879 0-70.403-31.524-70.403-70.403v-252.59c0-38.889 31.524-70.403 70.403-70.403h37.004c-38.889 0-70.413 31.513-70.413 70.403v252.59c0 38.88 31.523 70.403 70.413 70.403z" fill="#78c2a4"/></g><g><path d="m346.068 272.199c3.704-7.466.654-16.514-6.812-20.218l-23.36-11.571c-7.466-3.704-16.514-.654-20.218 6.812l-46.227 93.268-22.511-37.649c-4.278-7.156-13.532-9.484-20.688-5.206l-22.374 13.372c-7.144 4.277-9.484 13.532-5.206 20.688l44.358 74.197c2.833 4.736 8.027 7.557 13.532 7.339l31.445-1.239c5.516-.218 10.47-3.429 12.913-8.372z" fill="#f8f6f9"/></g></g></svg>