<svg id="Capa_1" enable-background="new 0 0 512 512" height="512" viewBox="0 0 512 512" width="512" xmlns="http://www.w3.org/2000/svg"><g><g><path d="m473.101 153.654v264.979l-217.097 17.132-217.098-17.132v-264.979c0-22.489 18.224-40.702 40.702-40.702h352.791c22.478 0 40.702 18.213 40.702 40.702z" fill="#407093"/><path d="m473.101 401.161v17.472l-217.097 17.132-217.098-17.132v-17.472z" fill="#365e7d"/><path d="m47.584 426.38-8.674-7.743v-264.979c0-22.489 18.213-40.702 40.692-40.702h20.562c-22.478 0-40.702 18.213-40.702 40.702v264.979z" fill="#365e7d"/><path d="m473.098 418.637h-434.189c-21.485 0-38.902 17.417-38.902 38.902 0 21.485 17.417 38.902 38.902 38.902h434.188c21.485 0 38.902-17.417 38.902-38.902.001-21.485-17.416-38.902-38.901-38.902z" fill="#407093"/><path d="m505.781 478.63c-6.923 10.714-18.976 17.812-32.687 17.812h-434.185c-10.745 0-20.469-4.358-27.516-11.394-7.035-7.046-11.393-16.771-11.393-27.505 0-21.49 17.42-38.91 38.909-38.91h12.527c-3.925 6.078-6.212 13.32-6.212 21.088 0 10.745 4.358 20.47 11.394 27.516 7.036 7.036 16.761 11.394 27.505 11.394h421.658z" fill="#365e7d"/><path d="m78.053 360.373v-187.606c0-11.415 9.253-20.668 20.668-20.668h314.565c11.414 0 20.668 9.253 20.668 20.668v187.607c0 10.556-8.557 19.113-19.113 19.113h-317.674c-10.556-.001-19.114-8.558-19.114-19.114z" fill="#f8f6f9"/><path d="m127.224 379.483h-30.061c-10.559 0-19.11-8.561-19.11-19.11v-187.606c0-11.414 9.251-20.665 20.665-20.665h30.061c-11.414 0-20.665 9.251-20.665 20.665v187.606c0 10.549 8.561 19.11 19.11 19.11z" fill="#dddaec"/><path d="m301.73 452.894h-91.454c-18.92 0-34.257-15.337-34.257-34.257h159.968c.001 18.92-15.337 34.257-34.257 34.257z" fill="#365e7d"/></g><g><path d="m384.288 60.254c4.962-10.001.876-22.122-9.125-27.084l-31.293-15.501c-10.001-4.962-22.122-.876-27.084 9.125l-61.926 124.943-30.157-50.435c-5.73-9.586-18.128-12.705-27.714-6.975l-29.972 17.913c-9.571 5.73-12.705 18.128-6.975 27.714l59.422 99.396c3.795 6.345 10.754 10.124 18.128 9.832l42.124-1.659c7.389-.292 14.026-4.593 17.298-11.215z" fill="#95d6a4"/><g fill="#78c2a4"><path d="m267.456 172.806 72.368-146.011c1.614-3.253 3.992-5.866 6.802-7.76l-2.757-1.365c-10.001-4.962-22.122-.876-27.084 9.125l-61.926 124.943z"/><path d="m242.503 239.35-59.422-99.396c-5.73-9.586-2.596-21.984 6.975-27.714l28.769-17.194c-6.311-4.35-14.821-4.912-21.836-.719l-29.972 17.913c-9.571 5.73-12.705 18.128-6.975 27.714l59.422 99.396c3.795 6.345 10.754 10.124 18.128 9.832l17.071-.672c-5.014-1.336-9.416-4.572-12.16-9.16z"/></g></g></g></svg>