<svg id="Capa_1" enable-background="new 0 0 512 512" height="512" viewBox="0 0 512 512" width="512" xmlns="http://www.w3.org/2000/svg"><g><path d="m400.172 41.207h-288.344c-40.486 0-73.307 32.82-73.307 73.307v324.18c0 40.486 32.82 73.307 73.307 73.307h288.343c40.486 0 73.307-32.82 73.307-73.307v-324.18c0-40.486-32.82-73.307-73.306-73.307z" fill="#d8aa8b"/><path d="m144.94 512h-33.11c-40.486 0-73.308-32.821-73.308-73.308v-324.177c0-40.486 32.821-73.308 73.308-73.308h33.11c-40.486 0-73.308 32.821-73.308 73.308v324.177c0 40.487 32.822 73.308 73.308 73.308z" fill="#ce9875"/><path d="m358.636 108.082h-237.11c-22.429 0-40.611 18.182-40.611 40.611v279.935c0 22.429 18.182 40.611 40.611 40.611h237.11c22.429 0 40.611-18.182 40.611-40.611v-279.935c0-22.428-18.182-40.611-40.611-40.611z" fill="#ce9875"/><path d="m374.089 108.082h-237.11c-22.429 0-40.611 18.182-40.611 40.611v279.935c0 22.429 18.182 40.611 40.611 40.611h237.11c22.429 0 40.611-18.182 40.611-40.611v-279.935c0-22.428-18.182-40.611-40.611-40.611z" fill="#f8f6f9"/><path d="m294.385 141.765h-76.771c-16.336 0-29.627-13.291-29.627-29.627v-45.547c0-4.267 3.459-7.726 7.726-7.726 4.268 0 7.726 3.459 7.726 7.726v45.547c0 7.816 6.358 14.175 14.174 14.175h76.771c7.816 0 14.174-6.359 14.174-14.175v-45.547c0-4.267 3.459-7.726 7.726-7.726s7.726 3.459 7.726 7.726v45.547c.002 16.336-13.289 29.627-29.625 29.627z" fill="#407093"/><g><path d="m347 225.521c3.704-7.466.654-16.514-6.812-20.218l-23.36-11.571c-7.466-3.704-16.514-.654-20.218 6.812l-46.227 93.268-22.511-37.649c-4.278-7.156-13.532-9.484-20.688-5.206l-22.374 13.372c-7.144 4.278-9.484 13.532-5.206 20.688l44.358 74.197c2.833 4.736 8.027 7.557 13.532 7.339l31.445-1.239c5.516-.218 10.47-3.429 12.913-8.372z" fill="#95d6a4"/></g><path d="m323.085 82.044h-134.17c-22.656 0-41.022-18.366-41.022-41.022 0-22.656 18.366-41.022 41.022-41.022h134.17c22.656 0 41.022 18.366 41.022 41.022 0 22.656-18.366 41.022-41.022 41.022z" fill="#bed8fb"/><path d="m243.422 82.044h-54.507c-22.653 0-41.022-18.368-41.022-41.022 0-11.332 4.595-21.582 12.012-29.01 7.428-7.417 17.678-12.012 29.01-12.012h54.507c-11.322 0-21.582 4.595-29.01 12.012-7.417 7.428-12.012 17.678-12.012 29.01 0 22.654 18.368 41.022 41.022 41.022z" fill="#9dc6fb"/></g></svg>