<svg id="Capa_1" enable-background="new 0 0 512 512" height="512" viewBox="0 0 512 512" width="512" xmlns="http://www.w3.org/2000/svg"><g><g><path d="m481.867 308.446-23.055-13.31c-11.074-6.397-17.585-18.43-17.05-31.215.232-5.243.232-10.601 0-15.844-.536-12.785 5.975-24.817 17.05-31.215l23.055-13.31c16.339-9.436 21.943-30.339 12.507-46.677l-33.337-57.752c-9.436-16.339-30.339-21.943-46.688-12.506l-23.045 13.31c-11.095 6.397-24.797 5.996-35.593-.876-4.45-2.843-9.035-5.491-13.732-7.943-11.322-5.913-18.471-17.575-18.471-30.349v-26.588c0-18.873-15.298-34.171-34.171-34.171h-66.673c-18.873 0-34.171 15.298-34.171 34.171v26.589c0 12.774-7.149 24.436-18.471 30.349-4.698 2.452-9.282 5.1-13.732 7.943-10.796 6.871-24.498 7.273-35.593.876l-23.045-13.31c-16.349-9.437-37.252-3.832-46.688 12.506l-33.337 57.752c-9.436 16.339-3.832 37.241 12.507 46.677l23.055 13.31c11.074 6.397 17.585 18.43 17.05 31.215-.232 5.243-.232 10.601 0 15.844.536 12.785-5.975 24.817-17.05 31.215l-23.055 13.31c-16.339 9.437-21.943 30.339-12.507 46.678l33.337 57.752c9.436 16.339 30.339 21.943 46.688 12.506l23.045-13.31c11.095-6.397 24.797-5.996 35.593.876 4.45 2.843 9.035 5.491 13.732 7.943 11.322 5.913 18.471 17.575 18.471 30.349v26.589c0 18.873 15.298 34.171 34.171 34.171h66.673c18.873 0 34.171-15.298 34.171-34.171v-26.59c0-12.774 7.149-24.436 18.471-30.349 4.698-2.452 9.282-5.1 13.732-7.943 10.796-6.871 24.498-7.273 35.593-.876l23.045 13.31c16.349 9.437 37.252 3.832 46.688-12.506l33.337-57.752c9.436-16.339 3.832-37.241-12.507-46.678zm-225.867 95.395c-81.652 0-147.841-66.189-147.841-147.841s66.189-147.841 147.841-147.841 147.841 66.189 147.841 147.841-66.189 147.841-147.841 147.841z" fill="#f8f6f9"/><g fill="#dddaec"><path d="m182.001 99.047c4.45-2.834 9.028-5.483 13.725-7.938 11.32-5.917 18.47-17.571 18.47-30.344v-26.591c0-18.874 15.3-34.174 34.174-34.174h-25.708c-18.874 0-34.174 15.3-34.174 34.174v26.591c0 12.773-7.151 24.428-18.47 30.344-4.697 2.455-9.275 5.104-13.725 7.938-1.829 1.165-3.746 2.128-5.714 2.92 10.225 4.164 21.939 3.119 31.422-2.92z"/><path d="m76.674 412.871-33.338-57.743c-9.437-16.345-3.837-37.245 12.509-46.682l23.053-13.31c11.075-6.394 17.58-18.432 17.043-31.21-.221-5.251-.221-10.604 0-15.854.537-12.777-5.968-24.815-17.043-31.21l-23.053-13.31c-16.345-9.435-21.945-30.336-12.508-46.681l33.338-57.743c3.958-6.856 9.936-11.812 16.746-14.57-15.565-6.344-33.813-.395-42.453 14.57l-33.338 57.743c-9.437 16.345-3.836 37.245 12.509 46.682l23.053 13.31c11.075 6.394 17.58 18.432 17.043 31.21-.222 5.251-.222 10.604 0 15.854.537 12.777-5.968 24.815-17.043 31.21l-23.053 13.31c-16.345 9.437-21.945 30.337-12.509 46.682l33.338 57.743c8.64 14.965 26.888 20.914 42.453 14.57-6.811-2.759-12.789-7.715-16.747-14.571z"/><path d="m214.196 477.826v-26.591c0-12.773-7.15-24.428-18.47-30.344-4.697-2.455-9.275-5.104-13.725-7.938-9.483-6.039-21.197-7.084-31.422-2.92 1.968.792 3.885 1.755 5.714 2.92 4.45 2.834 9.028 5.483 13.725 7.938 11.32 5.917 18.47 17.571 18.47 30.344v26.591c0 18.874 15.3 34.174 34.174 34.174h25.708c-18.874 0-34.174-15.3-34.174-34.174z"/></g></g><g><path d="m347.582 199.135c4.267-8.599.753-19.021-7.846-23.288l-26.907-13.328c-8.599-4.267-19.021-.753-23.288 7.846l-53.247 107.432-25.93-43.366c-4.927-8.243-15.587-10.924-23.83-5.997l-25.771 15.402c-8.229 4.927-10.924 15.587-5.997 23.83l51.094 85.464c3.263 5.455 9.247 8.705 15.587 8.454l36.22-1.427c6.354-.251 12.06-3.95 14.874-9.643z" fill="#95d6a4"/><g fill="#78c2a4"><path d="m247.125 295.912 62.225-125.547c1.388-2.797 3.433-5.044 5.848-6.672l-2.37-1.174c-8.599-4.267-19.021-.753-23.288 7.846l-53.247 107.432z"/><path d="m225.669 353.13-51.094-85.464c-4.927-8.243-2.232-18.903 5.997-23.83l24.737-14.784c-5.427-3.74-12.744-4.224-18.775-.618l-25.771 15.402c-8.229 4.927-10.924 15.587-5.997 23.83l51.094 85.464c3.263 5.455 9.247 8.705 15.587 8.454l14.678-.578c-4.311-1.149-8.096-3.931-10.456-7.876z"/></g></g></g></svg>