<svg id="Capa_1" enable-background="new 0 0 512 512" height="512" viewBox="0 0 512 512" width="512" xmlns="http://www.w3.org/2000/svg"><g><path d="m470.569 198.506c14.088-19.503 16.323-46.231 3.514-68.417-12.809-22.185-37.073-33.614-61.008-31.165 2.449-23.934-8.98-48.199-31.165-61.008-22.185-12.809-48.913-10.574-68.417 3.514-9.846-21.952-31.875-37.251-57.493-37.251-25.617 0-47.647 15.299-57.494 37.252-19.503-14.088-46.231-16.323-68.417-3.514-22.185 12.808-33.614 37.073-31.165 61.007-23.934-2.449-48.199 8.98-61.008 31.165-12.809 22.185-10.574 48.913 3.514 68.417-21.951 9.846-10.255 31.876-10.255 57.494 0 25.617-11.697 47.647 10.256 57.494-14.088 19.503-16.323 46.231-3.514 68.417 12.809 22.185 37.073 33.614 61.008 31.165-2.449 23.934 8.98 48.199 31.165 61.008 22.185 12.809 48.913 10.574 68.417-3.514 9.846 21.952 31.876 37.252 57.494 37.252 25.617 0 47.647-15.299 57.494-37.252 19.503 14.088 46.231 16.323 68.417 3.514 22.185-12.809 33.614-37.073 31.165-61.008 23.934 2.449 48.199-8.98 61.008-31.165 12.809-22.185 10.574-48.913-3.514-68.417 21.952-9.846 3.978-31.876 3.978-57.494-.002-25.617 17.972-47.647-3.98-57.494z" fill="#95d6a4"/><circle cx="259.421" cy="256" fill="#d6f6b2" r="185.871"/><path d="m288.991 439.53c-9.627 1.54-19.507 2.341-29.57 2.341-102.653 0-185.871-83.217-185.871-185.871s83.218-185.871 185.871-185.871c10.063 0 19.943.801 29.57 2.341-88.598 14.167-156.301 90.939-156.301 183.53s67.703 169.363 156.301 183.53z" fill="#b3e59f"/><path d="m125.6 92.524c0 2.128.101 4.266.324 6.404-23.936-2.452-48.196 8.978-61.005 31.161-5.726 9.921-8.451 20.744-8.451 31.424 0 13.214 4.165 26.206 11.958 36.988-21.949 9.85-37.251 31.88-37.251 57.498 0 12.809 3.83 24.726 10.397 34.657 6.567 9.951 15.879 17.916 26.854 22.841-14.086 19.497-16.315 46.23-3.506 68.412 11.664 20.206 32.833 31.485 54.6 31.485 2.128 0 4.266-.101 6.404-.324-2.452 23.936 8.978 48.206 31.161 61.015 5.746 3.314 11.785 5.624 17.937 6.972-4.428.973-8.958 1.469-13.518 1.469-10.681 0-21.504-2.716-31.414-8.441-22.183-12.809-33.613-37.079-31.161-61.015-2.138.223-4.276.324-6.404.324-21.767 0-42.946-11.279-54.61-31.485-12.809-22.183-10.569-48.915 3.516-68.412-10.975-4.925-20.288-12.89-26.854-22.841-6.567-9.93-.437-21.847-.437-34.656 0-25.618 5.341-47.648 27.291-57.498-7.793-10.782-11.958-23.784-11.958-36.998 0-10.681 2.716-21.504 8.441-31.414 12.809-22.183 37.079-33.613 61.015-31.161-.223-2.138-.324-4.276-.324-6.404 0-21.767 11.279-42.946 31.485-54.61 14.147-8.168 30.137-10.215 44.933-6.972-6.151 1.348-12.191 3.658-17.937 6.972-20.207 11.663-31.486 32.842-31.486 54.609z" fill="#78c2a4"/><path d="m290.434 398.987c-3.463 0-6.592-2.382-7.4-5.9-.94-4.091 1.614-8.169 5.705-9.109 23.68-5.441 45.338-17.458 62.632-34.752 2.969-2.968 7.78-2.968 10.749 0 2.968 2.968 2.968 7.78 0 10.748-19.314 19.314-43.511 32.737-69.977 38.818-.573.132-1.145.195-1.709.195z" fill="#b3e59f"/><path d="m224.821 398.112c-.629 0-1.269-.079-1.906-.243-24.958-6.446-47.847-19.55-66.192-37.895-2.968-2.968-2.968-7.78 0-10.748s7.78-2.968 10.748 0c16.427 16.426 36.913 28.157 59.245 33.925 4.064 1.05 6.508 5.195 5.458 9.259-.885 3.428-3.971 5.702-7.353 5.702z" fill="#b3e59f"/><path d="m504.4 313.494h-496.8v-114.988h496.8" fill="#f8f6f9"/><path d="m28.062 313.494h-20.462v-114.988h20.462" fill="#dddaec"/><path d="m504.4 313.494h-20.462v-114.988h20.462" fill="#dddaec"/><g fill="#b3e59f"><path d="m504.4 206.106h-496.8c-4.197 0-7.6-3.403-7.6-7.6s3.403-7.6 7.6-7.6h496.8c4.198 0 7.6 3.403 7.6 7.6s-3.402 7.6-7.6 7.6z"/><path d="m504.396 321.098h-496.792c-4.197 0-7.6-3.403-7.6-7.6s3.403-7.6 7.6-7.6h496.792c4.198 0 7.6 3.403 7.6 7.6 0 4.198-3.402 7.6-7.6 7.6z"/><path d="m162.099 167.555c-1.945 0-3.89-.742-5.374-2.226-2.968-2.968-2.968-7.78 0-10.748 19.313-19.314 43.511-32.737 69.976-38.818 4.09-.941 8.169 1.614 9.109 5.705s-1.615 8.169-5.705 9.109c-23.681 5.441-45.339 17.458-62.632 34.752-1.484 1.484-3.429 2.226-5.374 2.226z"/><path d="m356.746 167.555c-1.946 0-3.89-.742-5.375-2.226-16.223-16.223-36.435-27.883-58.452-33.718-4.057-1.075-6.474-5.236-5.399-9.294 1.076-4.057 5.231-6.475 9.294-5.4 24.607 6.522 47.189 19.546 65.307 37.663 2.968 2.968 2.968 7.78-.001 10.748-1.484 1.485-3.43 2.227-5.374 2.227z"/></g><path d="m259.546 149.719c-2.153 0-4.22-.916-5.669-2.54l-12.615-14.135c-2.795-3.132-2.522-7.936.61-10.731 3.131-2.795 7.935-2.522 10.731.61l5.763 6.459 16.828-27.83c2.172-3.593 6.844-4.742 10.436-2.571 3.591 2.172 4.743 6.844 2.571 10.436l-22.151 36.634c-1.361 2.267-3.861 3.676-6.504 3.668z" fill="#95d6a4"/><path d="m259.546 411.465c-2.153 0-4.22-.916-5.669-2.54l-12.615-14.135c-2.795-3.132-2.522-7.936.61-10.731 3.131-2.795 7.935-2.522 10.731.61l5.763 6.459 16.828-27.83c2.172-3.593 6.844-4.743 10.436-2.571 3.591 2.172 4.743 6.844 2.571 10.436l-22.151 36.634c-1.248 2.064-3.401 3.413-5.802 3.635-.234.023-.469.033-.702.033z" fill="#95d6a4"/><g fill="#78c2a4"><path d="m57.939 225.949c-.027-.07-.054-.14-.083-.209-1.375-3.341-4.596-5.499-8.208-5.499-.003 0-.007 0-.011 0-3.616.004-6.837 2.17-8.206 5.518-.023.057-.046.114-.067.171l-21.147 55.523c-1.494 3.923.475 8.314 4.397 9.808 3.923 1.495 8.314-.475 9.808-4.397l3.402-8.933h23.485l3.363 8.912c1.149 3.044 4.041 4.919 7.112 4.919.891 0 1.799-.158 2.682-.492 3.927-1.482 5.909-5.867 4.428-9.794zm-14.326 36.781 6.007-15.772 5.952 15.772z"/><path d="m427.285 235.699c4.198 0 7.6-3.403 7.6-7.6s-3.402-7.6-7.6-7.6h-23.512c-4.198 0-7.6 3.403-7.6 7.6v55.803c0 4.197 3.402 7.6 7.6 7.6h23.512c4.198 0 7.6-3.403 7.6-7.6s-3.402-7.6-7.6-7.6h-15.912v-12.702h14.179c4.198 0 7.6-3.403 7.6-7.6s-3.402-7.6-7.6-7.6h-14.179v-12.701z"/><path d="m467.678 221.074h-15.478c-2.018 0-3.954.803-5.38 2.231-1.425 1.428-2.225 3.365-2.221 5.383l.111 54.664c.007 2.016.815 3.946 2.246 5.367 1.423 1.413 3.348 2.206 5.354 2.206h.029c.468-.002 11.509-.045 15.924-.121 16.853-.295 29.085-14.932 29.085-34.804 0-20.89-11.923-34.926-29.67-34.926zm.32 54.532c-1.879.033-5.085.059-8.113.079-.021-6.41-.06-32.735-.071-39.411h7.864c13.426 0 14.469 15.098 14.469 19.725 0 13.374-7.106 19.484-14.149 19.607z"/><path d="m380.461 220.733c-3.979-1.323-8.285.833-9.608 4.816l-12.511 37.658-13.141-37.858c-1.376-3.965-5.708-6.066-9.671-4.688-3.965 1.376-6.064 5.707-4.688 9.672l19.274 55.525c1.257 3.535 4.611 5.9 8.358 5.9h.062c3.772-.026 7.122-2.444 8.353-6.066l18.388-55.351c1.324-3.983-.833-8.285-4.816-9.608z"/><path d="m249.23 242.478c0-12.261-10.346-22.236-23.064-22.236h-14.966c-2.02 0-3.957.804-5.383 2.235s-2.224 3.37-2.217 5.39c0 .001-.018 56.292-.018 56.292 0 4.197 3.403 7.6 7.6 7.6s7.6-3.403 7.6-7.6v-14.456l17.143 19.478c2.781 3.16 7.588 3.449 10.726.684 3.151-2.773 3.457-7.576.684-10.727l-13.741-15.613c9.083-2.989 15.636-11.292 15.636-21.047zm-23.064 7.036c-1.72 0-4.561.011-7.303.024-.013-2.666-.031-11.299-.039-14.096h7.342c4.263 0 7.864 3.222 7.864 7.036 0 3.813-3.602 7.036-7.864 7.036z"/><path d="m112.959 220.241h-15.681c-2.02 0-3.957.804-5.383 2.235s-2.224 3.37-2.218 5.39v56.293c0 4.197 3.403 7.6 7.6 7.6s7.6-3.403 7.6-7.6v-16.903c2.999-.015 6.19-.028 8.081-.028 13.126 0 23.804-10.539 23.804-23.493s-10.677-23.494-23.803-23.494zm0 31.786c-1.878 0-5.03.013-8.013.028-.015-3.092-.037-13.371-.046-16.613h8.058c4.664 0 8.604 3.797 8.604 8.292s-3.94 8.293-8.603 8.293z"/><path d="m170.542 220.241h-15.681c-2.02 0-3.957.804-5.383 2.235s-2.224 3.37-2.218 5.39v56.293c0 4.197 3.403 7.6 7.6 7.6s7.6-3.403 7.6-7.6v-16.903c2.999-.015 6.19-.028 8.081-.028 13.125 0 23.804-10.539 23.804-23.493s-10.677-23.494-23.803-23.494zm0 31.786c-1.878 0-5.031.013-8.013.028-.015-3.092-.037-13.371-.046-16.613h8.059c4.664 0 8.603 3.797 8.603 8.292s-3.939 8.293-8.603 8.293z"/><path d="m291.603 220.241c-19.717 0-35.759 16.041-35.759 35.759s16.042 35.759 35.759 35.759 35.759-16.041 35.759-35.759-16.042-35.759-35.759-35.759zm0 56.317c-11.336 0-20.558-9.222-20.558-20.558s9.222-20.558 20.558-20.558 20.558 9.222 20.558 20.558c.001 11.336-9.222 20.558-20.558 20.558z"/></g></g></svg>