<svg id="Capa_1" enable-background="new 0 0 512 512" height="512" viewBox="0 0 512 512" width="512" xmlns="http://www.w3.org/2000/svg"><g><path d="m341.35 85.35c0-47.137-38.212-85.35-85.35-85.35s-85.35 38.213-85.35 85.35c0 34.193 20.115 63.675 49.151 77.297v93.354h72.4v-93.354c29.034-13.621 49.149-43.104 49.149-77.297z" fill="#d8aa8b"/><path d="m218.027 85.35c0 34.191 8.952 63.675 21.871 77.294v93.354h-20.099v-93.354c-29.03-13.619-49.149-43.102-49.149-77.294 0-47.141 38.209-85.35 85.35-85.35-20.965.001-37.973 38.21-37.973 85.35z" fill="#ce9875"/><path d="m348.198 238.097h-184.396c-10.518 0-19.044 8.526-19.044 19.044 0 10.518 8.526 19.044 19.044 19.044l88.003 32.257 96.393-32.257c10.518 0 19.044-8.526 19.044-19.044 0-10.517-8.526-19.044-19.044-19.044z" fill="#407093"/><path d="m451.308 461.428-195.308 25.285-195.308-25.285c-21.479 0-37.197-20.249-31.87-41.057l28.834-112.627c4.754-18.569 21.486-31.557 40.654-31.557h315.379c19.168 0 35.9 12.988 40.654 31.557l28.834 112.627c5.328 20.808-10.39 41.057-31.869 41.057z" fill="#95d6a4"/><path d="m93.281 475.432-32.585-14.008c-21.479 0-37.2-20.253-31.873-41.052l28.834-112.628c4.76-18.574 21.489-31.564 40.651-31.564h67.971c-19.172 0-35.901 12.99-40.651 31.564l-28.835 112.628c-5.336 20.799 10.384 41.052 31.863 41.052z" fill="#78c2a4"/><path d="m198.368 270.606c3.441 3.451 8.2 5.583 13.464 5.583h-48.037c-5.254 0-10.013-2.132-13.464-5.583-3.441-3.441-5.573-8.2-5.573-13.464 0-10.518 8.52-19.038 19.038-19.038h48.037c-10.518 0-19.048 8.52-19.048 19.038-.001 5.264 2.132 10.023 5.583 13.464z" fill="#365e7d"/><path d="m476.731 461.428h-441.462c-13.483 0-24.413 10.93-24.413 24.413v1.744c0 13.483 10.93 24.413 24.413 24.413h441.463c13.483 0 24.413-10.93 24.413-24.413v-1.744c-.001-13.483-10.931-24.413-24.414-24.413z" fill="#407093"/><path d="m118.065 512h-82.794c-13.485 0-24.415-10.93-24.415-24.415v-1.741c0-13.485 10.93-24.415 24.415-24.415h82.795c-13.485 0-24.415 10.93-24.415 24.415v1.741c-.001 13.485 10.929 24.415 24.414 24.415z" fill="#365e7d"/><g><path d="m56.331 412.652c.905.345 1.835.508 2.75.508 3.113 0 6.047-1.896 7.221-4.978l2.59-6.801h18.27l2.558 6.779c1.506 3.993 5.966 6.008 9.957 4.501 3.992-1.507 6.007-5.964 4.5-9.957l-17.846-47.29c-.026-.069-.053-.138-.081-.207-1.363-3.321-4.562-5.465-8.152-5.465-.001 0-.004 0-.005 0-3.592.002-6.792 2.152-8.152 5.476-.024.058-.047.117-.069.176l-18.01 47.288c-1.52 3.987.482 8.451 4.469 9.97zm25-26.724h-6.553l3.291-8.642z" fill="#365e7d"/><g fill="#407093"><path d="m379.695 412.939h20.026c4.268 0 7.727-3.459 7.727-7.727s-3.459-7.727-7.727-7.727h-12.299v-8.31h10.823c4.268 0 7.727-3.459 7.727-7.727 0-4.267-3.459-7.727-7.727-7.727h-10.823v-8.31h12.299c4.268 0 7.727-3.459 7.727-7.727s-3.459-7.727-7.727-7.727h-20.026c-4.268 0-7.727 3.459-7.727 7.727v47.526c.001 4.27 3.46 7.729 7.727 7.729z"/><path d="m413.308 404.75c-.067 4.152 3.605 7.796 7.756 7.699.399-.001 9.811-.038 13.579-.104 15.067-.263 26.003-13.256 26.003-30.895 0-18.541-10.658-30.999-26.523-30.999h-13.183c-4.156-.082-7.817 3.585-7.727 7.741zm20.814-38.846c10.272 0 11.07 11.899 11.07 15.546 0 7.593-3.345 15.314-10.819 15.444-1.337.023-3.467.043-5.638.059-.016-5.305-.045-25.516-.054-31.049z"/><path d="m332.816 407.301c1.249 3.51 4.58 5.857 8.3 5.857h.059c3.745-.025 7.072-2.424 8.298-6.024l15.66-47.141c1.346-4.05-.847-8.423-4.896-9.768-4.046-1.345-8.423.847-9.768 4.896l-9.491 28.57-9.982-28.756c-1.399-4.031-5.804-6.166-9.832-4.765-4.031 1.399-6.165 5.802-4.766 9.833z"/><path d="m215.672 413.158c4.268 0 7.727-3.459 7.727-7.727v-8.99l12.406 14.095c2.828 3.212 7.714 3.506 10.905.695 3.203-2.819 3.514-7.702.695-10.905l-10.514-11.945c7.318-3.145 12.44-10.224 12.44-18.448 0-11.134-9.374-20.192-20.898-20.192h-12.745c-4.16-.082-7.823 3.592-7.727 7.752 0 .001-.016 47.938-.016 47.938.001 4.267 3.46 7.727 7.727 7.727zm12.761-47.964c2.9 0 5.445 2.214 5.445 4.739 0 2.524-2.544 4.739-5.445 4.739-1.204 0-3.054.006-4.972.015-.009-1.842-.019-7.553-.024-9.492h4.996z"/><path d="m132.015 349.738h-13.351c-4.155-.07-7.828 3.594-7.727 7.757v47.935c0 4.265 3.462 7.727 7.727 7.727s7.727-3.461 7.727-7.727v-13.145c2.153-.01 4.275-.021 5.625-.021 11.868 0 21.531-9.54 21.531-21.263s-9.664-21.263-21.532-21.263zm0 27.074c-1.339 0-3.431.01-5.573.021-.01-2.236-.021-9.292-.031-11.641h5.604c3.297 0 6.078 2.668 6.078 5.81.001 3.152-2.781 5.81-6.078 5.81z"/></g><path d="m114.574 350.923-3.637 6.573c-.029-2.645 1.388-5.197 3.637-6.573z" fill="#365e7d"/><path d="m167.706 413.158c4.268 0 7.727-3.459 7.727-7.727v-13.148c2.155-.01 4.28-.018 5.629-.018 11.869 0 21.527-9.538 21.527-21.262s-9.657-21.262-21.527-21.262h-13.355c-4.16-.082-7.821 3.592-7.727 7.751v47.939c-.001 4.267 3.458 7.727 7.726 7.727zm13.355-47.964c3.292 0 6.074 2.66 6.074 5.809s-2.782 5.809-6.074 5.809c-1.339 0-3.439.008-5.578.018-.01-2.234-.023-9.286-.029-11.635h5.607z" fill="#407093"/><path d="m284.165 413.158c17.484 0 31.709-14.224 31.709-31.708s-14.225-31.708-31.709-31.708-31.708 14.224-31.708 31.708 14.223 31.708 31.708 31.708zm0-47.964c8.964 0 16.256 7.292 16.256 16.255s-7.292 16.255-16.256 16.255c-8.963 0-16.255-7.292-16.255-16.255s7.292-16.255 16.255-16.255z" fill="#407093"/></g></g></svg>