<svg id="Capa_1" enable-background="new 0 0 512 512" height="512" viewBox="0 0 512 512" width="512" xmlns="http://www.w3.org/2000/svg"><g><g><path d="m255.996 378.375-42.928 57.278-43.731 58.349c-8.911 11.889-22.417 17.998-36.005 17.998-11.435 0-22.922-4.327-31.771-13.166-12.197-12.207-15.906-29.658-11.167-45.08-4.327 1.329-8.808 1.998-13.3 1.998-11.497 0-22.994-4.378-31.771-13.155-19.347-19.357-17.07-51.365 4.832-67.776l25.466-19.089 90.151-67.57 41.444 41.434z" fill="#d6f6b2"/><g fill="#b3e59f"><path d="m187.787 310.176-90.151 67.57-25.466 19.089c-17.503 13.114-22.468 36.19-13.887 54.806-4.698-2.163-9.097-5.182-12.96-9.045-19.347-19.357-17.07-51.365 4.831-67.776l25.466-19.089 90.151-67.57z"/><path d="m207.217 329.596 48.779 48.779-42.928 57.278c-1.998-2.802-3.729-5.81-5.151-8.983-9.024 6.521-19.903 10.003-30.957 10.003-8.932 0-17.977-2.266-26.27-7.057-18.554-10.714-28.114-31.008-26.064-51.025-1.782.186-3.564.268-5.336.268-17.029 0-33.615-8.241-43.669-23.127l90.151-67.57z"/></g></g><g><path d="m466.668 442.596c-8.777 8.777-20.274 13.155-31.771 13.155-4.492 0-8.973-.669-13.3-1.998 4.749 15.422 1.04 32.873-11.157 45.08-8.849 8.84-20.335 13.167-31.77 13.167-13.588 0-27.094-6.109-36.005-17.997l-43.731-58.349-42.938-57.278 41.434-41.434 7.355-7.345 41.434-41.434 90.161 67.57 25.466 19.089c21.902 16.41 24.179 48.417 4.822 67.774z" fill="#d6f6b2"/><g fill="#b3e59f"><path d="m402.197 488.471c6.037 0 12.084-1.205 17.75-3.637-2.184 5.089-5.357 9.849-9.509 14-8.849 8.839-20.336 13.166-31.771 13.166-13.588 0-27.094-6.109-36.005-17.997l-43.731-58.349-42.938-57.278 23.529-23.529 42.938 57.278 43.731 58.35c8.912 11.887 22.417 17.996 36.006 17.996z"/><path d="m436.381 355.732c-11.105 16.442-30.174 24.776-49.006 22.86.185 1.782.278 3.574.278 5.357 0 18.203-9.447 35.912-26.342 45.667-18.553 10.714-40.908 8.839-57.226-2.946-1.422 3.173-3.152 6.181-5.151 8.983l-42.938-57.278 41.434-41.434 7.355-7.345 41.434-41.434z"/></g></g><path d="m435.46 162.531c11.783-16.312 13.652-38.667 2.939-57.222-10.713-18.555-31.007-28.114-51.025-26.066 2.048-20.018-7.51-40.312-26.066-51.025-18.555-10.713-40.91-8.844-57.222 2.939-8.235-18.361-26.66-31.157-48.086-31.157-21.426 0-39.851 12.796-48.086 31.156-16.312-11.783-38.667-13.652-57.222-2.939-18.555 10.713-28.114 31.007-26.066 51.025-20.018-2.048-40.312 7.51-51.025 26.066-10.713 18.555-8.844 40.91 2.939 57.222-18.36 8.235-31.156 26.66-31.156 48.086 0 21.426 12.796 39.851 31.156 48.086-11.783 16.312-13.652 38.667-2.939 57.222 10.713 18.555 31.007 28.114 51.025 26.066-2.048 20.018 7.51 40.312 26.066 51.025 18.555 10.713 40.91 8.844 57.222-2.939 8.235 18.36 26.66 31.156 48.086 31.156 21.426 0 39.851-12.796 48.086-31.156 16.312 11.783 38.667 13.652 57.222 2.939 18.555-10.713 28.114-31.007 26.066-51.025 20.018 2.048 40.312-7.51 51.025-26.066 10.713-18.555 8.844-40.91-2.939-57.222 18.36-8.235 31.156-26.66 31.156-48.086.001-21.425-12.795-39.85-31.156-48.085z" fill="#f8f6f9"/><path d="m146.937 73.89c0 1.78.085 3.568.271 5.357-20.019-2.051-40.31 7.509-51.023 26.062-4.789 8.298-7.069 17.349-7.069 26.283 0 11.052 3.483 21.918 10.001 30.936-18.358 8.238-31.156 26.664-31.156 48.09 0 10.713 3.204 20.68 8.696 28.986 5.492 8.323 13.281 14.985 22.46 19.104-11.781 16.307-13.646 38.665-2.933 57.218 9.755 16.9 27.461 26.333 45.666 26.333 1.78 0 3.568-.085 5.357-.271-2.051 20.019 7.509 40.318 26.062 51.031 4.806 2.772 9.857 4.704 15.002 5.831-3.704.814-7.492 1.229-11.306 1.229-8.933 0-17.985-2.271-26.274-7.06-18.553-10.713-28.113-31.012-26.062-51.031-1.788.186-3.577.271-5.357.271-18.205 0-35.919-9.433-45.675-26.333-10.713-18.553-8.84-40.911 2.941-57.218-9.179-4.119-16.968-10.781-22.46-19.104-5.492-8.306-8.696-18.273-8.696-28.986 0-21.426 12.798-39.852 31.156-48.09-6.518-9.018-10.001-19.892-10.001-30.944 0-8.933 2.271-17.985 7.06-26.274 10.713-18.553 31.012-28.113 51.031-26.062-.186-1.788-.271-3.577-.271-5.357 0-18.205 9.433-35.919 26.333-45.675 11.832-6.831 25.206-8.543 37.581-5.831-5.145 1.127-10.196 3.06-15.002 5.831-16.899 9.754-26.332 27.468-26.332 45.674z" fill="#dddaec"/><circle cx="258.861" cy="210.617" fill="#95d6a4" r="144.463"/><path d="m285.876 352.559c-8.75 1.654-17.784 2.52-27.015 2.52-79.785 0-144.463-64.678-144.463-144.463s64.679-144.462 144.463-144.462c9.231 0 18.265.866 27.015 2.52-66.876 12.649-117.456 71.389-117.456 141.942s50.581 129.294 117.456 141.943z" fill="#78c2a4"/><g><path d="m332.578 163.357c3.251-6.553.574-14.496-5.979-17.747l-20.505-10.157c-6.553-3.251-14.496-.574-17.747 5.979l-40.577 81.869-19.76-33.048c-3.755-6.281-11.878-8.325-18.16-4.57l-19.639 11.737c-6.271 3.755-8.325 11.878-4.57 18.16l38.937 65.129c2.486 4.157 7.046 6.634 11.878 6.442l27.602-1.087c4.842-.191 9.191-3.01 11.335-7.348z" fill="#f8f6f9"/></g></g></svg>