<svg id="Capa_1" enable-background="new 0 0 511.998 511.998" height="512" viewBox="0 0 511.998 511.998" width="512" xmlns="http://www.w3.org/2000/svg"><g><path d="m242.166 312.278h-139.488c-52.504 0-95.067 42.563-95.067 95.067 0 52.504 42.563 95.067 95.067 95.067h139.488c52.504 0 95.067-42.563 95.067-95.067 0-52.505-42.563-95.067-95.067-95.067z" fill="#eab1b7"/><path d="m242.166 510.023h-139.488c-56.617 0-102.678-46.062-102.678-102.679s46.061-102.678 102.678-102.678h139.488c56.617 0 102.679 46.061 102.679 102.678s-46.062 102.679-102.679 102.679zm-139.488-190.134c-48.223 0-87.455 39.232-87.455 87.455s39.232 87.456 87.455 87.456h139.488c48.223 0 87.456-39.232 87.456-87.455s-39.233-87.455-87.456-87.455h-139.488z" fill="#dd636e"/><g><path d="m422.162 325.001-233.078-233.078-45.973 45.973c-37.126 37.126-37.126 97.319 0 134.445l98.633 98.633c37.126 37.126 97.319 37.126 134.445 0z" fill="#407093"/><path d="m182.335 177.113c-37.066 37.066-37.129 97.136-.166 134.275l-39.058-39.047c-37.129-37.128-37.129-97.322 0-134.441l45.975-45.975 39.224 39.224z" fill="#365e7d"/><path d="m422.162 190.556-98.633-98.633c-37.126-37.126-97.319-37.126-134.445 0-37.126 37.126-37.126 97.319 0 134.445l98.633 98.633c37.126 37.126 97.319 37.126 134.445 0 37.126-37.126 37.126-97.319 0-134.445z" fill="#dd636e"/><path d="m364.823 133.211c-37.129-37.118-97.312-37.118-134.441 0-18.564 18.564-27.847 42.895-27.847 67.225s9.282 48.661 27.847 67.225l-41.298-41.298c-18.564-18.564-27.836-42.885-27.836-67.215 0-24.331 9.272-48.661 27.836-67.226 37.129-37.129 97.323-37.129 134.451 0z" fill="#da4a54"/><path d="m348.897 223.964 31.863-31.864c34.415 12.436 74.408 5 102.147-22.35 38.589-38.048 38.82-100.755.5-139.074-38.27-38.268-100.306-38.267-138.575.002-27.757 27.757-35.359 68.025-22.848 102.648l-31.863 31.863c-16.23 16.23-16.23 42.545 0 58.775 16.231 16.23 42.545 16.23 58.776 0z" fill="#d8aa8b"/><path d="m290.114 223.966c-16.229-16.229-16.229-42.542.007-58.778l31.864-31.864c-12.518-34.621-4.913-74.89 22.844-102.647 38.266-38.266 100.3-38.273 138.573 0-16.053-16.053-60.083 1.958-98.349 40.224-27.757 27.757-44.844 58.543-46.01 79.48l-31.864 31.864c-16.236 16.237-23.87 34.916-17.065 41.721z" fill="#ce9875"/></g><path d="m154.649 407.344 24.979-24.979c4.215-4.215 4.215-11.048 0-15.263l-13.97-13.97c-4.215-4.215-11.048-4.215-15.263 0l-24.979 24.979-24.979-24.979c-4.215-4.215-11.048-4.215-15.263 0l-13.97 13.97c-4.215 4.215-4.215 11.048 0 15.263l24.979 24.979-24.979 24.979c-4.215 4.215-4.215 11.048 0 15.263l13.97 13.97c4.215 4.215 11.048 4.215 15.263 0l24.979-24.979 24.979 24.979c4.215 4.215 11.048 4.215 15.263 0l13.97-13.97c4.215-4.215 4.215-11.048 0-15.263z" fill="#dd636e"/></g></svg>