<svg id="Capa_1" enable-background="new 0 0 512 512" height="512" viewBox="0 0 512 512" width="512" xmlns="http://www.w3.org/2000/svg"><g><path d="m56.645 384.961 24.268-169.794c9.547-66.797 77.099-108.774 141.217-87.752l38.566 12.644" fill="#ffcbbe"/><path d="m56.511 395.758h215.072v116.242h-215.072z" fill="#bed8fb"/><path d="m56.511 395.758h68.098v116.242h-68.098z" fill="#9dc6fb"/><g><path d="m310.064 251.063 55.23 55.23 79.212-79.212c15.251-15.251 15.251-39.979 0-55.23-15.251-15.251-39.979-15.251-55.23 0z" fill="#ffddce"/><path d="m453.106 184.831c-4.677-1.885-9.653-2.833-14.629-2.833-9.993 0-19.986 3.812-27.609 11.435l-79.211 79.221-21.593-21.593 79.211-79.211c7.623-7.623 17.616-11.445 27.609-11.445 10.003 0 19.996 3.822 27.619 11.445 3.833 3.833 6.707 8.253 8.603 12.981z" fill="#ffcbbe"/></g><g><path d="m310.064 160.623 55.23 55.23 79.212-79.212c15.251-15.251 15.251-39.979 0-55.23-15.251-15.251-39.979-15.251-55.23 0z" fill="#ffddce"/><path d="m453.126 94.432c-4.677-1.895-9.643-2.833-14.608-2.833-9.993 0-19.986 3.812-27.619 11.435l-79.211 79.211-21.623-21.623 79.211-79.211c7.623-7.634 17.616-11.445 27.609-11.445 10.003 0 19.996 3.812 27.619 11.445 3.842 3.842 6.717 8.282 8.622 13.021z" fill="#ffcbbe"/></g><path d="m118.868 200.616h236.378v144.508c0 56.36-45.689 102.049-102.049 102.049h-134.329z" fill="#ffcbbe"/><path d="m349.555 0h-201.116c-27.186 0-49.224 22.038-49.224 49.224v302.73c0 27.186 22.038 49.224 49.224 49.224h201.116c27.186 0 49.224-22.038 49.224-49.224v-302.73c0-27.186-22.039-49.224-49.224-49.224z" fill="#407093"/><path d="m176.351 401.178h-27.913c-27.186 0-49.223-22.037-49.223-49.223v-302.731c0-27.186 22.037-49.223 49.223-49.223h27.913c-27.178 0-49.223 22.037-49.223 49.223v302.732c0 27.186 22.044 49.222 49.223 49.222z" fill="#365e7d"/><path d="m366.494 60.362v280.453c0 15.506-12.568 28.074-28.074 28.074h-178.843c-15.498 0-28.074-12.568-28.074-28.074v-280.453c0-15.506 12.576-28.074 28.074-28.074h27.42v1.323c0 16.031 12.996 29.027 29.027 29.027h65.956c16.031 0 29.027-12.996 29.027-29.027v-1.323h27.413c15.506 0 28.074 12.568 28.074 28.074z" fill="#dd636e"/><path d="m186.425 368.889h-26.847c-15.498 0-28.074-12.568-28.074-28.074v-280.453c0-15.506 12.576-28.074 28.074-28.074h26.847c-15.498 0-28.074 12.568-28.074 28.074v280.453c-.001 15.506 12.575 28.074 28.074 28.074z" fill="#da4a54"/><path d="m281.208 40.014h-64.423c-4.268 0-7.726-3.459-7.726-7.726s3.459-7.726 7.726-7.726h64.423c4.268 0 7.726 3.459 7.726 7.726s-3.458 7.726-7.726 7.726z" fill="#365e7d"/><path d="m63.011 340.424c2.211-15.471 9.38-29.807 20.431-40.858l57.561-57.561 2.332-2.332c7.79-7.79 17.919-11.802 28.127-12.061 14.353-1.396 29.194 3.401 40.186 14.394 19.508 19.508 19.508 51.137 0 70.645l-46.878 46.878c8.303 24.268 2.789 52.216-16.572 71.577-.565.565-1.137 1.118-1.716 1.659-36.985 34.568-97 2.313-89.837-47.802z" fill="#ffddce"/><path d="m191.596 229.751c-5.841 1.968-11.322 5.264-15.978 9.921l-59.895 59.895c-11.043 11.053-18.213 25.383-20.428 40.856l-6.366 44.535c-4.162 29.113 14.34 52.199 37.839 59.658-35.191 11.621-76.11-17.781-70.124-59.658l6.367-44.535c2.215-15.473 9.385-29.803 20.439-40.857l57.554-57.566 2.328-2.328c7.799-7.788 17.925-11.806 28.134-12.063 6.748-.66 13.62.061 20.13 2.142z" fill="#ffcbbe"/><g><path d="m278.9 148.2 25.55-25.55c4.311-4.311 4.311-11.301 0-15.612l-14.29-14.289c-4.311-4.311-11.301-4.311-15.612 0l-25.55 25.55-25.55-25.55c-4.311-4.311-11.301-4.311-15.612 0l-14.289 14.289c-4.311 4.311-4.311 11.301 0 15.612l25.55 25.55-25.55 25.55c-4.311 4.311-4.311 11.301 0 15.612l14.289 14.289c4.311 4.311 11.301 4.311 15.612 0l25.55-25.55 25.55 25.55c4.311 4.311 11.301 4.311 15.612 0l14.289-14.289c4.311-4.311 4.311-11.301 0-15.612z" fill="#f8f6f9"/></g></g></svg>