<svg id="Capa_1" enable-background="new 0 0 512 512" height="512" viewBox="0 0 512 512" width="512" xmlns="http://www.w3.org/2000/svg"><g><path d="m241.24 132.149-158.088 77.838c-22.932 11.291-36.878 35.21-35.409 60.729l4.272 74.203-45.078 45.077 122.004 122.004 92.2-92.2-22.184-22.184z" fill="#ffddce"/><path d="m241.241 132.148-4.498 28.258-100.698 49.581c-22.928 11.295-36.879 35.214-35.412 60.728l4.28 74.203-71.528 71.528-26.455-26.445 45.083-45.083-4.271-74.203c-1.476-25.514 12.475-49.432 35.402-60.728z" fill="#ffcbbe"/><path d="m466.161 0h-237.161c-21.488 0-38.908 17.42-38.908 38.908v272.573c0 21.488 17.42 38.908 38.908 38.908h237.162c21.488 0 38.908-17.42 38.908-38.908v-272.573c0-21.488-17.42-38.908-38.909-38.908z" fill="#f8f6f9"/><g fill="#407093"><path d="m459.706 250.669h-121.903c-4.267 0-7.727-3.459-7.727-7.727s3.459-7.727 7.727-7.727h121.903c4.267 0 7.727 3.459 7.727 7.727s-3.46 7.727-7.727 7.727z"/><path d="m415.465 277.488h-77.662c-4.267 0-7.727-3.459-7.727-7.727s3.459-7.727 7.727-7.727h77.662c4.267 0 7.727 3.459 7.727 7.727s-3.459 7.727-7.727 7.727z"/></g><path d="m256.374 229.027-91.631 91.631c-26.757 26.757-26.757 70.138 0 96.895s70.138 26.757 96.895 0c20.007-20.007 25.049-49.308 15.136-74.005l47.061-47.061c18.629-18.629 18.629-48.832 0-67.46-18.63-18.629-48.833-18.629-67.461 0z" fill="#ffddce"/><path d="m164.748 320.653 91.626-91.626c18.636-18.636 48.831-18.636 67.458 0h.01c2.431 2.431 4.553 5.069 6.346 7.85-7.85-5.089-16.875-7.634-25.889-7.634-12.208 0-24.416 4.667-33.729 13.98l-91.626 91.626z" fill="#ffcbbe"/><path d="m254.722 115.12c-2.19 0-4.291-.931-5.764-2.582l-21.144-23.692c-2.841-3.184-2.564-8.068.62-10.909 3.182-2.841 8.067-2.565 10.909.62l14.179 15.888 31.717-52.453c2.209-3.65 6.958-4.821 10.61-2.614 3.651 2.208 4.822 6.958 2.614 10.61l-37.129 61.404c-1.384 2.304-3.925 3.736-6.612 3.728z" fill="#95d6a4"/><g fill="#407093"><path d="m459.706 70.384h-121.903c-4.267 0-7.727-3.459-7.727-7.727 0-4.267 3.459-7.727 7.727-7.727h121.903c4.267 0 7.727 3.459 7.727 7.727s-3.46 7.727-7.727 7.727z"/><path d="m415.465 97.204h-77.662c-4.267 0-7.727-3.459-7.727-7.727s3.459-7.727 7.727-7.727h77.662c4.267 0 7.727 3.459 7.727 7.727s-3.459 7.727-7.727 7.727z"/></g><g fill="#407093"><path d="m459.706 157.168h-121.903c-4.267 0-7.727-3.459-7.727-7.727s3.459-7.727 7.727-7.727h121.903c4.267 0 7.727 3.459 7.727 7.727s-3.46 7.727-7.727 7.727z"/><path d="m415.465 183.987h-77.662c-4.267 0-7.727-3.459-7.727-7.727s3.459-7.727 7.727-7.727h77.662c4.267 0 7.727 3.459 7.727 7.727s-3.459 7.727-7.727 7.727z"/></g><path d="m267.44 166.054 19.404-19.404c3.018-3.017 3.018-7.91 0-10.927-3.017-3.017-7.91-3.017-10.927 0l-19.404 19.404-19.404-19.404c-3.017-3.018-7.91-3.017-10.927 0-3.018 3.017-3.018 7.91 0 10.927l19.404 19.404-19.404 19.404c-3.018 3.017-3.018 7.91 0 10.927 1.509 1.509 3.486 2.263 5.463 2.263s3.955-.755 5.463-2.263l19.404-19.404 19.404 19.404c1.509 1.509 3.486 2.263 5.463 2.263s3.955-.755 5.463-2.263c3.018-3.017 3.018-7.91 0-10.927z" fill="#dd636e"/></g></svg>