<svg id="Capa_1" enable-background="new 0 0 512 512" height="512" viewBox="0 0 512 512" width="512" xmlns="http://www.w3.org/2000/svg"><g><path d="m242.167 312.279h-139.488c-52.504 0-95.067 42.563-95.067 95.067 0 52.504 42.563 95.067 95.067 95.067h139.488c52.504 0 95.067-42.563 95.067-95.067 0-52.504-42.563-95.067-95.067-95.067z" fill="#d6f6b2"/><path d="m242.167 510.025h-139.488c-56.617 0-102.679-46.062-102.679-102.679s46.062-102.679 102.679-102.679h139.488c56.617 0 102.679 46.062 102.679 102.679s-46.062 102.679-102.679 102.679zm-139.488-190.135c-48.223 0-87.456 39.233-87.456 87.456s39.233 87.456 87.456 87.456h139.488c48.224 0 87.456-39.233 87.456-87.456s-39.232-87.456-87.456-87.456z" fill="#95d6a4"/><g><path d="m422.163 325.002-233.078-233.078-45.973 45.973c-37.126 37.126-37.126 97.319 0 134.445l98.633 98.633c37.126 37.126 97.319 37.126 134.445 0z" fill="#407093"/><path d="m182.336 177.114c-37.066 37.066-37.129 97.136-.166 134.275l-39.058-39.047c-37.129-37.129-37.129-97.323 0-134.441l45.975-45.975 39.224 39.224z" fill="#365e7d"/><path d="m422.163 190.557-98.633-98.633c-37.126-37.126-97.319-37.126-134.445 0-37.126 37.126-37.126 97.319 0 134.445l98.633 98.633c37.126 37.126 97.319 37.126 134.445 0 37.126-37.126 37.126-97.319 0-134.445z" fill="#95d6a4"/><path d="m364.824 133.211c-37.129-37.118-97.312-37.118-134.441 0-18.565 18.564-27.847 42.895-27.847 67.226s9.282 48.661 27.847 67.226l-41.298-41.298c-18.564-18.564-27.836-42.885-27.836-67.215 0-24.331 9.272-48.661 27.836-67.226 37.129-37.129 97.323-37.129 134.452 0z" fill="#78c2a4"/><path d="m348.898 223.964 31.863-31.863c34.415 12.436 74.408 5 102.147-22.35 38.589-38.048 38.82-100.755.5-139.074-38.269-38.269-100.305-38.268-138.574.001-27.757 27.757-35.359 68.025-22.848 102.648l-31.863 31.863c-16.23 16.23-16.23 42.545 0 58.775 16.23 16.231 42.545 16.231 58.775 0z" fill="#d8aa8b"/><path d="m290.115 223.967c-16.229-16.229-16.229-42.542.007-58.778l31.864-31.864c-12.518-34.622-4.913-74.89 22.844-102.647 38.266-38.266 100.3-38.274 138.574 0-16.053-16.053-60.083 1.958-98.35 40.224-27.757 27.757-44.844 58.543-46.01 79.481l-31.864 31.864c-16.236 16.236-23.87 34.915-17.065 41.72z" fill="#ce9875"/></g><g><path d="m189.153 363.341c2.748-5.538.485-12.251-5.053-14.999l-17.33-8.584c-5.538-2.748-12.251-.485-14.999 5.053l-34.294 69.192-16.7-27.93c-3.173-5.309-10.039-7.036-15.348-3.862l-16.598 9.92c-5.3 3.173-7.036 10.039-3.862 15.348l32.907 55.044c2.101 3.514 5.955 5.606 10.039 5.445l23.328-.919c4.092-.162 7.767-2.544 9.579-6.211z" fill="#95d6a4"/></g></g></svg>