<svg id="Capa_1" enable-background="new 0 0 512 512" height="512" viewBox="0 0 512 512" width="512" xmlns="http://www.w3.org/2000/svg"><g><g><path d="m481.867 308.446-23.055-13.31c-11.074-6.397-17.585-18.43-17.05-31.215.232-5.243.232-10.601 0-15.844-.536-12.785 5.975-24.817 17.05-31.215l23.055-13.31c16.339-9.436 21.943-30.339 12.507-46.677l-33.337-57.752c-9.436-16.339-30.339-21.943-46.688-12.506l-23.045 13.31c-11.095 6.397-24.797 5.996-35.593-.876-4.45-2.843-9.035-5.491-13.732-7.943-11.322-5.913-18.471-17.575-18.471-30.349v-26.588c0-18.873-15.298-34.171-34.171-34.171h-66.673c-18.873 0-34.171 15.298-34.171 34.171v26.589c0 12.774-7.149 24.436-18.471 30.349-4.698 2.452-9.282 5.1-13.732 7.943-10.796 6.871-24.498 7.273-35.593.876l-23.045-13.31c-16.349-9.437-37.252-3.832-46.688 12.506l-33.337 57.752c-9.436 16.339-3.832 37.241 12.507 46.677l23.055 13.31c11.074 6.397 17.585 18.43 17.05 31.215-.232 5.243-.232 10.601 0 15.844.536 12.785-5.975 24.817-17.05 31.215l-23.055 13.31c-16.339 9.437-21.943 30.339-12.507 46.678l33.337 57.752c9.436 16.339 30.339 21.943 46.688 12.506l23.045-13.31c11.095-6.397 24.797-5.996 35.593.876 4.45 2.843 9.035 5.491 13.732 7.943 11.322 5.913 18.471 17.575 18.471 30.349v26.589c0 18.873 15.298 34.171 34.171 34.171h66.673c18.873 0 34.171-15.298 34.171-34.171v-26.59c0-12.774 7.149-24.436 18.471-30.349 4.698-2.452 9.282-5.1 13.732-7.943 10.796-6.871 24.498-7.273 35.593-.876l23.045 13.31c16.349 9.437 37.252 3.832 46.688-12.506l33.337-57.752c9.436-16.339 3.832-37.241-12.507-46.678zm-225.867 95.395c-81.652 0-147.841-66.189-147.841-147.841s66.189-147.841 147.841-147.841 147.841 66.189 147.841 147.841-66.189 147.841-147.841 147.841z" fill="#f8f6f9"/><g fill="#dddaec"><path d="m182.001 99.047c4.45-2.834 9.028-5.483 13.725-7.938 11.32-5.917 18.47-17.571 18.47-30.344v-26.591c0-18.874 15.3-34.174 34.174-34.174h-25.708c-18.874 0-34.174 15.3-34.174 34.174v26.591c0 12.773-7.151 24.428-18.47 30.344-4.697 2.455-9.275 5.104-13.725 7.938-1.829 1.165-3.746 2.128-5.714 2.92 10.225 4.164 21.939 3.119 31.422-2.92z"/><path d="m76.674 412.871-33.338-57.743c-9.437-16.345-3.837-37.245 12.509-46.682l23.053-13.31c11.075-6.394 17.58-18.432 17.043-31.21-.221-5.251-.221-10.604 0-15.854.537-12.777-5.968-24.815-17.043-31.21l-23.053-13.31c-16.345-9.435-21.945-30.336-12.508-46.681l33.338-57.743c3.958-6.856 9.936-11.812 16.746-14.57-15.565-6.344-33.813-.395-42.453 14.57l-33.338 57.743c-9.437 16.345-3.836 37.245 12.509 46.682l23.053 13.31c11.075 6.394 17.58 18.432 17.043 31.21-.222 5.251-.222 10.604 0 15.854.537 12.777-5.968 24.815-17.043 31.21l-23.053 13.31c-16.345 9.437-21.945 30.337-12.509 46.682l33.338 57.743c8.64 14.965 26.888 20.914 42.453 14.57-6.811-2.759-12.789-7.715-16.747-14.571z"/><path d="m214.196 477.826v-26.591c0-12.773-7.15-24.428-18.47-30.344-4.697-2.455-9.275-5.104-13.725-7.938-9.483-6.039-21.197-7.084-31.422-2.92 1.968.792 3.885 1.755 5.714 2.92 4.45 2.834 9.028 5.483 13.725 7.938 11.32 5.917 18.47 17.571 18.47 30.344v26.591c0 18.874 15.3 34.174 34.174 34.174h25.708c-18.874 0-34.174-15.3-34.174-34.174z"/></g></g><g><path d="m304.252 256 41.23-41.23c6.957-6.957 6.957-18.236 0-25.193l-23.059-23.059c-6.957-6.957-18.236-6.957-25.193 0l-41.23 41.23-41.23-41.23c-6.957-6.957-18.236-6.957-25.193 0l-23.059 23.059c-6.957 6.957-6.957 18.236 0 25.193l41.23 41.23-41.23 41.23c-6.957 6.957-6.957 18.236 0 25.193l23.059 23.059c6.957 6.957 18.236 6.957 25.193 0l41.23-41.23 41.23 41.23c6.957 6.957 18.236 6.957 25.193 0l23.059-23.059c6.957-6.957 6.957-18.236 0-25.193z" fill="#dd636e"/><g fill="#da4a54"><path d="m266.662 218.41 51.893-51.893c.61-.61 1.263-1.147 1.934-1.65-6.978-5.233-16.912-4.696-23.259 1.65l-41.23 41.231z"/><path d="m210.901 345.483-23.059-23.059c-6.957-6.957-6.957-18.236 0-25.193l41.23-41.231-41.23-41.23c-6.957-6.957-6.957-18.236 0-25.193l23.059-23.059c.61-.61 1.263-1.147 1.934-1.65-6.978-5.233-16.912-4.696-23.259 1.65l-23.059 23.059c-6.957 6.957-6.957 18.236 0 25.193l41.23 41.23-41.23 41.231c-6.957 6.957-6.957 18.236 0 25.193l23.059 23.059c6.347 6.347 16.281 6.884 23.259 1.65-.671-.503-1.324-1.04-1.934-1.65z"/><path d="m318.555 345.483-51.893-51.893-10.662 10.662 41.23 41.23c6.347 6.347 16.281 6.884 23.259 1.65-.671-.502-1.324-1.039-1.934-1.649z"/></g></g></g></svg>