<svg id="Capa_1" enable-background="new 0 0 512 512" height="512" viewBox="0 0 512 512" width="512" xmlns="http://www.w3.org/2000/svg"><g><path d="m376.118 456.854c0 15.236-6.171 29.02-16.153 38.992-9.973 9.983-23.767 16.154-38.993 16.154h-138.003c-30.39 0-55.022-24.56-55.146-54.919v-.227c0-15.226 6.171-29.01 16.153-38.992 9.972-9.972 23.766-16.143 38.992-16.143h138.003c30.464 0 55.147 24.683 55.147 55.135z" fill="#f8f6f9"/><path d="m256.009 401.719v55.362h-128.185v-.227c0-15.226 6.171-29.01 16.153-38.992 9.972-9.972 23.766-16.143 38.992-16.143z" fill="#dddaec"/><path d="m434.343 178.339c0-98.494-79.845-178.339-178.338-178.339-98.122 0-177.425 78.536-178.332 176.653-.626 67.696 36.473 126.78 91.55 157.515 30.877 17.231 50.081 49.749 50.081 85.109v1.107c0 20.269 16.431 36.7 36.7 36.7 20.269 0 36.7-16.431 36.7-36.7v-1.102c0-35.531 19.515-67.949 50.496-85.346 54.391-30.543 91.143-88.776 91.143-155.597z" fill="#95d6a4"/><path d="m271.565 453.623c-4.718 2.225-10.003 3.461-15.566 3.461-20.264 0-36.695-16.431-36.695-36.695v-1.113c0-35.356-19.213-67.879-50.087-85.103-55.073-30.741-92.17-89.822-91.552-157.515.906-98.124 80.21-176.654 178.334-176.654 5.223 0 10.384.227 15.494.67-90.779 7.829-161.831 83.136-162.686 175.986-.618 67.693 36.479 126.774 91.552 157.515 30.874 17.225 50.077 49.747 50.077 85.103v1.113c0 14.699 8.644 27.381 21.129 33.232z" fill="#78c2a4"/><g><circle cx="256.004" cy="178.339" fill="#f8f6f9" r="124.121"/><path d="m278.962 300.343c-7.438 1.391-15.113 2.122-22.952 2.122-68.548 0-124.127-55.568-124.127-124.127 0-68.548 55.578-124.116 124.127-124.116 7.84 0 15.514.731 22.952 2.122-57.587 10.766-101.174 61.286-101.174 121.994 0 60.72 43.587 111.24 101.174 122.005z" fill="#dddaec"/></g><g><path d="m326.418 129.894c3.333-6.718.588-14.859-6.129-18.192l-21.019-10.412c-6.717-3.333-14.859-.588-18.192 6.129l-41.595 83.922-20.256-33.876c-3.849-6.439-12.176-8.534-18.615-4.685l-20.132 12.032c-6.429 3.849-8.534 12.176-4.685 18.615l39.913 66.762c2.549 4.262 7.223 6.8 12.176 6.604l28.294-1.114c4.963-.196 9.421-3.085 11.619-7.533z" fill="#95d6a4"/></g></g></svg>