<svg id="Capa_1" enable-background="new 0 0 512 512" height="512" viewBox="0 0 512 512" width="512" xmlns="http://www.w3.org/2000/svg"><g><path d="m256 0c-141.382 0-256 114.618-256 256s114.618 256 256 256 256-114.618 256-256-114.618-256-256-256zm0 381.857c-69.506 0-125.857-56.351-125.857-125.857s56.351-125.857 125.857-125.857 125.857 56.351 125.857 125.857-56.351 125.857-125.857 125.857z" fill="#eab1b7"/><g fill="#e4989d"><path d="m274.817 380.456c6.139.92 12.422 1.401 18.817 1.401 69.506 0 125.857-56.351 125.857-125.857s-56.351-125.857-125.857-125.857c-6.395 0-12.678.481-18.817 1.401 60.581 9.084 107.04 61.345 107.04 124.456s-46.459 115.372-107.04 124.456z"/><path d="m37.634 256c0-135.053 104.588-245.674 237.183-255.309-6.214-.452-12.488-.691-18.817-.691-141.382 0-256 114.618-256 256s114.618 256 256 256c6.329 0 12.603-.239 18.817-.691-132.595-9.635-237.183-120.256-237.183-255.309z"/></g><g><path d="m296.179 256 34.332-34.332c5.793-5.793 5.793-15.185 0-20.978l-19.201-19.201c-5.793-5.793-15.185-5.793-20.978 0l-34.332 34.332-34.332-34.332c-5.793-5.793-15.185-5.793-20.978 0l-19.201 19.201c-5.793 5.793-5.793 15.185 0 20.978l34.332 34.332-34.332 34.332c-5.793 5.793-5.793 15.185 0 20.978l19.201 19.201c5.793 5.793 15.185 5.793 20.978 0l34.332-34.332 34.332 34.332c5.793 5.793 15.185 5.793 20.978 0l19.201-19.201c5.793-5.793 5.793-15.185 0-20.978z" fill="#dd636e"/><g fill="#da4a54"><path d="m264.878 224.699 43.211-43.211c.508-.508 1.052-.955 1.611-1.374-5.81-4.358-14.083-3.911-19.367 1.374l-34.333 34.333z"/><path d="m218.446 330.512-19.201-19.201c-5.793-5.793-5.793-15.185 0-20.978l34.332-34.333-34.332-34.332c-5.793-5.793-5.793-15.185 0-20.978l19.201-19.201c.508-.508 1.052-.955 1.611-1.374-5.81-4.358-14.083-3.911-19.367 1.374l-19.201 19.201c-5.793 5.793-5.793 15.185 0 20.978l34.332 34.332-34.332 34.332c-5.793 5.793-5.793 15.185 0 20.978l19.201 19.201c5.285 5.285 13.557 5.732 19.367 1.374-.559-.418-1.103-.865-1.611-1.373z"/><path d="m308.089 330.512-43.211-43.211-8.878 8.878 34.332 34.332c5.285 5.285 13.557 5.732 19.367 1.374-.558-.418-1.102-.865-1.61-1.373z"/></g></g><g fill="#dd636e"><path d="m81.696 227.538c-3.017-3.018-7.909-3.018-10.927 0l-7.233 7.233-7.233-7.233c-3.017-3.018-7.909-3.018-10.927 0-3.018 3.017-3.018 7.909 0 10.927l7.233 7.233-7.233 7.233c-3.018 3.017-3.018 7.909 0 10.927 1.509 1.509 3.486 2.263 5.463 2.263s3.955-.754 5.463-2.263l7.233-7.233 7.233 7.233c1.509 1.509 3.486 2.263 5.463 2.263s3.955-.754 5.463-2.263c3.018-3.017 3.018-7.909 0-10.927l-7.233-7.233 7.233-7.233c3.02-3.017 3.02-7.909.002-10.927z"/><path d="m459.39 245.698 7.233-7.233c3.018-3.017 3.018-7.909 0-10.927-3.017-3.018-7.909-3.018-10.927 0l-7.233 7.233-7.233-7.233c-3.017-3.018-7.909-3.018-10.927 0-3.018 3.017-3.018 7.909 0 10.927l7.233 7.233-7.233 7.233c-3.018 3.017-3.018 7.909 0 10.927 1.509 1.509 3.486 2.263 5.463 2.263s3.955-.754 5.463-2.263l7.233-7.233 7.233 7.233c1.509 1.509 3.486 2.263 5.463 2.263s3.955-.754 5.463-2.263c3.018-3.017 3.018-7.909 0-10.927z"/></g><g fill="#da4a54"><g><path d="m161.192 55.852c-2.134-3.696-6.86-4.961-10.554-2.828-3.696 2.134-4.962 6.859-2.828 10.554l22.879 39.627c.726 1.258.746 2.758.052 3.915-1.073 1.789-3.837 1.504-4.974 1.297-4.198-.759-8.219 2.028-8.979 6.227s2.028 8.219 6.226 8.979c1.347.244 2.778.38 4.246.38 6.066 0 12.764-2.319 16.731-8.932 3.581-5.968 3.612-13.476.08-19.593z"/><path d="m375.821 134.119 9.287-8.971 10.015 10.367c1.516 1.569 3.535 2.358 5.558 2.358 1.932 0 3.867-.721 5.367-2.169 3.069-2.965 3.153-7.856.189-10.925l-10.015-10.367 9.287-8.971 11.239 11.635c2.964 3.069 7.855 3.154 10.925.189 3.069-2.965 3.153-7.856.189-10.925l-16.607-17.192c-2.964-3.069-7.855-3.155-10.925-.189l-20.4 19.706s-.001.001-.001.001-.001.001-.001.001l-20.399 19.705c-1.474 1.424-2.321 3.374-2.357 5.424-.035 2.049.744 4.028 2.168 5.502l16.607 17.192c1.516 1.569 3.535 2.358 5.558 2.358 1.932 0 3.867-.721 5.367-2.169 3.069-2.965 3.153-7.856.189-10.925z"/><path d="m143.323 128.327-11.097 11.77-9.395-8.857 9.888-10.488c2.927-3.105 2.783-7.995-.321-10.922s-7.994-2.783-10.922.322l-9.888 10.488-9.395-8.857 11.097-11.77c2.927-3.105 2.783-7.995-.321-10.922-3.105-2.927-7.994-2.783-10.922.321l-16.397 17.392c-1.406 1.491-2.161 3.479-2.101 5.528.06 2.048.932 3.989 2.423 5.394l41.277 38.915c1.436 1.354 3.333 2.105 5.3 2.105.076 0 .152-.001.228-.003 2.048-.06 3.989-.932 5.394-2.423l16.397-17.392c2.927-3.105 2.783-7.995-.321-10.922-3.107-2.928-7.996-2.783-10.924.321z"/><path d="m230.589 87.245-15.794 3.497-2.791-12.606 14.073-3.116c4.166-.922 6.796-5.048 5.874-9.214-.923-4.166-5.043-6.796-9.214-5.874l-14.073 3.116-2.791-12.606 15.794-3.497c4.166-.923 6.796-5.048 5.874-9.214s-5.044-6.797-9.214-5.874l-23.338 5.167c-4.167.923-6.796 5.048-5.874 9.214l12.262 55.388c.813 4.07 5.19 6.853 9.214 5.874l23.338-5.167c4.167-.923 6.796-5.048 5.874-9.214-.922-4.167-5.046-6.797-9.214-5.874z"/><path d="m461.47 164.082-6.06-14.521c-.79-1.893-2.301-3.395-4.199-4.173-1.899-.778-4.028-.77-5.921.024 0 0-51.24 21.508-51.24 21.508-1.888.796-3.383 2.31-4.155 4.208s-.759 4.026.038 5.914c.185.438 4.548 10.781 6.349 14.892 4.816 10.995 15.347 17.106 27.631 17.106 5.252 0 10.825-1.117 16.409-3.448 19.597-8.18 28.096-24.861 21.148-41.51zm-27.101 27.249c-12.547 5.236-21.061.961-23.934-5.598-.767-1.75-2.047-4.747-3.251-7.579 6.006-2.529 30.688-12.874 36.946-15.498l3.079 7.378c1.329 3.184 4.331 14.131-12.84 21.297z"/><path d="m294.874 31.687c-19.742-3.481-38.632 9.747-42.113 29.487-3.48 19.74 9.748 38.632 29.488 42.112 2.022.357 4.02.534 5.983.534 5.711 0 11.116-1.5 15.876-4.438 1.252-.773 2.468-1.653 3.613-2.614 3.268-2.743 3.693-7.617.95-10.885s-7.617-3.694-10.885-.95c-.574.482-1.178.919-1.795 1.3-3.164 1.953-6.884 2.571-11.058 1.835-11.349-2.001-18.954-12.862-16.953-24.211 2.002-11.349 12.864-18.952 24.211-16.953 4.125.727 7.888 2.643 10.883 5.539 3.067 2.967 7.959 2.885 10.925-.183 2.966-3.067 2.885-7.958-.183-10.925-5.219-5.047-11.769-8.384-18.942-9.648z"/><path d="m367.601 76.601c1.156.615 2.397.906 3.621.906 2.765 0 5.44-1.489 6.828-4.101 2.004-3.768.573-8.446-3.195-10.449l-27.916-14.844c-3.766-2.003-8.446-.573-10.449 3.195-2.004 3.768-.573 8.446 3.195 10.449l7.08 3.765-23.251 43.728c-2.004 3.768-.573 8.446 3.195 10.449 1.156.615 2.397.906 3.621.906 2.765 0 5.44-1.489 6.828-4.101l23.251-43.728z"/><path d="m116.269 164.625-20.233 6.138c1.061-9.662-3.861-19.223-12.887-23.332-11.345-5.164-24.932.208-30.289 11.975l-6.303 13.846c-.851 1.869-.923 4-.199 5.922.723 1.922 2.182 3.477 4.054 4.322.001 0 52.075 23.726 52.075 23.726 3.793 1.753 8.461.092 10.233-3.831 1.768-3.884.053-8.465-3.831-10.233l-13.376-6.089 25.241-7.657c4.084-1.239 6.389-5.553 5.151-9.637-1.239-4.084-5.555-6.389-9.636-5.15zm-49.344 1.183c1.796-3.944 6.296-5.918 9.822-4.313 3.529 1.606 4.993 6.296 3.198 10.239-.725 1.592-1.911 4.225-3.054 6.768-2.472-1.11-10.467-4.73-13.058-5.901z"/></g><g><path d="m185.593 381.335c-3.636-2.235-8.393-1.1-10.629 2.535l-23.966 38.979c-.76 1.237-2.073 1.976-3.419 1.909-2.114-.094-3.168-2.693-3.523-3.806-1.297-4.065-5.646-6.309-9.709-5.012-4.065 1.297-6.309 5.644-5.012 9.709 2.153 6.75 7.897 14.116 17.557 14.546.281.012.562.019.842.019 6.641 0 12.878-3.498 16.428-9.271l23.966-38.979c2.235-3.635 1.099-8.394-2.535-10.629z"/><path d="m436.709 375.335c-3.207-2.813-8.089-2.495-10.903.712l-10.67 12.16-9.705-8.516 9.507-10.835c2.814-3.208 2.495-8.089-.712-10.903-3.208-2.814-8.089-2.496-10.904.712l-9.507 10.835-9.705-8.516 10.669-12.159c2.814-3.208 2.496-8.089-.711-10.904-3.207-2.814-8.089-2.496-10.903.712l-15.766 17.967c-2.814 3.208-2.496 8.089.711 10.904l42.64 37.416c3.072 2.801 8.227 2.461 10.903-.712l15.766-17.967c2.816-3.21 2.497-8.092-.71-10.906z"/><path d="m136.931 366.817c2.577 3.399 7.425 4.067 10.825 1.487 3.4-2.578 4.066-7.425 1.488-10.825l-14.444-19.045c-2.579-3.4-7.425-4.066-10.825-1.487l-22.6 17.139s-.001 0-.001.001c0 0-.001.001-.001.001l-22.599 17.138c-3.4 2.578-4.066 7.425-1.488 10.825l14.444 19.046c1.52 2.004 3.827 3.058 6.162 3.058 1.627 0 3.267-.512 4.663-1.571 3.4-2.578 4.066-7.425 1.488-10.825l-9.775-12.89 10.288-7.802 8.71 11.485c1.52 2.004 3.827 3.058 6.162 3.058 1.627 0 3.267-.512 4.663-1.571 3.4-2.578 4.066-7.425 1.488-10.825l-8.71-11.485 10.288-7.802z"/><path d="m238.01 403.121-23.147-5.964c-4.13-1.067-8.345 1.422-9.409 5.554l-14.155 54.934c-.512 1.984-.213 4.091.828 5.855 1.042 1.765 2.742 3.043 4.726 3.555l23.147 5.964c.647.167 1.295.246 1.934.246 3.44 0 6.578-2.315 7.476-5.8 1.065-4.132-1.422-8.345-5.554-9.41l-15.665-4.036 3.222-12.503 13.958 3.597c.647.167 1.295.246 1.934.246 3.44 0 6.578-2.315 7.476-5.8 1.065-4.132-1.422-8.345-5.554-9.41l-13.959-3.597 3.222-12.503 15.665 4.036c4.128 1.066 8.345-1.422 9.409-5.554 1.065-4.133-1.422-8.345-5.554-9.41z"/><path d="m441.177 281.119c-9.071-3.007-17.818-3.278-25.293-.785-8.592 2.865-14.948 9.346-17.897 18.247l-4.95 14.936c-.645 1.947-.49 4.072.433 5.904.923 1.833 2.536 3.223 4.485 3.865.001 0 52.785 17.374 52.785 17.374 3.914 1.37 8.536-.969 9.747-4.94.148-.452 3.638-11.121 4.975-15.406 5.105-16.357-5.108-32.841-24.285-39.195zm9.534 34.592c-.569 1.824-1.569 4.926-2.518 7.854-6.193-2.03-31.608-10.41-38.053-12.534l2.515-7.589c1.439-4.343 4.095-7.107 8.118-8.449 4.225-1.409 9.745-1.127 15.543.794 12.905 4.276 16.529 13.088 14.395 19.924z"/><path d="m315.003 449.417c-3.523-2.409-8.33-1.506-10.739 2.016-.422.617-.886 1.201-1.379 1.735-2.522 2.733-5.939 4.329-10.156 4.744-5.555.547-10.991-1.104-15.306-4.646s-6.991-8.553-7.538-14.108c-.546-5.556 1.104-10.991 4.646-15.306s8.553-6.991 14.109-7.537c4.169-.41 8.309.422 11.972 2.405 3.753 2.032 8.442.636 10.473-3.116 2.031-3.753.636-8.441-3.117-10.473-6.384-3.457-13.592-4.907-20.841-4.194-9.663.95-18.378 5.606-24.54 13.111-6.161 7.505-9.031 16.96-8.081 26.623s5.606 18.379 13.111 24.54c6.563 5.389 14.618 8.26 23 8.26 1.202 0 2.411-.059 3.623-.178 7.989-.785 14.905-4.12 20.002-9.644.999-1.083 1.934-2.258 2.777-3.491 2.409-3.524 1.506-8.333-2.016-10.741z"/><path d="m352.569 393.329 7.04-4.098c3.688-2.147 4.937-6.876 2.791-10.564-2.147-3.688-6.877-4.937-10.564-2.791l-27.325 15.906c-3.688 2.147-4.937 6.876-2.791 10.564 1.435 2.465 4.024 3.841 6.685 3.841 1.32 0 2.657-.339 3.88-1.05l6.93-4.034 24.914 42.802c2.159 3.722 6.941 4.918 10.564 2.791 3.688-2.147 4.937-6.876 2.791-10.564z"/><path d="m93.64 333.425c2.079 0 4.187-.298 6.271-.923 5.855-1.756 10.624-5.82 13.43-11.444 2.714-5.438 3.241-11.657 1.485-17.51l-4.371-14.572c-.59-1.967-1.939-3.618-3.748-4.589-1.81-.971-3.932-1.18-5.897-.585-.001 0-54.818 16.424-54.818 16.424-4.087 1.226-6.407 5.533-5.181 9.62 1.004 3.347 4.074 5.509 7.397 5.509.735 0 1.483-.106 2.223-.328l14.076-4.222-13.959 22.381c-2.258 3.621-1.153 8.387 2.467 10.645 1.272.793 2.685 1.172 4.081 1.172 2.578 0 5.099-1.29 6.563-3.639l11.187-17.937c4.344 6.223 11.391 9.998 18.794 9.998zm6.385-25.436c.613 2.043.426 4.291-.512 6.17-.881 1.767-2.317 3.025-4.043 3.542-3.716 1.114-7.903-1.452-9.148-5.602-.502-1.675-1.343-4.438-2.156-7.105 2.592-.791 10.993-3.33 13.714-4.155z"/></g></g></g></svg>