<svg id="Capa_1" enable-background="new 0 0 512 512" height="512" viewBox="0 0 512 512" width="512" xmlns="http://www.w3.org/2000/svg"><g><circle cx="256" cy="256" fill="#eab1b7" r="256"/><path d="m139.254 437.027c41.805 41.794 94.457 66.117 148.892 72.957-75.77 9.539-154.98-14.783-213.165-72.957-99.969-99.979-99.969-262.067 0-362.046 58.184-58.175 137.395-82.497 213.165-72.958-54.435 6.841-107.087 31.163-148.892 72.957-99.969 99.98-99.969 262.068 0 362.047z" fill="#e4989d"/><g><path d="m363.462 293.993 55.163-55.163c9.308-9.308 9.308-24.399 0-33.706l-30.851-30.851c-9.308-9.308-24.399-9.308-33.706 0l-55.163 55.163-55.163-55.163c-9.308-9.308-24.399-9.308-33.706 0l-30.851 30.851c-9.308 9.308-9.308 24.399 0 33.706l55.163 55.163-55.163 55.163c-9.308 9.308-9.308 24.399 0 33.706l30.851 30.851c9.308 9.308 24.399 9.308 33.706 0l55.163-55.163 55.163 55.163c9.308 9.308 24.399 9.308 33.706 0l30.851-30.851c9.308-9.308 9.308-24.399 0-33.706z" fill="#dd636e"/><g fill="#da4a54"><path d="m313.17 243.701 69.428-69.428c.816-.816 1.69-1.535 2.588-2.208-9.336-7.002-22.627-6.283-31.118 2.208l-55.163 55.163z"/><path d="m238.566 413.714-30.851-30.851c-9.308-9.308-9.308-24.399 0-33.706l55.163-55.163-55.163-55.163c-9.308-9.308-9.308-24.399 0-33.706l30.851-30.851c.816-.816 1.69-1.535 2.588-2.208-9.336-7.002-22.627-6.283-31.118 2.208l-30.851 30.851c-9.308 9.308-9.308 24.399 0 33.706l55.163 55.163-55.163 55.163c-9.308 9.308-9.308 24.399 0 33.706l30.851 30.851c8.491 8.492 21.783 9.21 31.118 2.208-.898-.673-1.772-1.391-2.588-2.208z"/><path d="m382.598 413.714-69.428-69.428-14.265 14.265 55.163 55.163c8.491 8.492 21.783 9.21 31.118 2.208-.897-.673-1.771-1.391-2.588-2.208z"/></g></g><g fill="#dd636e"><path d="m87.713 215.534c-3.57 2.338-4.569 7.126-2.232 10.696 1.483 2.265 3.952 3.495 6.471 3.495 1.452 0 2.92-.409 4.225-1.263 6.046-3.958 11.652-11.605 9.255-21.195-1.688-6.753-6.974-12.083-13.798-13.912l-44.199-11.843c-4.116-1.1-8.358 1.342-9.463 5.464-1.104 4.122 1.342 8.358 5.464 9.463l44.198 11.842c1.403.376 2.479 1.424 2.806 2.733.559 2.237-2.174 4.158-2.727 4.52z"/><path d="m271.432 44.101c4.245.035 7.785-3.325 7.859-7.592.073-4.267-3.325-7.785-7.592-7.859l-23.899-.413c-4.291-.042-7.785 3.325-7.859 7.592l-.981 56.72c-.035 2.049.744 4.028 2.169 5.502 1.424 1.474 3.374 2.321 5.423 2.357l23.9.413c.045 0 .092.001.137.001 4.204 0 7.649-3.372 7.722-7.593.073-4.267-3.325-7.785-7.592-7.859l-16.175-.28.223-12.909 14.412.249c.045.001.092.001.137.001 4.204 0 7.649-3.372 7.722-7.593.073-4.267-3.325-7.785-7.592-7.859l-14.412-.249.223-12.909z"/><path d="m29.344 247.065.704 23.893c.123 4.188 3.557 7.499 7.719 7.499.076 0 .154-.001.231-.004l28.352-.835h.001l28.351-.835c4.265-.125 7.621-3.685 7.495-7.95l-.703-23.893c-.126-4.265-3.647-7.646-7.95-7.495-4.265.125-7.621 3.685-7.495 7.95l.476 16.17-12.906.38-.424-14.408c-.125-4.265-3.684-7.622-7.95-7.495-4.266.125-7.621 3.685-7.495 7.95l.424 14.408-12.906.38-.476-16.17c-.125-4.265-3.694-7.643-7.95-7.495-4.268.125-7.624 3.685-7.498 7.95z"/><path d="m81.537 121.784c-3.598-2.293-8.375-1.236-10.669 2.362l-12.848 20.155c-2.294 3.598-1.236 8.375 2.362 10.669l23.914 15.245c.001.001.002.002.003.003s.002.001.003.002l23.915 15.245c1.251.797 2.693 1.211 4.153 1.211.557 0 1.118-.06 1.67-.183 2.001-.443 3.743-1.662 4.845-3.39l12.849-20.156c2.294-3.598 1.236-8.375-2.362-10.669-3.598-2.293-8.374-1.236-10.668 2.362l-8.696 13.641-10.887-6.94 7.748-12.155c2.294-3.598 1.236-8.375-2.362-10.669-3.599-2.294-8.375-1.236-10.669 2.362l-7.748 12.155-10.887-6.941 8.696-13.641c2.294-3.598 1.236-8.374-2.362-10.668z"/><path d="m294.872 105.463c.441.18 10.839 4.407 15.019 6.041 3.392 1.326 6.838 1.962 10.235 1.962 12.59 0 24.515-8.73 30.563-23.445 8.074-19.642 2.288-37.447-14.397-44.307l-14.553-5.982c-1.897-.781-4.027-.774-5.921.019-1.892.792-3.392 2.304-4.169 4.203 0 .001-21.024 51.441-21.024 51.441-.772 1.898-.759 4.025.038 5.913.797 1.889 2.311 3.384 4.209 4.155zm28.151-48.496 7.394 3.04c3.191 1.312 13.054 6.93 5.981 24.139-5.168 12.573-14.211 15.574-20.882 12.965-1.78-.695-4.804-1.909-7.659-3.061 2.459-6.034 12.597-30.802 15.166-37.083z"/><path d="m133.738 82.557c3.432-2.402 7.447-3.709 11.612-3.779 4.267-.071 7.667-3.588 7.597-7.854-.071-4.267-3.627-7.646-7.854-7.597-7.26.121-14.25 2.393-20.217 6.571-7.954 5.569-13.263 13.903-14.949 23.465s.453 19.209 6.022 27.163 13.903 13.263 23.465 14.949c2.133.376 4.268.562 6.389.562 7.391 0 14.594-2.257 20.774-6.584 6.575-4.604 10.966-10.903 12.697-18.218.339-1.434.577-2.916.706-4.404.37-4.251-2.776-7.997-7.027-8.367-4.251-.377-7.997 2.776-8.367 7.027-.065.744-.183 1.48-.35 2.187-.857 3.619-3.051 6.687-6.523 9.117-4.572 3.202-10.117 4.434-15.616 3.462-5.497-.969-10.288-4.022-13.49-8.595s-4.431-10.119-3.462-15.617c.968-5.496 4.02-10.286 8.593-13.488z"/><path d="m213.189 40.584c-1.248-4.08-5.567-6.377-9.648-5.13l-30.236 9.244c-4.08 1.247-6.377 5.567-5.13 9.648 1.018 3.328 4.078 5.469 7.386 5.469.748 0 1.509-.11 2.262-.34l7.668-2.344 14.48 47.361c1.018 3.328 4.078 5.469 7.386 5.469.748 0 1.509-.11 2.262-.34 4.08-1.247 6.377-5.567 5.13-9.648l-14.48-47.361 7.79-2.382c4.081-1.246 6.378-5.565 5.13-9.646z"/><path d="m49.391 345.586c.72 1.924 2.176 3.481 4.046 4.328 1.012.459 2.1.689 3.19.689.925 0 1.851-.166 2.733-.5.001 0 53.6-20.046 53.6-20.046 3.996-1.496 6.023-5.949 4.527-9.945-1.496-3.997-5.95-6.024-9.945-4.527l-13.764 5.153 12.434-23.263c2.012-3.763.592-8.445-3.172-10.456-3.762-2.013-8.445-.592-10.456 3.172l-9.981 18.674c-2.149-2.67-4.845-4.876-7.98-6.423-5.637-2.781-11.894-3.131-17.617-.989-5.724 2.143-10.212 6.516-12.636 12.315-2.345 5.608-2.456 11.847-.313 17.569zm9.235-25.856c.762-1.822 2.11-3.173 3.797-3.804.701-.263 1.44-.393 2.191-.393 1.056 0 2.136.258 3.171.768 1.883.929 3.392 2.607 4.139 4.605.614 1.638 1.636 4.338 2.626 6.945-2.533.962-5.137 1.949-6.713 2.539-1.345.504-4.033 1.517-6.694 2.521l-2.617-6.99c-.745-1.997-.709-4.254.1-6.191z"/></g></g></svg>