<svg id="Capa_1" enable-background="new 0 0 511.992 511.992" height="512" viewBox="0 0 511.992 511.992" width="512" xmlns="http://www.w3.org/2000/svg"><g><path d="m400.166 41.207h-288.339c-40.485 0-73.305 32.82-73.305 73.305v324.175c0 40.485 32.82 73.305 73.305 73.305h288.339c40.485 0 73.305-32.82 73.305-73.305v-324.175c0-40.485-32.82-73.305-73.305-73.305z" fill="#d8aa8b"/><path d="m144.938 511.992h-33.11c-40.486 0-73.306-32.821-73.306-73.307v-324.172c0-40.486 32.821-73.307 73.306-73.307h33.11c-40.486 0-73.307 32.821-73.307 73.307v324.172c0 40.487 32.821 73.307 73.307 73.307z" fill="#ce9875"/><path d="m358.631 108.081h-237.106c-22.428 0-40.61 18.182-40.61 40.61v279.931c0 22.428 18.182 40.61 40.61 40.61h237.106c22.428 0 40.61-18.182 40.61-40.61v-279.931c0-22.428-18.182-40.61-40.61-40.61z" fill="#ce9875"/><path d="m374.083 108.081h-237.106c-22.429 0-40.61 18.182-40.61 40.61v279.931c0 22.428 18.182 40.61 40.61 40.61h237.106c22.428 0 40.61-18.182 40.61-40.61v-279.931c.001-22.428-18.181-40.61-40.61-40.61z" fill="#f8f6f9"/><path d="m294.38 141.763h-76.768c-16.336 0-29.627-13.291-29.627-29.627v-45.546c0-4.267 3.459-7.726 7.726-7.726s7.726 3.459 7.726 7.726v45.546c0 7.816 6.359 14.174 14.174 14.174h76.768c7.816 0 14.174-6.359 14.174-14.174v-45.546c0-4.267 3.459-7.726 7.726-7.726s7.726 3.459 7.726 7.726v45.546c.002 16.336-13.288 29.627-29.625 29.627z" fill="#407093"/><g><path d="m294.467 288.657 33.271-33.271c5.614-5.614 5.614-14.716 0-20.33l-18.608-18.608c-5.614-5.614-14.716-5.614-20.33 0l-33.27 33.272-33.271-33.271c-5.614-5.614-14.716-5.614-20.33 0l-18.608 18.608c-5.614 5.614-5.614 14.716 0 20.33l33.271 33.271-33.271 33.271c-5.614 5.614-5.614 14.716 0 20.33l18.608 18.608c5.614 5.614 14.716 5.614 20.33 0l33.271-33.271 33.271 33.271c5.614 5.614 14.716 5.614 20.33 0l18.608-18.608c5.614-5.614 5.614-14.716 0-20.33z" fill="#dd636e"/></g><path d="m323.08 82.042h-134.168c-22.655 0-41.021-18.366-41.021-41.021 0-22.655 18.366-41.021 41.021-41.021h134.168c22.655 0 41.021 18.366 41.021 41.021 0 22.656-18.366 41.021-41.021 41.021z" fill="#bed8fb"/><path d="m243.418 82.043h-54.506c-22.653 0-41.021-18.368-41.021-41.021 0-11.332 4.594-21.582 12.012-29.01 7.427-7.418 17.677-12.012 29.009-12.012h54.506c-11.322 0-21.582 4.594-29.01 12.012-7.417 7.428-12.012 17.678-12.012 29.01.001 22.653 18.369 41.021 41.022 41.021z" fill="#9dc6fb"/></g></svg>