<svg id="Capa_1" enable-background="new 0 0 511.991 511.991" height="512" viewBox="0 0 511.991 511.991" width="512" xmlns="http://www.w3.org/2000/svg"><g><g><path d="m353.813 361.705h-9.632c20.501 0 37.173 16.42 37.561 36.837.409 21.057-17.238 38.306-38.306 38.306h-13.702c10.376 0 19.767 4.207 26.566 11.006s11.006 16.189 11.006 26.566c0 3.431-.462 6.746-1.322 9.894-4.333 15.958-18.927 27.678-36.25 27.678h-216.617l-56.887-38.916c-5.75-3.934-12.024-6.956-18.613-8.992-6.589-2.035-13.472-3.084-20.438-3.084v-217.602h10.586c18.088 0 33.721-12.286 38.432-29.755.021-.094.053-.199.084-.304 8.656-31.612 35.253-53.498 65.795-57.685l20.375-74.367c6.725-24.551 28.979-40.677 53.268-40.677 4.826 0 9.736.64 14.626 1.972 29.44 8.068 46.763 38.463 38.705 67.904l-27.646 100.922h132.041c20.501 0 37.173 16.43 37.561 36.837.409 21.068-17.238 38.306-38.306 38.306h-8.887c10.377 0 19.767 4.207 26.566 11.006s11.006 16.2 11.006 26.566c-.001 20.753-16.819 37.582-37.572 37.582z" fill="#ffddce"/><g fill="#ffcbbe"><path d="m365.983 484.314c-4.333 15.958-18.927 27.678-36.25 27.678h-216.616l-56.887-38.916c-5.75-3.934-12.024-6.956-18.613-8.992-6.589-2.035-13.472-3.084-20.438-3.084v-33.249h29.99c25.606 0 50.163 10.173 68.267 28.281 18.104 18.108 42.661 28.281 68.267 28.281h182.28z"/><path d="m231.033 46.74c-13.283 6.83-23.775 19.001-28.035 34.55l-20.375 74.367c-30.542 4.186-57.139 26.072-65.795 57.685-.028.101-.055.205-.082.313-9.361 36.878-42.645 62.65-80.693 62.65h-18.877v-32.905h10.586c18.088 0 33.721-12.286 38.432-29.755.032-.094.053-.199.084-.304 8.656-31.612 35.253-53.498 65.805-57.685l20.365-74.367c6.725-24.551 28.979-40.677 53.268-40.677 4.826 0 9.737.64 14.626 1.972 3.777 1.039 7.344 2.435 10.691 4.156z"/></g></g><g fill="#95d6a4"><path d="m430.654 188.01-.697-2.6c-2.457-9.17 2.606-18.676 11.586-21.755l27.622-9.47c9.894-3.392 20.591 2.305 23.298 12.408l1.731 6.46c2.707 10.103-3.709 20.385-13.973 22.394l-28.656 5.61c-9.316 1.824-18.454-3.877-20.911-13.047z"/><path d="m386.529 110.189-1.903-1.903c-6.713-6.713-7.081-17.477-.844-24.633l19.186-22.012c6.872-7.885 18.985-8.299 26.38-.904l4.729 4.729c7.396 7.396 6.981 19.508-.904 26.38l-22.012 19.186c-7.155 6.239-17.919 5.87-24.632-.843z"/><path d="m309.405 64.858-2.6-.697c-9.17-2.457-14.871-11.595-13.047-20.911l5.61-28.656c2.009-10.264 12.292-16.68 22.394-13.973l6.46 1.731c10.103 2.707 15.8 13.404 12.408 23.298l-9.47 27.622c-3.079 8.98-12.585 14.043-21.755 11.586z"/></g></g></svg>