<svg id="Capa_1" enable-background="new 0 0 512 512" height="512" viewBox="0 0 512 512" width="512" xmlns="http://www.w3.org/2000/svg"><g><g><g fill="#dd636e"><path d="m308.756 447.837 2.6-.697c9.17-2.457 18.676 2.606 21.755 11.586l9.47 27.623c3.392 9.894-2.305 20.592-12.408 23.299l-6.461 1.731c-10.103 2.707-20.386-3.709-22.395-13.973l-5.61-28.657c-1.822-9.317 3.88-18.455 13.049-20.912z"/><path d="m386.579 403.711 1.903-1.903c6.713-6.713 17.477-7.082 24.634-.844l22.013 19.187c7.885 6.872 8.3 18.985.904 26.381l-4.729 4.729c-7.396 7.396-19.509 6.981-26.381-.904l-19.187-22.013c-6.239-7.156-5.87-17.92.843-24.633z"/><path d="m431.912 326.585.697-2.6c2.457-9.17 11.595-14.871 20.911-13.048l28.657 5.61c10.265 2.009 16.68 12.292 13.973 22.395l-1.731 6.461c-2.707 10.103-13.405 15.8-23.299 12.408l-27.623-9.47c-8.979-3.079-14.042-12.586-11.585-21.756z"/></g></g><g><path d="m351.874 150.29h-9.632c20.502 0 37.174-16.42 37.562-36.838.409-21.058-17.239-38.307-38.307-38.307h-13.703c10.377 0 19.767-4.207 26.566-11.006s11.006-16.19 11.006-26.566c0-3.431-.462-6.747-1.322-9.894-4.332-15.959-18.927-27.679-36.25-27.679h-216.622l-56.889 38.916c-5.75 3.935-12.024 6.956-18.613 8.992-6.589 2.035-13.472 3.085-20.439 3.085v217.608h10.587c18.089 0 33.722 12.286 38.433 29.756.021.094.053.199.084.304 8.656 31.613 35.254 53.5 65.797 57.686l20.376 74.369c6.726 24.552 28.979 40.678 53.269 40.678 4.826 0 9.737-.64 14.626-1.973 29.441-8.069 46.764-38.464 38.706-67.906l-27.647-100.925h132.044c20.502 0 37.174-16.431 37.562-36.838.409-21.068-17.239-38.307-38.307-38.307h-8.887c10.377 0 19.767-4.207 26.566-11.006s11.006-16.2 11.006-26.566c.001-20.753-16.818-37.583-37.572-37.583z" fill="#ffddce"/><g fill="#ffcbbe"><path d="m364.045 27.678c-4.333-15.958-18.928-27.678-36.251-27.678h-216.622l-56.889 38.916c-5.75 3.935-12.024 6.956-18.613 8.992-6.589 2.035-13.472 3.085-20.439 3.085v33.25h29.99c25.607 0 50.164-10.173 68.269-28.282 18.105-18.108 42.663-28.282 68.269-28.282h182.286z"/><path d="m229.092 465.264c-13.283-6.83-23.776-19.001-28.035-34.551l-20.376-74.369c-30.543-4.186-57.141-26.073-65.797-57.686-.028-.101-.055-.205-.082-.313-9.361-36.879-42.646-62.651-80.695-62.651h-18.878v32.904h10.587c18.089 0 33.722 12.286 38.433 29.756.032.094.053.199.084.304 8.656 31.613 35.254 53.5 65.807 57.686l20.365 74.369c6.726 24.552 28.98 40.678 53.269 40.678 4.827 0 9.737-.64 14.626-1.973 3.777-1.038 7.345-2.434 10.692-4.154z"/></g></g></g></svg>